<svg  viewBox="0 0 8 13"  xmlns="http://www.w3.org/2000/svg">
<path d="M3.47306 9.25709C2.47403 9.15698 1.57325 8.92059 0.802046 8.3411C0.706354 8.269 0.607557 8.1995 0.520233 8.11897C0.182679 7.80751 0.148667 7.45079 0.415768 7.08317C0.644269 6.76859 1.02785 6.68444 1.42654 6.86507C1.50374 6.90008 1.5773 6.94378 1.64775 6.99072C3.08503 7.93951 5.05947 7.9657 6.50214 7.03338C6.64507 6.92809 6.79785 6.84225 6.97493 6.79842C7.31923 6.71348 7.64032 6.83498 7.82509 7.12441C8.03618 7.45494 8.03348 7.77755 7.7734 8.03417C7.37444 8.42759 6.89463 8.71221 6.3615 8.91087C5.8574 9.09863 5.30525 9.19316 4.75876 9.25592C4.84123 9.34215 4.8801 9.38455 4.93165 9.43435C5.67371 10.1506 6.419 10.864 7.15862 11.5825C7.41061 11.8273 7.46325 12.1308 7.3245 12.4156C7.1728 12.7268 6.83322 12.9315 6.50025 12.9096C6.2893 12.8956 6.12477 12.7947 5.9786 12.6533C5.41862 12.1119 4.84811 11.5805 4.29947 11.0289C4.1398 10.8685 4.063 10.8988 3.9221 11.0381C3.35874 11.5953 2.78621 12.1439 2.2103 12.6894C1.9517 12.9344 1.64397 12.9785 1.34408 12.8386C1.02528 12.6901 0.822426 12.3775 0.838082 12.0633C0.84888 11.8507 0.957664 11.6884 1.1095 11.5428C1.84386 10.8383 2.5762 10.132 3.3088 9.4263C3.35726 9.37936 3.40247 9.32957 3.47306 9.25709Z" />
<path d="M4.081 6.8032C2.29875 6.79737 0.837319 5.37787 0.847711 3.66286C0.857969 1.92891 2.32034 0.531591 4.12014 0.536389C5.92358 0.541057 7.37111 1.95848 7.36207 3.71045C7.35289 5.42196 5.88133 6.80917 4.081 6.8032ZM5.70075 3.66701C5.69764 2.81547 4.99176 2.13755 4.10718 2.13677C3.21518 2.13587 2.50296 2.8261 2.50984 3.68542C2.51645 4.53372 3.22841 5.20684 4.11542 5.20372C4.99973 5.20074 5.70372 4.51842 5.70075 3.66701Z" />
</svg>
