<svg width="24" height="27" viewBox="0 0 24 27"  xmlns="http://www.w3.org/2000/svg">
<path fill-rule="evenodd" clip-rule="evenodd" d="M12.5071 0H10.9437C10.512 0 10.162 0.341394 10.162 0.762721V3.10173H0.781693C0.349625 3.10173 0 3.44287 0 3.86445V19.1697C0 19.5913 0.349625 19.9324 0.781693 19.9324H22.6691C23.1012 19.9324 23.4508 19.5913 23.4508 19.1697V3.86445C23.4508 3.44287 23.1012 3.10173 22.6691 3.10173H13.2888V0.762721C13.2888 0.341394 12.9388 0 12.5071 0ZM14.0705 6.91534V7.67806H17.9789C18.411 7.67806 18.7606 8.0192 18.7606 8.44078V12.2544H19.5423C19.9744 12.2544 20.324 12.5955 20.324 13.0171V16.068C20.324 16.4896 19.9744 16.8307 19.5423 16.8307H16.4156C15.9835 16.8307 15.6339 16.4896 15.6339 16.068V13.0171C15.6339 12.5955 15.9835 12.2544 16.4156 12.2544H17.1973V9.2035H14.0705V9.96622C14.0705 10.3878 13.7209 10.7289 13.2888 10.7289H12.5071V12.2544H13.2888C13.7209 12.2544 14.0705 12.5955 14.0705 13.0171V16.068C14.0705 16.4896 13.7209 16.8307 13.2888 16.8307H10.162C9.72995 16.8307 9.38032 16.4896 9.38032 16.068V13.0171C9.38032 12.5955 9.72995 12.2544 10.162 12.2544H10.9437V10.7289H10.162C9.72995 10.7289 9.38032 10.3878 9.38032 9.96622V9.2035H6.25355V12.2544H7.03524C7.46731 12.2544 7.81693 12.5955 7.81693 13.0171V16.068C7.81693 16.4896 7.46731 16.8307 7.03524 16.8307H3.90847C3.4764 16.8307 3.12677 16.4896 3.12677 16.068V13.0171C3.12677 12.5955 3.4764 12.2544 3.90847 12.2544H4.69016V8.44078C4.69016 8.0192 5.03979 7.67806 5.47185 7.67806H9.38032V6.91534C9.38032 6.49376 9.72995 6.15262 10.162 6.15262H13.2888C13.7209 6.15262 14.0705 6.49376 14.0705 6.91534ZM4.50831 21.4578L3.25755 24.5087H2.34406C1.91199 24.5087 1.56237 24.8499 1.56237 25.2714C1.56237 25.693 1.91199 26.0342 2.34406 26.0342H5.59143C5.9113 26.0342 6.19833 25.8443 6.31741 25.5545L6.74614 24.5087H16.7026L17.1314 25.5545C17.2504 25.8442 17.5375 26.0342 17.8573 26.0342H21.1047C21.5368 26.0342 21.8864 25.693 21.8864 25.2714C21.8864 24.8499 21.5368 24.5087 21.1047 24.5087H20.1912L18.9405 21.4578H15.4519L16.0773 22.9832H7.37155L7.99696 21.4578H4.50831ZM12.5048 7.67822H10.9414V9.2037H12.5048V7.67822ZM6.25187 13.7798H4.68849V15.3053H6.25187V13.7798ZM10.9414 13.7798H12.5048V15.3053H10.9414V13.7798ZM18.7585 13.7798H17.1951V15.3053H18.7585V13.7798Z" />
</svg>
