<svg  viewBox="0 0 8 12"  xmlns="http://www.w3.org/2000/svg">
<path d="M6.8679 0.0486199L5.3483 0.046875C3.64037 0.046875 2.53734 1.18545 2.53734 2.94611V4.28361H1.00906C0.877144 4.28361 0.769531 4.39093 0.769531 4.52529V6.46218C0.769531 6.59392 0.877144 6.70211 1.00906 6.70211H2.53734V11.5915C2.53734 11.7249 2.64408 11.8296 2.776 11.8296H4.77031C4.90222 11.8296 5.00897 11.7249 5.00897 11.5915V6.70211H6.79673C6.92778 6.70211 7.03539 6.59392 7.03539 6.46218V4.52529C7.03539 4.45985 7.01022 4.39965 6.96596 4.35515C6.91997 4.30891 6.86009 4.28361 6.79673 4.28361H5.00897V3.15114C5.00897 2.60584 5.13828 2.33014 5.84384 2.33014H6.8679C6.99981 2.33014 7.10656 2.22195 7.10656 2.08934V0.289423C7.10656 0.155934 6.99981 0.0486199 6.8679 0.0486199Z" />
</svg>
