<svg width="36" height="29" viewBox="0 0 36 29" fill="none" xmlns="http://www.w3.org/2000/svg">
<path d="M7.45501 19.5408C7.3232 19.4702 7.19411 19.3947 7.06806 19.3147C4.3551 20.5349 2.60628 23.2363 2.60723 26.2188V26.2188V27.8962C2.60723 28.3814 2.21435 28.7755 1.72865 28.7755C1.24294 28.7755 0.850069 28.3814 0.850069 27.8962V26.2191C0.837089 22.8263 2.66862 19.7002 5.62084 18.0525C3.39138 15.4363 3.63275 11.5013 6.19761 9.17984C7.37151 8.11682 8.89811 7.52877 10.4814 7.53026M7.45501 19.5408L10.4813 7.68026M7.45501 19.5408C7.25778 20.3668 7.16019 21.2134 7.16442 22.0627V27.8967C7.16442 28.3819 7.55729 28.776 8.043 28.776C8.5287 28.776 8.92158 28.3819 8.92158 27.8967V22.0624V22.0622C8.91684 18.5908 10.9458 15.4414 14.1008 14.0113C16.4092 15.5098 19.373 15.5479 21.7194 14.1098C22.5771 14.5458 23.359 15.1197 24.0331 15.8079L24.0341 15.8089C25.6887 17.4662 26.6109 19.718 26.5932 22.0612V22.0624V27.8967C26.5932 28.382 26.9866 28.776 27.4718 28.776C27.9569 28.776 28.3503 28.382 28.3503 27.8967V22.0624C28.3503 21.2768 28.267 20.4939 28.1012 19.7263C28.3817 19.599 28.6517 19.4504 28.9092 19.2815C31.6425 20.4998 33.4032 23.219 33.3928 26.2188V26.2193V27.8967C33.3928 28.382 33.7862 28.776 34.2713 28.776C34.7565 28.776 35.1499 28.382 35.1499 27.8967L35.1499 26.2199M7.45501 19.5408L35.1499 26.2199M10.4814 7.53026L10.4813 7.68026M10.4814 7.53026H10.4813V7.68026M10.4814 7.53026H10.8102M10.4813 7.68026H10.9583M10.8102 7.53026C10.8091 7.58 10.8084 7.62987 10.8083 7.67985L10.9583 7.68026M10.8102 7.53026C10.9003 3.6327 14.084 0.499902 18.0002 0.499902C21.916 0.499902 25.1006 3.63268 25.1908 7.53026M10.8102 7.53026H10.9583V7.68026M10.9583 7.68026L25.1908 7.53026M25.1908 7.53026H25.0427V7.68026L25.1927 7.67985C25.1925 7.62987 25.1919 7.58 25.1908 7.53026ZM25.1908 7.53026H25.5196M25.1908 7.53026L33.5428 27.8967C33.5428 28.2993 33.8692 28.626 34.2713 28.626C34.6735 28.626 34.9999 28.2993 34.9999 27.8967V26.2193L35.1499 26.2199M25.5196 7.53026L25.5197 7.68026V7.53026H25.5196ZM25.5196 7.53026C27.1018 7.52927 28.6294 8.11679 29.8029 9.17986C32.3682 11.5018 32.6091 15.4364 30.3796 18.0525C33.3318 19.7001 35.1633 22.8261 35.1499 26.2193C35.1499 26.2195 35.1499 26.2197 35.1499 26.2199M27.9274 19.6392C28.2659 19.4938 28.5894 19.3173 28.8944 19.1112L24.1402 15.7029C25.8232 17.3886 26.7612 19.679 26.7432 22.0624V27.8967C26.7432 28.2993 27.0696 28.626 27.4718 28.626C27.8739 28.626 28.2003 28.2993 28.2003 27.8967V22.0624C28.2003 21.2543 28.111 20.4492 27.9332 19.6611M27.9274 19.6392C27.9281 19.6427 27.9291 19.646 27.9301 19.6495C27.9313 19.6532 27.9324 19.657 27.9332 19.6611M27.9274 19.6392L27.9365 19.6603M27.9274 19.6392L28.0745 19.6098C28.0741 19.608 28.0738 19.6066 28.0735 19.6056M27.9332 19.6611L27.9365 19.6603M27.9332 19.6611L27.9365 19.6604M27.9365 19.6603L27.9365 19.6604M27.9365 19.6603L27.9365 19.6604M28.0735 19.6056L28.0738 19.6062L28.0739 19.6068C28.075 19.6101 28.0777 19.619 28.0799 19.6298C28.0802 19.631 28.0804 19.6322 28.0806 19.6334L27.9365 19.6604M28.0735 19.6056L28.0732 19.6044C28.0731 19.6039 28.0731 19.6039 28.0731 19.6041C28.0732 19.6043 28.0733 19.6048 28.0735 19.6056ZM10.9326 9.28942C11.1748 10.5917 11.7721 11.8016 12.6582 12.7842C10.6027 13.9105 8.98024 15.6889 8.04575 17.8403C6.70323 16.9945 5.88167 15.5176 5.87612 13.9228V13.8988C5.87847 11.3391 7.95385 9.26704 10.5103 9.2694L10.5112 9.26939C10.6516 9.26865 10.7922 9.27555 10.9326 9.28942ZM25.4897 9.26891L25.4903 9.26891C28.0447 9.27221 30.1121 11.3469 30.1093 13.9042C30.1061 15.648 29.1267 17.2377 27.5828 18.0241C27.0668 16.736 26.2968 15.5582 25.3104 14.5661C24.6814 13.9323 23.976 13.3791 23.2109 12.9187C24.1678 11.9152 24.8133 10.6544 25.0678 9.28897C25.2082 9.27507 25.3492 9.26817 25.4897 9.26891ZM23.4453 8.51705C23.2802 9.97415 22.5335 11.3016 21.3755 12.1978C21.1587 12.2458 20.9693 12.3751 20.8453 12.5594C18.3167 14.1406 14.9834 13.3829 13.3864 10.8576C12.9394 10.1502 12.6615 9.35003 12.5746 8.51772C12.5766 8.47701 12.5765 8.43599 12.5742 8.39504V7.94281C12.5742 4.9377 15.0081 2.50158 18.01 2.50158C21.0118 2.50158 23.4457 4.9377 23.4457 7.94281V8.39502C23.4435 8.43576 23.4433 8.47655 23.4453 8.51705Z" fill="black" stroke="black" stroke-width="0.3"/>
</svg>
