<svg width="38" height="38" viewBox="0 0 38 38"  xmlns="http://www.w3.org/2000/svg">
<path d="M7.17285 8.51272C9.49686 8.51272 11.3808 6.6071 11.3808 4.25637C11.3808 1.90565 9.49686 0 7.17285 0C4.84884 0 2.96484 1.90565 2.96484 4.25637C2.96484 6.6071 4.84884 8.51272 7.17285 8.51272Z" />
<path d="M30.8291 0C33.1529 0 35.0371 1.90516 35.0371 4.25637C35.0371 6.60759 33.1536 8.512 30.8291 8.512C28.5046 8.512 26.6211 6.60687 26.6211 4.25637C26.6211 1.90588 28.5046 0 30.8291 0Z" />
<path d="M33.9855 8.06665C33.1568 8.84871 32.0486 9.33219 30.8281 9.33219C29.6068 9.33219 28.4993 8.84871 27.6706 8.06665C25.8768 8.54581 24.4499 9.93797 23.9015 11.7187C22.3516 11.4294 20.705 11.2733 19 11.2733C17.295 11.2733 15.6491 11.4294 14.0985 11.7187C13.5508 9.93797 12.1232 8.54581 10.3301 8.06665C9.50143 8.84871 8.39322 9.33147 7.17264 9.33147C5.95207 9.33147 4.84388 8.84871 4.01523 8.06665C1.70851 8.68323 0 10.8064 0 13.3295V17.7471L0.0113744 17.8154L0.312253 17.9111C1.25116 18.2075 2.14526 18.4334 2.99952 18.6104C2.60547 19.4652 2.39064 20.3638 2.39064 21.2926C2.39064 25.3036 6.31981 28.77 11.9774 30.3687C11.7683 30.9478 11.6524 31.5716 11.6524 32.2234V36.641L11.6638 36.71L11.9646 36.8057C14.7991 37.7007 17.2623 38 19.2895 38C23.2492 38 25.5439 36.8582 25.6854 36.7856L25.9671 36.641H25.997V32.2234C25.997 31.604 25.8931 31.009 25.7039 30.4557C31.5322 28.8981 35.6101 25.3777 35.6101 21.2926C35.6101 20.4084 35.4166 19.55 35.0581 18.7327C36.6848 18.3924 37.601 17.937 37.6884 17.8917L37.9701 17.7471H38V13.3295C38.0007 10.8064 36.2929 8.68323 33.9855 8.06665ZM34.462 21.2926C34.462 24.9115 30.6516 28.0289 25.2103 29.4017C24.494 28.216 23.3446 27.3239 21.9832 26.9605C21.1538 27.7426 20.0456 28.2247 18.825 28.2247C17.6052 28.2247 16.4963 27.7426 15.6676 26.9605C14.3361 27.316 13.2065 28.1757 12.4874 29.3233C7.20822 27.9117 3.53868 24.8424 3.53868 21.2919C3.53868 20.435 3.75633 19.6069 4.15465 18.8227C5.42573 19.0227 6.59082 19.1054 7.63713 19.1054C11.5962 19.1054 13.8915 17.9636 14.0331 17.891L14.3147 17.7464L14.3446 17.7471V13.3288C14.3446 13.1669 14.3368 13.0065 14.3233 12.8489C15.7999 12.5791 17.3704 12.4331 19 12.4331C20.6303 12.4331 22.2008 12.5791 23.6774 12.8489C23.6639 13.0072 23.6561 13.1669 23.6561 13.3288V17.7464L23.6675 17.8147L23.9691 17.9097C26.8029 18.8047 29.2661 19.104 31.2932 19.104C32.2663 19.104 33.1362 19.0356 33.9008 18.9299C34.2636 19.6839 34.462 20.4746 34.462 21.2926Z" />
<path d="M18.8245 27.4061C21.1481 27.4061 23.0318 25.5007 23.0318 23.1504C23.0318 20.8001 21.1481 18.8948 18.8245 18.8948C16.5009 18.8948 14.6172 20.8001 14.6172 23.1504C14.6172 25.5007 16.5009 27.4061 18.8245 27.4061Z" />
</svg>
