<svg  viewBox="0 0 36 34" fill="none" xmlns="http://www.w3.org/2000/svg">
<path d="M34.2692 17.8115C33.6301 17.3194 32.8476 16.9814 32.1375 16.6048C31.806 16.4326 31.0575 15.8627 30.8346 15.6664C30.1252 15.0391 29.701 14.3755 28.8577 13.89C28.8577 13.89 29.0438 13.7584 29.2269 13.6792C29.8523 13.408 30.5551 13.4058 31.1632 13.1209C30.3887 11.9557 29.0249 12.1156 28.1469 11.2797C28.6688 11.3779 29.3557 11.3175 29.8842 11.2681C30.8585 11.1758 31.009 10.8298 31.4665 10.1429C31.5982 9.94154 31.7806 9.74455 31.9392 9.63624C32.6652 9.15141 34.5327 9.38693 35.3507 9.38693C34.6268 8.9966 33.4976 8.27044 32.6652 8.19339C29.444 7.79796 28.2099 8.9239 26.0781 7.84885C25.8451 7.75799 27.1133 6.98895 27.8813 6.96133C27.7271 6.85739 26.7701 6.52303 26.4184 6.52957C25.5772 6.55065 25.1661 6.84284 24.5248 7.30659C24.5248 6.69092 24.5639 6.24317 25.1661 5.85356C25.5338 5.61733 26.2671 5.44506 26.5421 5.24444C26.8179 5.04527 27.1002 4.49938 27.2001 4.19119C27.3015 3.88444 27.2848 3.10087 27.2848 3.10087C26.865 3.62058 26.5479 4.01819 25.8603 4.15193C25.8603 4.15193 23.1147 4.67529 22.456 4.9079C21.798 5.13977 21.08 5.85429 21.08 5.85429C21.08 5.85429 20.9808 5.72926 20.9736 5.42252C20.9656 5.1165 22.4198 2.45395 22.2265 2.57679C22.0369 2.69963 21.1487 2.96276 20.6196 3.14666C20.0933 3.33129 19.1842 3.52246 18.1078 4.00801C17.0271 4.49211 16.4075 5.55408 16.3076 5.40798C16.2085 5.2597 15.9623 4.96387 15.9175 4.49139C15.8711 4.02328 16.3141 3.24479 16.4922 2.82247C16.8672 1.91605 17.0286 0.819921 16.3539 0C16.1078 0.190443 13.7322 2.69672 13.2472 3.53772C12.7615 4.38017 12.0695 6.24535 12.0695 6.24535L11.2588 8.73056C11.2588 8.73056 11.0148 8.51685 10.8672 8.29443C10.7224 8.06982 10.7977 7.1932 10.7977 7.1932C10.9953 5.87464 11.0221 4.2726 9.82047 3.35309C9.46868 3.08197 9.00252 3.11541 9.00252 3.11541C9.00252 3.11541 9.31957 3.55662 9.29207 4.12213C9.26673 4.68256 9.10966 5.26697 9.10966 5.26697L8.49727 7.75653C7.97827 9.76926 8.18458 10.9308 8.11436 10.9243C7.18205 10.8269 6.46832 9.99532 6.27867 9.13179C6.18674 8.70729 6.18674 7.26081 6.18674 7.26081C5.14657 8.8047 4.56894 9.80343 4.88743 11.6781C5.10893 12.9726 5.83134 14.3326 6.48497 15.4695C6.82229 16.0553 7.0655 17.1042 7.0655 17.1042C6.67245 16.7066 6.30329 16.3664 5.69091 16.3664C4.79478 16.3664 3.53094 17.1544 2.75208 16.6826C2.68766 16.6441 2.46253 16.5511 2.46253 16.5511C2.46253 16.5511 2.58052 16.8171 2.64567 16.9232C3.48244 18.2745 4.53927 18.0354 5.80817 18.6467C6.49438 18.9701 6.88165 19.21 7.36373 19.838C7.01556 19.6621 6.08975 19.7915 5.74085 19.9165C5.16467 20.1222 4.68259 20.5671 4.05501 20.7757C3.05827 21.1122 1.64386 20.9785 0.684033 20.5271C0.460363 20.4217 0 20.1411 0 20.1411C0 20.1411 0.0781793 20.3824 0.184585 20.5809C0.289544 20.7757 1.02787 21.8122 1.26384 22.0499C2.11509 22.904 3.01122 23.2558 4.15924 23.3968C6.11292 23.4855 7.80961 23.101 9.68077 23.4542C10.3127 23.5756 11.0496 23.998 11.0496 23.998C9.04957 24.594 9.80455 25.7214 7.33477 26.1844C9.02279 26.9469 10.3315 26.6809 11.9464 26.1844C13.0648 25.8406 14.2903 25.8261 14.2903 25.8261C13.5606 26.1662 12.6131 26.803 12.1846 27.4826C11.1393 29.1363 9.94063 30.0441 7.99492 30.276C8.72456 31.4267 11.0025 30.9229 11.9993 30.6344C13.1733 30.2985 14.2808 29.7229 15.1458 28.8484C15.3181 28.6769 15.8306 28.1448 16.0152 27.9456C16.1998 27.7479 16.4922 27.4833 16.7788 27.2849C17.0706 27.0857 17.5953 26.8582 17.8726 26.7964C18.1469 26.7252 18.81 26.8204 18.81 26.8204L18.755 26.8582C18.7007 26.9011 18.532 27.2049 18.3988 27.4027C17.9674 28.0561 17.7901 28.9407 17.7408 29.709C17.7133 30.1197 17.5953 30.8088 17.5953 30.8088C18.6362 29.821 19.3167 27.9856 20.6268 27.3249C20.8353 27.2195 21.0872 27.2326 21.0872 27.2326C21.0199 28.5337 20.1911 29.6393 20.1911 30.9418C20.1911 33.5957 22.7072 34.082 22.6927 33.9897C22.5972 33.2729 22.6283 31.9616 22.7991 31.2609C23.1118 30.0151 23.7734 28.7728 24.157 27.5117C24.3431 26.8931 24.3177 26.0776 24.2374 25.4444C24.5885 25.3965 25.4976 27.0865 25.4477 27.2994C25.4477 26.843 25.7307 26.0296 25.7763 25.4822C25.8234 24.9153 25.7032 24.1891 25.5389 23.6432C26.2178 23.8882 26.7007 24.24 27.1466 24.8077C27.3427 25.0607 27.6482 25.4953 27.8176 25.7752C28.2063 26.4032 28.5306 27.3089 29.1617 27.7101C29.4672 27.9013 30.0123 27.8213 30.3612 27.7777C30.0499 27.4906 29.7756 27.3002 29.5968 26.9026C29.2508 26.1408 29.1769 24.8637 29.1769 24.0001C29.1769 22.6052 28.8715 21.2024 28.1614 19.9987C28.5204 20.0415 28.8505 20.1346 29.148 20.3563C29.3029 20.4733 29.6887 20.783 29.9001 20.6608C29.5092 20.3018 29.6373 19.6061 29.4383 19.1257C29.3702 18.9665 29.148 18.4649 29.148 18.4649C29.4346 18.51 29.7314 18.7404 29.992 18.8596C30.587 19.1359 31.4028 19.2129 32.0448 19.2427C33.1067 19.3023 34.1874 19.2914 35.1538 19.7755C35.2602 19.8271 35.7206 20.2109 35.7206 20.2109C35.7206 19.926 35.7227 19.633 35.6257 19.3655C35.3789 18.6656 34.8244 18.2432 34.2692 17.8115Z" fill="white"/>
<path d="M18.0339 7.5293C13.1906 7.5293 9.25 11.4864 9.25 16.35C9.25 21.2135 13.1906 25.1707 18.0339 25.1707C22.8772 25.1707 26.8178 21.2135 26.8178 16.35C26.8178 11.4864 22.8779 7.5293 18.0339 7.5293Z" fill="#E9862A"/>
<path d="M20.8782 23.5961C20.8934 23.5866 20.9115 23.5772 20.9246 23.5699C20.9361 23.4776 20.8992 23.5067 20.9854 23.41C21.2257 23.2872 21.4674 23.1614 21.7121 23.0364C21.8894 22.7943 21.9589 22.4316 22.0176 22.1431C22.0248 22.0791 22.0776 21.8021 22.0465 21.7375C22.0277 21.7375 22.011 21.7375 21.9922 21.7404C21.9329 21.845 21.9271 21.8719 21.9271 22.002C21.922 22.0049 21.9155 22.0071 21.9119 22.01C21.8989 21.8319 21.8236 21.9112 21.9032 21.6967C21.8315 21.7258 21.4913 21.8385 21.4631 21.8981C21.4631 21.986 21.3531 22.1598 21.2561 22.1111C21.2228 22.1111 21.2228 22.1111 20.7508 22.2179C20.7284 22.1867 20.7204 22.1532 20.677 22.1532C20.4345 22.2179 20.1898 22.2891 19.943 22.3349V22.3517C20.0111 22.3786 20.0834 22.4018 20.1537 22.4287C20.1442 22.4869 20.137 22.5457 20.1305 22.6061C19.9083 22.6526 19.7403 22.5545 19.5681 22.4171C19.1251 22.4803 18.6785 22.5152 18.2289 22.537C18.2289 22.7224 18.2876 24.0613 18.2217 24.2932C19.2727 24.2677 20.2753 24.0351 21.188 23.6361C21.272 23.5728 21.3531 23.5059 21.432 23.4318C21.3183 23.3795 21.0773 23.6949 20.8782 23.5961ZM18.1609 22.5385C17.9495 22.5348 17.7411 22.5312 17.5311 22.529C16.2108 22.4164 15.0831 22.1191 13.8764 21.5855C13.812 22.2354 14.0024 22.9419 14.4381 23.4253C15.5181 23.9835 16.7407 24.2961 18.0349 24.2961C18.0849 24.2961 18.1363 24.2953 18.1855 24.2939C18.0986 24.0715 18.1609 22.7238 18.1609 22.5385ZM24.9195 20.2582C25.3379 19.5226 25.6412 18.7122 25.8055 17.8515C25.5985 18.3742 25.3263 18.8365 24.9948 19.29C24.9854 19.6266 24.9702 19.9348 24.9195 20.2582ZM24.9101 19.3976C24.4345 19.9522 23.9343 20.4189 23.3531 20.8565C23.3719 20.8587 23.3719 20.8586 23.4168 20.8325C23.4204 20.8412 23.4233 20.8463 23.4284 20.8565C23.3951 20.8805 23.3951 20.8805 23.2778 20.9379C23.2742 20.9313 23.2742 20.9313 23.2944 20.9001C22.9224 21.1436 22.538 21.3704 22.1464 21.5783C22.124 21.6698 22.1189 21.7375 22.1891 21.8C22.0559 21.9221 22.0248 22.4396 21.9654 22.6497C21.943 22.7136 21.8482 22.9012 21.8482 22.9637C22.074 22.7544 22.318 22.452 22.5959 22.3117C22.7566 22.4033 22.8949 22.159 22.9694 22.0173C23.0425 21.9562 23.2192 21.8479 23.2278 21.7571C23.3024 21.7091 23.3799 21.6589 23.458 21.611C23.458 21.6655 23.3545 21.7389 23.3987 21.7971C23.7801 21.7971 23.9604 21.297 24.1037 21.036C24.1109 21.0862 24.1044 21.1509 24.1746 21.1043C24.1898 21.1291 24.1442 21.1865 24.1739 21.2156C24.0957 21.4445 23.6549 21.8065 23.4841 21.9991C22.884 22.5508 22.2854 22.9448 21.5796 23.3671C21.534 23.4231 21.4486 23.4871 21.3762 23.5496C22.7993 22.8808 23.9937 21.7971 24.8037 20.4589C24.9021 20.1151 24.9195 19.748 24.9246 19.3933C24.9195 19.3925 24.9159 19.3954 24.9101 19.3976ZM23.3067 21.0862C23.3176 21.0702 23.3314 21.0578 23.3458 21.0433C23.348 21.0629 23.3205 21.0803 23.3067 21.0862ZM23.4841 20.9902C23.4602 20.9546 23.4602 20.9546 23.4399 20.9444C23.5072 20.9415 23.5072 20.9415 23.5666 20.9473C23.5369 20.9597 23.5116 20.9735 23.4841 20.9902ZM24.344 20.4705C24.179 20.6144 24.1095 20.8325 23.9162 20.9582C23.8938 20.9161 23.8699 20.8754 23.8482 20.8347C23.77 20.8194 23.6636 20.8964 23.5927 20.9313C23.6766 20.8063 23.7657 20.6835 23.8518 20.5592C23.93 20.5177 24.4714 20.187 24.53 20.2037C24.5177 20.219 24.5177 20.219 24.5177 20.2503C24.559 20.2779 24.5995 20.2764 24.648 20.2713C24.5481 20.3789 24.4779 20.4152 24.344 20.4705ZM11.5217 20.8463C11.5319 20.8623 11.5471 20.8855 11.5746 20.927C11.5558 20.9015 11.5398 20.8739 11.5217 20.8463ZM24.0842 11.2348C23.3567 10.9535 22.5872 10.8924 21.8163 10.8611C21.8489 10.8873 21.8851 10.912 21.922 10.9418C21.8482 10.9418 21.7794 10.8611 21.6853 10.8611C21.6853 10.9418 21.7678 11.0298 21.8084 11.0981C21.7454 11.0828 21.6824 11.0618 21.6187 11.0618C21.61 11.0697 21.6043 11.077 21.5999 11.0908C21.6187 11.1199 21.6187 11.1199 21.6651 11.1584C21.647 11.1861 21.6426 11.1926 21.6426 11.2268C21.618 11.2224 21.5927 11.2195 21.5709 11.218C21.5253 11.1868 21.1482 10.819 21.1403 11.0421C21.2105 11.1802 21.2105 11.1802 21.2134 11.2086C21.1859 11.2086 21.1765 11.2086 21.1555 11.2289C21.091 11.1294 21.0266 11.032 20.9622 10.9346H20.9137C20.9043 10.9462 20.9043 10.9462 20.897 11.1119C20.8695 11.1373 20.8406 11.1643 20.8124 11.1868C20.677 11.1294 20.504 10.9963 20.399 10.8924C19.799 10.9251 19.2011 11.0167 18.6053 11.1039C18.5966 11.0887 18.588 11.0727 18.5786 11.0588C18.5807 11.0559 18.5843 11.0516 18.588 11.045C19.1866 10.9367 19.7917 10.8662 20.3969 10.8183C20.3556 10.6961 20.2984 10.5987 20.234 10.4853C20.3129 10.3669 20.8514 10.3254 20.9904 10.2309C20.9904 10.2062 20.9904 10.1815 20.9962 10.1575C21.0454 10.2208 21.0961 10.2818 21.1468 10.3472C21.1591 10.4047 21.1634 10.4621 21.2083 10.5035C21.2003 10.5355 21.1757 10.5355 21.1526 10.5588C21.1526 10.5711 21.1526 10.5806 21.1547 10.5944C21.175 10.6089 21.175 10.6089 21.715 10.7848C22.3491 10.8197 22.9644 10.8626 23.5854 11.0014C23.7678 11.0523 23.9169 11.1017 23.9814 11.1192C23.285 10.3218 22.4345 9.66469 21.4747 9.19803C21.382 9.19876 21.285 9.2162 21.1974 9.2431C21.2206 9.25473 21.2416 9.2671 21.2633 9.27582C21.1974 9.28018 21.0158 9.23584 20.9767 9.31798C20.9311 9.30998 20.8862 9.33905 20.8435 9.35576C20.8543 9.3703 20.8681 9.38267 20.8811 9.39793C20.8623 9.39793 20.8623 9.39793 19.4899 8.81715C18.9955 8.73574 18.4989 8.65433 18.0067 8.57656C18.0487 8.5751 18.0943 8.5751 18.1385 8.5751C18.1385 8.51768 18.1385 8.4617 18.1392 8.40501C18.1044 8.40283 18.069 8.40283 18.0335 8.40283C16.7639 8.40283 15.5637 8.70666 14.4989 9.2431C15.4551 9.27508 16.3049 9.78681 17.099 10.2804C17.1895 10.276 17.2706 10.212 17.3618 10.2411C17.34 10.2506 17.3212 10.2586 17.3024 10.2716V10.3145C17.3538 10.345 17.424 10.3342 17.4798 10.3487C17.3111 10.4977 17.5854 10.7041 17.6672 10.6511C17.6643 10.59 17.6781 10.5471 17.6158 10.5311C17.6528 10.4461 17.6687 10.4432 17.7621 10.4061C17.7599 10.3872 17.7577 10.3734 17.7577 10.3567C17.7309 10.3429 17.7063 10.3291 17.681 10.3145C17.6926 10.2913 17.7041 10.2716 17.7157 10.2477C17.7599 10.2469 17.7932 10.2506 17.8243 10.2186C17.8446 10.2636 17.8446 10.2636 17.8446 10.2804C17.8272 10.2913 17.8091 10.3043 17.7932 10.3138C17.7874 10.4207 17.8062 10.4061 17.8569 10.489C17.8402 10.5042 17.8446 10.5348 17.854 10.5515C17.8793 10.5515 17.9054 10.5515 17.9314 10.5537C17.9423 10.5718 17.9517 10.5842 17.972 10.5944C17.9662 10.5944 17.9626 10.5973 17.9597 10.5987C17.9184 10.5842 17.8916 10.5653 17.846 10.5769C17.8446 10.5936 17.8424 10.6125 17.8395 10.6285C17.8055 10.6278 17.7917 10.6249 17.7678 10.6474C17.7678 10.6562 17.7693 10.6649 17.7729 10.6743C17.7353 10.6809 17.6991 10.6896 17.6643 10.6954C17.7498 10.7681 17.8337 10.8379 17.9191 10.9113C17.8996 10.9244 17.8793 10.9346 17.8605 10.9455C17.7686 10.8677 17.5217 10.6154 17.437 10.6154C17.437 10.6474 17.4436 10.6569 17.4595 10.6889C17.3907 10.811 17.2315 10.739 17.2315 10.8415C17.2554 10.8575 17.2792 10.8735 17.3053 10.8917C17.2792 10.9004 17.2532 10.9069 17.2532 10.9411C17.7295 11.0356 17.7295 11.0356 17.7447 11.0472C17.7331 11.0625 17.7259 11.0763 17.7164 11.0974C17.5036 11.061 17.3596 11.0022 17.1613 11.0763C17.1656 11.0509 17.1707 11.0232 17.1757 10.9956C17.1084 10.9862 17.0556 10.9963 16.994 10.9912C16.9861 11 16.9861 11 16.9767 11.037C16.9311 11.0203 16.8942 11.0065 16.8471 11.0065C16.8145 11.0661 16.8876 11.109 16.9318 11.1366C16.9253 11.1548 16.9195 11.173 16.9123 11.1919C16.8471 11.1577 16.8413 11.1214 16.8066 11.0676H16.7624C16.7559 11.077 16.7472 11.085 16.7422 11.0981C16.6314 11.0429 16.5395 10.9535 16.4251 11.0269C16.3961 10.8902 16.3491 10.9978 16.2564 10.9978V10.9593C16.2492 10.9527 16.2412 10.9462 16.2318 10.9418C16.1667 10.9636 16.1667 10.9636 16.1225 10.9687C16.1262 10.9353 16.1261 10.9215 16.0921 10.912C16.0849 10.8684 16.0849 10.8684 16.0748 10.8459C15.9242 10.8306 15.7744 10.8182 15.6281 10.8066C15.618 10.8248 15.618 10.8248 15.5999 10.8386C15.5927 10.8248 15.5825 10.8103 15.5731 10.8001C14.4519 10.7361 13.052 10.6329 12.0241 11.1926C10.8392 12.5824 10.1211 14.3821 10.1211 16.3505C10.1211 16.8993 10.1776 17.438 10.2869 17.9591C10.3549 18.1365 10.4338 18.3109 10.5272 18.4912C10.5272 18.4672 10.4736 18.2804 10.4736 18.2528C10.8225 19.0393 11.1417 19.841 11.4465 20.642C11.4544 20.6777 11.4609 20.7089 11.4682 20.7424C11.3987 20.5984 11.3379 20.4458 11.285 20.2924C11.0107 19.7996 10.8015 19.2929 10.6068 18.7631C10.5228 18.614 10.4439 18.4672 10.3686 18.3153C10.6017 19.2333 10.9999 20.0845 11.5225 20.8456C11.5138 20.8296 11.5058 20.8165 11.4971 20.8005C11.5427 20.7881 11.5283 20.7518 11.5507 20.7453C11.584 20.8092 11.7787 21.0207 11.6687 21.0527C12.3578 21.9882 13.2423 22.7725 14.2644 23.3329C13.8721 22.8314 13.8011 22.1947 13.8011 21.5543C13.2329 21.2512 12.6842 20.9161 12.1833 20.5141C12.1652 20.5119 12.1457 20.5054 12.1305 20.5032C11.9966 20.2924 11.6368 19.8926 11.6918 19.6382C11.8077 19.5539 11.7664 19.5539 11.7425 19.4013C11.9097 19.5808 12.1052 19.7647 12.2405 19.9668C12.2796 20.1347 12.3165 20.3033 12.3556 20.472C12.3201 20.4778 12.2832 20.4814 12.2485 20.4872C12.7414 20.8666 13.2503 21.1945 13.8062 21.4714C13.8431 20.8005 13.9604 20.1601 14.0943 19.4979C14.0552 19.4943 14.0161 19.4907 13.9785 19.4907C13.8837 19.5997 13.7715 19.5801 13.6484 19.5394C13.6383 19.4361 13.6281 19.3329 13.6195 19.2304C13.8518 19.2617 13.8518 19.2617 13.896 19.2595C14.0559 19.0778 14.0559 19.1229 14.0292 18.9128C14.0545 18.8815 14.0777 18.8503 14.1052 18.8219C14.1377 18.875 14.1703 18.9295 14.2065 18.9826H14.2203C14.2441 18.8983 14.2659 18.8132 14.2897 18.7282C14.2897 18.4549 14.166 18.4861 13.9372 18.412C13.8909 18.3364 13.8439 18.2564 13.7961 18.1794C13.7715 17.9678 13.7736 17.8552 13.6593 17.6909C13.6455 17.4808 13.6332 17.2729 13.6223 17.0665C13.6593 17.012 13.6991 16.9589 13.7403 16.9037C13.7338 16.7103 13.7251 16.6587 13.8366 16.501C13.9959 16.6493 14.2514 16.557 14.4294 16.6704C14.5626 17.0556 14.9846 17.318 15.0339 17.7331C14.9361 17.8007 14.9361 17.8007 14.8442 17.8763C14.7624 18.1096 14.7031 18.1227 14.8674 18.2935C14.8232 18.3458 14.7269 18.4127 14.7269 18.4832C14.8138 18.5355 14.8934 18.8096 14.9369 18.9092C14.7718 18.9092 14.8478 18.8183 14.7125 18.9862C14.6365 18.939 14.4294 18.774 14.3462 18.774C14.2941 18.9942 14.2514 19.048 14.3694 19.2384C14.3136 19.269 14.2601 19.3017 14.2065 19.3358C14.048 20.0525 13.8909 20.778 13.8743 21.5114C15.238 22.1714 16.6567 22.4534 18.1602 22.4716C18.1573 21.6146 18.1558 20.7605 18.1544 19.9057C18.1413 19.9057 18.1276 19.9079 18.1138 19.9108C18.0885 19.9551 18.0653 20.0009 18.0407 20.0467C17.9995 20.0533 17.9633 20.0584 17.9235 20.0613C17.8945 19.9057 17.8677 19.7552 17.8381 19.6026C17.8598 19.5553 17.8677 19.5052 17.8677 19.4536C17.8952 19.455 17.922 19.4609 17.9517 19.463C18.0147 19.6186 18.0335 19.5968 18.2072 19.6244C18.1826 19.6491 18.1544 19.676 18.1283 19.7044C18.1283 19.7742 18.2036 19.8236 18.2673 19.8236C18.2753 19.9064 18.3332 20.1449 18.475 20.0017C18.475 19.9297 18.475 19.8577 18.4765 19.7887C18.6104 19.7087 18.6531 19.551 18.7212 19.4107C18.7841 19.3511 18.8529 19.2908 18.9195 19.2333C18.9723 19.2479 18.9723 19.2479 19.044 19.274C19.0498 19.3889 18.9311 19.6244 18.9738 19.6949C19.0129 19.6978 19.0491 19.6978 19.091 19.7044C19.1765 19.8795 19.1482 19.9006 19.3328 19.9086C19.3183 20.0351 19.12 20.1456 19.0288 20.2161C18.9883 20.4298 19.1207 20.4879 19.0925 20.6857C19.0614 20.6769 18.9542 20.461 18.8797 20.5395C18.8529 20.6609 18.7639 20.7293 18.6307 20.7089C18.6372 20.4029 18.5757 20.3927 18.3505 20.1601C18.3288 20.1078 18.2782 19.9442 18.2275 19.9312C18.2275 20.7787 18.2275 21.6248 18.2297 22.4723C18.6495 22.4513 19.0664 22.412 19.4826 22.3524C19.2771 22.1947 19.0722 22.0326 18.8695 21.8719C19.12 21.8872 19.2561 21.9882 19.4718 22.1111C19.5319 22.1183 19.7157 22.1271 19.7548 22.1656C19.7411 22.1867 19.7411 22.2157 19.7548 22.2354C19.7953 22.2383 19.7953 22.2383 19.8337 22.2274C19.8352 22.2492 19.8381 22.2717 19.8417 22.2935C20.1138 22.2274 20.3925 22.1634 20.6611 22.0842C20.648 22.0616 20.6321 22.0369 20.614 22.0166C20.6372 21.9781 20.6611 21.9432 20.685 21.909H20.7139C21.0064 22.0653 21.3335 21.6459 21.479 21.4322C21.5681 21.3791 21.6513 21.4838 21.7208 21.5376C21.6325 21.5942 21.5833 21.6808 21.5442 21.7767C21.8192 21.656 21.8192 21.656 22.0675 21.5346C22.0632 21.0578 22.0241 20.5962 21.9618 20.1245C21.9539 20.1245 21.9452 20.1245 21.9372 20.1274C21.9148 20.0467 21.9148 20.0598 21.8229 20.054C21.812 20.0358 21.8069 20.0162 21.8011 19.9988C21.8786 19.9769 21.8243 19.7509 21.8229 19.7087C21.8395 19.6978 21.8569 19.6927 21.8779 19.6869C21.8779 19.6099 21.8069 19.064 21.7201 18.9542C21.7078 19.0356 21.6984 19.1156 21.6904 19.1963C21.6723 19.1716 21.6549 19.1505 21.6383 19.1287C21.6614 19.0727 21.6817 18.9724 21.7222 18.9331C21.673 18.7413 21.6245 18.5472 21.576 18.3567H21.5666C21.5586 18.5835 21.4117 18.7114 21.445 18.9346C21.3596 19.0727 21.272 19.2086 21.1888 19.346C21.1077 19.3962 21.0281 19.4456 20.9506 19.4958C20.9217 19.4725 20.9115 19.471 20.8753 19.471C20.8449 19.5234 20.8449 19.5234 20.8102 19.6062C20.7197 19.6549 20.5554 19.7058 20.5163 19.801C20.5054 19.7865 20.4975 19.7698 20.4873 19.7567C20.3976 19.7567 20.3093 19.7974 20.2239 19.8221C20.1261 19.7574 19.9836 19.6309 19.8685 19.612C19.7244 19.6804 19.5775 19.748 19.4276 19.8003C19.4247 19.8156 19.4233 19.8308 19.4204 19.8483C19.3552 19.8417 19.2915 19.8388 19.2286 19.8338C19.1685 19.7051 19.1714 19.636 19.0389 19.6273C19.0672 19.527 19.1526 19.3373 19.1055 19.2333C19.015 19.1926 18.9246 19.1527 18.8341 19.1127C18.8102 19.0822 18.7356 18.9499 18.7045 19.0415C18.7313 19.0923 18.8391 19.181 18.8449 19.2079C18.6727 19.3685 18.6068 19.4834 18.5076 19.6971C18.3614 19.7741 18.4114 19.7763 18.4114 19.9573H18.3455C18.3267 19.7698 18.3267 19.7698 18.3172 19.7545C18.2796 19.7502 18.2369 19.7545 18.2087 19.7269C18.2123 19.7145 18.2123 19.7145 18.3267 19.6113V19.5888C18.2651 19.5401 18.1341 19.5394 18.0552 19.5285C18.0357 19.4848 18.0176 19.4434 17.9988 19.4027C17.9872 19.4005 17.9734 19.3983 17.9618 19.3962C17.9973 19.3882 18.2716 19.3809 18.2897 19.3722C18.2897 19.2399 18.1153 19.149 17.998 19.1701C17.5927 19.3911 17.3509 18.9019 16.9796 18.8728C16.9188 18.835 16.8616 18.7958 16.7986 18.7572C16.7754 18.6518 16.7754 18.6518 16.7754 18.6119C16.884 18.6148 16.884 18.6148 16.8992 18.6031C16.8992 18.5261 16.8609 18.4556 16.8493 18.3793C16.9448 18.2775 17.0194 18.255 16.9231 18.1445C16.782 18.0573 16.6372 17.9686 16.4989 17.8763C16.4989 17.8334 16.4989 17.7949 16.5004 17.7549C16.47 17.7236 16.4403 17.696 16.4114 17.6691C16.4446 17.4808 16.5127 17.5375 16.7212 17.5085C16.8782 17.4561 17.0042 17.3209 17.1692 17.2969C17.1786 17.2795 17.1786 17.2795 17.2032 16.9575C17.4428 16.9022 17.4161 16.9408 17.474 16.7045C17.673 16.69 17.7302 16.7496 17.7649 16.5555C17.8055 16.5344 17.8533 16.4995 17.9003 16.4995C17.9546 16.5613 18.0103 16.6246 18.0661 16.69C18.15 17.0433 18.1471 16.9575 18.5286 17.0716C18.609 17.1385 18.6929 17.209 18.7754 17.2795C18.9094 17.2562 19.0425 17.2351 19.175 17.2155C19.2944 17.2497 19.4124 17.286 19.5319 17.3217C19.7461 17.3217 20.048 17.0207 20.1891 16.8659C20.1848 16.8194 20.1363 16.7452 20.1435 16.7176C20.1942 16.7045 20.2478 16.6944 20.3006 16.6856C20.3346 16.6457 20.7052 16.2713 20.7052 16.2401C20.5431 16.0721 20.5851 16.0649 20.3737 16.1339C20.3643 16.1238 20.3643 16.1238 20.3455 15.9849C20.5967 15.9122 20.42 15.6607 20.42 15.4892C20.4504 15.471 20.4504 15.471 20.5605 15.3758H20.8037C20.8855 15.4579 20.9644 15.5423 21.0447 15.628H21.3277C21.3516 15.6542 21.3748 15.6818 21.3994 15.7094H21.4385C21.4884 15.6295 21.5369 15.5531 21.5876 15.4783C21.6021 15.5052 21.6021 15.5052 21.7121 15.8999C21.5507 16.0721 21.5666 16.0394 21.6766 16.2502C21.5941 16.2829 21.5724 16.4697 21.5666 16.5519C21.3755 16.5904 21.4479 16.7685 21.3784 16.9349C21.2445 17.1029 21.2539 17.0651 21.3277 17.2657C21.7411 18.6017 22.116 19.9864 22.1421 21.3987C22.221 21.3573 22.2999 21.3195 22.3817 21.281C22.3882 21.2831 22.3882 21.2831 22.1457 21.4111V21.4976C23.2358 20.9393 24.1218 20.2234 24.9108 19.2893C24.9108 19.2617 24.9108 19.2377 24.9151 19.2101C24.7284 17.2519 23.8301 15.2828 22.441 13.8886C22.2854 13.7694 22.1247 13.6494 21.9662 13.531C21.8518 13.2671 21.6622 13.1355 21.4407 12.9371C21.3625 13.065 21.4407 13.3762 21.5977 13.4147C21.5883 13.4379 21.5811 13.4597 21.5731 13.4837C21.5094 13.4728 21.4334 13.5477 21.3784 13.5797C21.3806 13.6117 21.3835 13.6465 21.3849 13.6785C21.3118 13.7534 21.2402 13.8326 21.1707 13.9104C21.1721 14.183 21.175 14.4548 21.1779 14.7274C21.2105 14.7521 21.259 14.7311 21.2981 14.7274C21.3176 14.7521 21.3408 14.7747 21.3632 14.8016H21.4392C21.4761 14.7529 21.5022 14.6802 21.5254 14.6235C21.5442 14.6235 21.5673 14.6278 21.5883 14.6278C21.5854 14.6627 21.5514 14.6802 21.5731 14.7158C21.6281 14.7303 21.6853 14.7434 21.7396 14.7558C21.8113 14.8939 21.8844 15.0334 21.9589 15.1744C21.9792 15.4928 22.061 15.8606 21.9329 16.1492C21.8011 16.1492 21.783 16.1143 21.7534 16.2401C21.6426 16.0482 21.6325 16.083 21.7787 15.9246C21.7671 15.7465 21.7049 15.5219 21.6245 15.3605H21.5796C21.5254 15.4448 21.4674 15.5328 21.4124 15.6193C21.3929 15.5989 21.3762 15.5786 21.3574 15.5604H21.0795C20.9969 15.4747 20.9137 15.3911 20.8319 15.3082C20.5561 15.3082 20.5605 15.2886 20.3469 15.4645C20.3469 15.5808 20.4019 15.7341 20.4157 15.8592C20.3057 15.9551 20.1594 15.9231 20.0277 15.9588C19.6918 16.1928 19.6506 16.0889 19.2604 16.1041C19.1822 16.1507 19.1822 16.1506 19.1613 16.1565C19.0244 16.0096 18.9767 15.9973 18.7754 15.9522C18.6727 16.0518 18.6864 16.1528 18.6864 16.2851C18.5192 16.2822 18.3694 16.28 18.2043 16.2473C18.0856 16.2648 17.9589 16.3622 17.8482 16.4101C17.82 16.3796 17.7939 16.3491 17.7686 16.3215C17.6404 16.3215 17.6252 16.2822 17.5326 16.1899C17.4313 16.1528 17.3538 16.1899 17.2865 16.0976C17.251 16.0976 17.2402 16.1041 17.2076 16.115C17.1757 16.0133 17.1099 15.716 17.0425 15.6506C17.0107 15.6506 17.0107 15.6506 16.8102 15.6905C16.8066 15.6026 16.6922 15.6026 16.6227 15.5779C16.5735 15.4296 16.5735 15.4296 16.5605 15.4121C16.5286 15.402 16.5286 15.402 15.8562 15.3882C15.8381 15.4158 15.8424 15.4616 15.8424 15.4943C15.77 15.503 15.7411 15.4906 15.7295 15.5619C15.6969 15.5641 15.6832 15.567 15.6549 15.5822C15.6578 15.628 15.6651 15.6753 15.6708 15.724C15.6404 15.7218 15.6108 15.7211 15.5811 15.7174C15.5094 15.5502 15.4769 15.5822 15.2923 15.5677C15.2177 15.4703 15.1403 15.3751 15.065 15.2777C14.9781 15.2806 14.8486 15.2588 14.7747 15.298C14.7052 15.2282 14.5764 15.3787 14.517 15.4201C14.517 15.5306 14.5337 15.6622 14.4997 15.7683C14.4845 15.7618 14.4845 15.7618 14.4642 15.732C14.4027 15.732 14.2724 15.8592 14.2507 15.9231C14.2449 16.054 14.2398 16.1899 14.2369 16.3229C14.2181 16.3229 14.1971 16.3251 14.1812 16.328C13.9879 16.0009 13.812 15.7705 13.783 15.3889H13.841C13.8996 15.314 13.8808 15.2217 13.9727 15.1635C14.3411 15.0472 14.36 15.1883 14.1175 14.702C14.1327 14.5457 14.1949 14.4599 14.1015 14.3364C14.1095 14.316 14.1175 14.2949 14.1269 14.2767C14.3549 14.3705 14.3238 13.9933 14.3332 13.8435C14.4758 13.7985 14.6155 13.757 14.7552 13.7185C14.8768 13.6335 14.8066 13.4118 14.7979 13.302C14.8782 13.3362 14.9789 13.3921 15.0679 13.3921C15.1895 13.2628 15.3089 13.1363 15.4298 13.0105C15.3972 13.1922 15.3987 13.1966 15.2539 13.3238C15.2539 13.3936 15.2662 13.4757 15.2981 13.5382C15.3104 13.5382 15.3249 13.5382 15.3408 13.5419C15.3647 13.5055 15.3914 13.4677 15.419 13.4357C15.4399 13.4866 15.4617 13.5375 15.4855 13.5899C15.4986 13.5899 15.5109 13.5898 15.5254 13.5928C15.55 13.5462 15.5746 13.4975 15.5985 13.451C15.6441 13.443 15.6441 13.443 15.7244 13.443C15.7251 13.4961 15.715 13.5535 15.7816 13.5535C15.8163 13.5048 15.8518 13.4554 15.8902 13.4074C15.9003 13.5353 15.9003 13.5353 15.9068 13.5462C16.0378 13.5419 16.31 13.5077 16.3534 13.5113C16.3382 13.5375 16.3288 13.568 16.3534 13.5928C16.4019 13.5928 16.4439 13.5928 16.4902 13.5775C16.9209 12.8484 17.361 12.1368 17.8453 11.4405C17.8634 11.4303 17.9039 11.4514 17.9119 11.4674C17.7939 11.6331 17.6795 11.7981 17.5666 11.966C17.4284 12.1775 16.483 13.5462 16.5684 13.6727C16.6365 13.6618 16.685 13.6 16.7392 13.5535C16.8051 13.632 16.8051 13.632 16.9455 13.8283C17.0042 13.8363 17.0259 13.7985 17.065 13.7607C17.065 13.7083 17.0447 13.6734 17.0216 13.6247C17.0216 13.4823 17.141 13.3674 17.2481 13.2933C17.2633 13.3035 17.2858 13.3107 17.3039 13.3202C17.2539 13.5106 17.2032 13.6996 17.1533 13.893C17.141 13.906 17.0027 13.962 16.9455 13.9933C16.9455 14.0645 17.0259 14.1285 17.0932 14.1285C17.1345 14.0812 17.3024 13.8428 17.3567 13.8428C17.3545 13.8857 17.3545 13.9351 17.3545 13.9816C17.4037 14.0303 17.4884 14.0696 17.4884 13.9707C17.4747 13.9642 17.4631 13.9562 17.4537 13.9526C17.4573 13.9053 17.4617 13.8573 17.4653 13.8094C17.4153 13.7817 17.3625 13.7563 17.3111 13.7301C17.3046 13.6291 17.3299 13.4946 17.3914 13.4183C17.3914 13.5564 17.4009 13.5455 17.5268 13.6095C17.555 13.592 17.555 13.592 17.5644 13.5695C17.5442 13.5339 17.5268 13.499 17.5101 13.4626C17.5673 13.4081 17.652 13.4874 17.7041 13.5193C17.6781 13.5935 17.6064 13.7396 17.7469 13.7396C17.8706 13.6153 17.7758 13.4496 17.7186 13.3383C17.7208 13.3311 17.7251 13.3253 17.7288 13.3224C17.9314 13.2678 17.9379 13.3071 17.9654 13.1094C18.0183 13.0803 18.0726 13.0476 18.1276 13.0163C18.1283 12.5133 18.1319 12.0103 18.1356 11.5095H18.1964C18.1993 12.006 18.2007 12.5024 18.2058 12.9989C18.2854 12.9945 18.3809 13.0258 18.3809 12.9284C18.4128 12.9146 18.428 12.8797 18.4403 12.8426C18.4475 12.8506 18.4475 12.8506 18.5011 12.8506C18.5337 12.9531 18.6184 12.8462 18.6879 12.8462C18.8717 12.9524 18.7212 13.0869 18.6372 13.2344C18.7327 13.2962 18.8326 13.2889 18.8529 13.1428C18.8695 13.1646 18.8876 13.1886 18.9086 13.2126H18.9499C19.0527 13.0483 19.1736 13.1886 19.3089 13.0781C19.3089 13.036 19.2952 13.0105 19.3046 12.9691C19.0179 12.4632 18.719 11.9602 18.4056 11.471C18.4121 11.4594 18.4121 11.4594 18.4635 11.4361C18.7849 11.9304 19.1106 12.437 19.3762 12.9625C19.4559 13.0331 19.6281 13.2395 19.7621 13.1741C19.7671 13.1246 19.7454 13.0781 19.7324 13.0301C19.8395 13.0389 19.88 12.9684 19.9568 12.8971C19.9488 12.8215 19.9141 12.7968 19.8721 12.7336C19.8945 12.6856 20.0219 12.6275 20.0682 12.5977C20.0842 12.6107 20.0986 12.6224 20.1175 12.6369C20.1826 12.6289 20.1826 12.6289 20.3136 12.5977C20.3505 12.5308 20.3882 12.4632 20.4273 12.3992C20.551 12.4007 20.6727 12.469 20.6611 12.3149C20.0234 11.8686 19.3299 11.5524 18.5952 11.3016C18.6017 11.2776 18.6082 11.258 18.6176 11.2398C19.3567 11.4899 20.0349 11.8068 20.6878 12.2429C20.6878 12.2131 20.6907 12.1841 20.6958 12.1564C20.8044 12.1368 20.8044 12.1368 20.8348 12.123C20.8348 12.1063 20.8348 12.0932 20.837 12.0787C20.7899 12.0481 20.7421 12.0176 20.6951 11.9871C20.7624 11.7639 20.9289 11.6142 21.1591 11.5793C21.1714 11.5619 21.1714 11.5371 21.1634 11.5161C21.1395 11.5095 21.1084 11.5095 21.0983 11.4892C21.112 11.4688 21.1229 11.4485 21.1366 11.4281C21.1888 11.4281 21.2865 11.5255 21.3285 11.5597C21.2836 11.604 21.2583 11.6593 21.23 11.7203C21.1989 11.7152 21.1518 11.6949 21.1265 11.7203C21.1265 11.7334 21.1294 11.7458 21.1308 11.7647C21.1815 11.7981 21.23 11.8315 21.2807 11.865C21.3212 11.9871 21.3212 11.9871 21.335 12.0016C21.4095 12.0038 21.4892 12.006 21.5666 12.0111C21.5724 12.0307 21.5637 12.0351 21.5514 12.0496C21.5514 12.1892 21.7483 12.4261 21.8229 12.549C21.7454 12.5984 21.7454 12.5984 21.7324 12.6195C21.7664 12.7874 21.7237 13.1748 22.0118 13.1232C22.0451 13.1435 22.0791 13.1646 22.1131 13.1857C22.1124 13.2039 22.1088 13.2242 22.1066 13.2446C22.2941 13.4074 22.3136 13.5026 22.3903 13.7403C23.6679 15.0698 24.5148 16.6471 24.892 18.4599C24.9499 18.8452 24.981 19.1519 24.9897 19.1781C25.3943 18.601 25.6911 18.0427 25.8815 17.3754C25.9242 17.0389 25.9473 16.6951 25.9473 16.3462C25.9481 14.404 25.2452 12.6187 24.0842 11.2348ZM12.8717 22.0166C12.9043 21.9926 12.9398 22.0078 12.9803 22.0122C12.9962 21.9955 12.9962 21.9955 13.0042 21.973C13.0216 21.9715 13.0382 21.9708 13.0549 21.9708C13.0773 21.989 13.0773 21.9889 13.1482 22.114C13.1019 22.2121 13.1642 22.3262 13.1497 22.4302C12.968 22.2637 12.829 22.1721 12.7443 21.9402C12.7653 21.9461 12.7653 21.9461 12.8717 22.0166ZM21.3632 21.3864C21.4066 21.3268 21.5051 21.1559 21.5724 21.1349C21.6238 21.1857 21.6477 21.1828 21.723 21.1894C21.6042 21.2999 21.6028 21.3311 21.4464 21.3667C21.3704 21.4736 21.2952 21.5848 21.2192 21.6953C21.1026 21.7505 20.9897 21.8065 20.8724 21.8625C20.9998 21.6713 21.1649 21.4961 21.3632 21.3864ZM19.0802 20.3935C19.0881 20.2226 19.2213 20.0249 19.3842 20.1572C19.4037 20.2335 19.3842 20.3295 19.4139 20.3964C19.5355 20.3964 19.6499 20.3055 19.77 20.2873C19.888 20.3964 19.9792 20.4523 19.9676 20.6355C19.6824 20.6631 19.5956 20.6922 19.6477 21.0113H19.631C19.5065 20.9059 19.3813 20.8419 19.3205 20.9938C19.1757 20.7801 19.1757 20.7801 19.1555 20.7293C19.1873 20.5519 19.1859 20.5323 19.0802 20.3935ZM19.2387 21.2504C19.2409 21.1894 19.2459 21.153 19.2814 21.1036C19.285 21.1138 19.285 21.1138 19.2387 21.2504ZM19.2604 21.0215C19.2416 21.0505 19.2416 21.0506 19.2163 21.0702C19.1576 20.9008 19.1576 20.9008 19.1547 20.8623C19.1873 20.9161 19.2242 20.967 19.2604 21.0215ZM19.2047 21.5201C19.2047 21.4714 19.2047 21.4714 19.2351 21.3319C19.285 21.4053 19.398 21.5201 19.4175 21.6015C19.335 21.5848 19.2771 21.5579 19.2047 21.5201ZM19.4551 21.6459C19.4501 21.6393 19.4486 21.632 19.4465 21.627C19.4624 21.6255 19.4624 21.6255 19.4798 21.6357C19.4718 21.6401 19.4624 21.64 19.4551 21.6459ZM19.8315 22.0486C19.6021 21.9715 19.5847 21.941 19.4761 21.7229C19.5862 21.6277 19.6962 21.6902 19.8084 21.7818C19.8134 21.9024 19.8214 21.9279 19.8981 22.0173C19.8909 22.0435 19.8576 22.0471 19.8315 22.0486ZM20.6024 19.974C20.5822 20.0467 20.5568 20.0838 20.5098 20.1427C20.4917 20.1427 20.4729 20.1449 20.4555 20.1456C20.3621 20.0758 20.5474 19.998 20.6024 19.974ZM20.4164 20.5475C20.4432 20.6624 20.4692 20.7751 20.4989 20.8921C20.386 20.9989 20.2897 21.1777 20.1283 21.1661C20.0957 21.2148 20.0957 21.2148 20.0624 21.2504C20.0595 21.2046 20.0596 21.2046 20.0487 21.1748C20.0111 21.1618 19.8902 21.1509 19.8873 21.1421C20.284 20.8347 20.2839 20.8347 20.2948 20.8172V20.5686C20.2347 20.4632 20.2347 20.4632 20.2304 20.44C20.2897 20.4734 20.3505 20.5119 20.4164 20.5475ZM20.2347 20.6021C20.2275 20.666 20.2224 20.73 20.2224 20.7976C20.0834 20.9037 19.9459 21.0069 19.8091 21.1145C19.7838 21.0811 19.7606 21.0636 19.7251 21.044C19.6535 20.7096 19.7411 20.7293 20.0704 20.6871C20.1826 20.621 20.1826 20.621 20.2347 20.6021ZM20.1855 19.8745C20.1855 19.974 20.0183 20.1063 19.9814 20.2146C19.7997 20.0954 19.8873 20.1645 19.8873 20.0191C19.8026 19.9733 19.6412 19.9086 19.6412 19.793C19.9524 19.652 19.8793 19.676 20.1855 19.8745ZM19.4059 19.9224C19.4341 19.9188 19.4667 19.9152 19.4993 19.9093C19.5123 19.8883 19.5058 19.8614 19.4993 19.8417C19.5232 19.8374 19.5492 19.8316 19.5746 19.8301C19.6477 19.9522 19.6846 19.974 19.8084 20.0467C19.8084 20.0867 19.7809 20.1151 19.7838 20.1608C19.8576 20.2066 20.2347 20.4116 20.1898 20.5439C20.137 20.5686 20.09 20.5962 20.04 20.6231C20.0031 20.3862 19.972 20.3782 19.7765 20.2088C19.6701 20.2328 19.5695 20.2771 19.4682 20.3193C19.4638 20.2561 19.4617 20.1965 19.4551 20.1347C19.4168 20.1034 19.3741 20.0685 19.3495 20.0286C19.3697 19.9922 19.3842 19.9566 19.4059 19.9224ZM18.2108 19.3118C18.1167 19.3148 18.0226 19.3213 17.9322 19.3271C17.8844 19.1592 18.2 19.3068 18.2108 19.3118ZM22.2079 20.6995C22.2318 20.6689 22.2543 20.6406 22.2789 20.6108C22.2854 20.6108 22.289 20.6108 22.2926 20.6137C22.2637 20.6406 22.234 20.6697 22.2079 20.6995ZM22.5858 20.5439C22.4794 20.5257 22.4924 20.658 22.491 20.7278C22.4606 20.7293 22.4345 20.7314 22.4077 20.7336C22.4077 20.6856 22.4077 20.6464 22.3737 20.6137C22.3969 20.5875 22.3969 20.5875 22.4968 20.3927C22.5156 20.3956 22.5322 20.4 22.5525 20.4065C22.5691 20.4487 22.6111 20.5039 22.5858 20.5439ZM22.6111 15.4143C22.6278 15.4187 22.6502 15.4245 22.6698 15.4281C22.593 15.6324 22.6813 15.6636 22.4685 15.7712C22.4729 15.732 22.4801 15.6942 22.4873 15.6578C22.4664 15.6157 22.3889 15.5015 22.3998 15.4587C22.5069 15.4681 22.5228 15.4746 22.6111 15.4143ZM22.5004 15.8628C22.5004 15.8781 22.5004 15.8781 22.491 15.8817C22.4866 15.8752 22.4801 15.8686 22.4758 15.8628H22.5004ZM22.5995 16.8921C22.5995 16.8056 22.5995 16.8056 22.5872 16.6842C22.5995 16.6834 22.6111 16.6827 22.6227 16.6827C22.7602 16.4392 22.6111 16.2233 22.6278 15.9711C22.7964 16.0961 22.8543 16.3636 22.8782 16.5701C22.8116 16.5701 22.7964 16.7474 22.7798 16.8005C22.5633 16.8579 22.7132 16.871 22.6734 17.0265C22.6669 17.0265 22.6625 17.0295 22.6589 17.0302C22.6408 17.0113 22.6256 16.9866 22.6111 16.9662H22.5706C22.4917 17.0454 22.4128 17.1268 22.3353 17.2068C22.3853 17.036 22.4577 17.0047 22.5995 16.8921ZM22.2687 17.4074C22.3078 17.414 22.3078 17.414 22.3578 17.4401C22.3563 17.4852 22.3534 17.5354 22.3513 17.5848C22.3469 17.5848 22.3433 17.5848 22.3419 17.5877C22.3194 17.5114 22.31 17.4867 22.2543 17.4321C22.2593 17.4227 22.2637 17.414 22.2687 17.4074ZM22.2181 20.0693C22.2181 20.0758 22.2217 20.0787 22.2239 20.0867H22.2022C22.1942 20.0823 22.1891 20.078 22.1869 20.0758C22.2079 20.0671 22.2079 20.0671 22.2181 20.0693ZM22.103 20.3629H22.1247C22.116 20.3716 22.1095 20.3818 22.103 20.3935V20.3629ZM21.8019 16.9836C21.82 16.9902 21.82 16.9902 21.9973 17.1777C21.9734 17.3144 21.9597 17.3936 21.8388 17.4757C21.7794 17.2722 21.728 17.1828 21.8019 16.9836ZM21.7461 16.3222C21.7418 16.3956 21.7418 16.3956 21.7519 16.5897C21.6593 16.7881 21.5767 16.8012 21.7461 16.9248C21.6991 17.0861 21.707 17.0825 21.5543 17.1268C21.5543 17.0302 21.5731 16.9248 21.4573 16.932C21.479 16.8288 21.4978 16.7263 21.5174 16.626C21.5536 16.6188 21.589 16.6158 21.6245 16.6122C21.6527 16.5177 21.6528 16.4225 21.6889 16.328C21.707 16.3266 21.7273 16.3251 21.7461 16.3222ZM17.9495 16.445C18.0255 16.4043 18.1008 16.3658 18.1804 16.3251C18.3621 16.3375 18.5409 16.3527 18.7269 16.3527C18.7921 16.2662 18.7364 16.1368 18.7986 16.0329C18.8681 16.0409 18.8681 16.0409 18.989 16.0721C19.1395 16.2313 19.1135 16.2888 19.2937 16.1608C19.4211 16.1717 19.6889 16.2422 19.8033 16.203C19.9915 16.0678 20.0523 16.022 20.2789 15.9951C20.323 16.2815 20.2861 16.2124 20.5351 16.1615C20.5619 16.1892 20.5865 16.2168 20.614 16.2437C20.6024 16.2815 20.5438 16.3135 20.512 16.3382C20.4273 16.4341 20.3462 16.5337 20.2644 16.6326C20.1949 16.6427 20.1218 16.6471 20.0596 16.6784C20.0596 16.7343 20.0907 16.7772 20.1175 16.8259C20.1175 16.9618 19.6448 17.2431 19.542 17.2613C19.2821 17.1072 19.0722 17.1661 18.8015 17.2155C18.711 17.1421 18.6227 17.0716 18.5344 17.004C18.2275 16.9139 18.2275 16.9139 18.1884 16.8957C18.1479 16.7132 18.1066 16.5831 17.9495 16.461V16.445ZM16.4186 11.8788C16.4063 11.881 16.3925 11.8817 16.3802 11.8839C16.3853 11.8751 16.3853 11.8751 16.4186 11.8788ZM14.8174 11.0007C14.871 10.9658 14.918 10.912 14.976 10.8946C14.9745 10.9898 14.9912 10.9346 15.0165 10.9847C14.9796 11.024 14.9637 11.024 14.9702 11.0828C14.997 11.0908 14.997 11.0908 15.031 11.085C15.0122 11.141 14.9123 11.1882 14.858 11.2129C14.8406 11.2042 14.8261 11.1962 14.8095 11.1868C14.8116 11.1243 14.8138 11.061 14.8174 11.0007ZM15.0874 12.3825V12.3927C15.0346 12.405 14.9832 12.4225 14.9325 12.4363C14.9043 12.4181 14.8782 12.3985 14.8529 12.3803C14.9325 12.3796 15.01 12.3796 15.0874 12.3825ZM14.0393 12.445C14.1081 12.4377 14.2738 12.4581 14.2738 12.3672C14.2608 12.3585 14.2485 12.3498 14.2369 12.3425C14.2376 12.336 14.2449 12.3316 14.2485 12.3294C14.2572 12.3309 14.2666 12.3316 14.2738 12.3345C14.2905 12.3774 14.2905 12.3774 14.31 12.4028C14.3187 12.4028 14.3281 12.4043 14.3397 12.4101C14.3462 12.4021 14.3563 12.3934 14.3643 12.389C14.3563 12.3534 14.3491 12.3185 14.3419 12.2829C14.3491 12.2829 14.3571 12.2873 14.3643 12.2895C14.3657 12.2938 14.3701 12.3018 14.3737 12.3134C14.4794 12.3156 14.5134 12.3069 14.5865 12.3796C14.4396 12.5555 14.4512 12.5831 14.234 12.6071C14.2282 12.594 14.2253 12.5853 14.2203 12.578C14.1703 12.578 14.1493 12.5788 14.0994 12.5969C14.069 12.578 14.0386 12.5548 14.0053 12.5395C14.006 12.5053 14.0219 12.4792 14.0393 12.445ZM13.938 11.8839C13.9343 11.8911 13.93 11.8977 13.9293 11.9064C13.9162 11.9028 13.909 11.8969 13.901 11.8962C13.9119 11.8904 13.9242 11.8875 13.938 11.8839ZM13.6701 12.8244C13.7317 12.7757 13.804 12.6929 13.8866 12.7285V12.7438C13.8062 12.8041 13.7722 12.815 13.6701 12.8244ZM13.7657 13.5063C13.7939 13.5063 13.8207 13.5084 13.8482 13.5106C13.8482 13.6182 13.9792 13.5019 14.0277 13.4924C14.0581 13.5717 14.0892 13.6495 14.1218 13.7287C14.0567 13.8428 13.9459 13.7374 13.8887 13.6923C13.8004 13.7381 13.7114 13.8799 13.6506 13.962C13.6108 13.9765 13.6108 13.9765 13.3943 14.0093C13.3176 13.8217 13.3299 13.6008 13.398 13.411C13.4588 13.3602 13.5203 13.3122 13.5804 13.2664C13.7454 13.3085 13.6998 13.398 13.7657 13.5063ZM13.8424 11.9129C13.8279 11.9522 13.82 11.9893 13.8113 12.0263C13.6933 12.0343 13.7027 12.0372 13.6043 12.0867C13.6021 12.0634 13.6021 12.0423 13.6021 12.0227C13.6933 11.9856 13.749 11.9362 13.8424 11.9129ZM13.3328 13.3841C13.3017 13.6262 13.2387 13.7963 13.322 14.0194C13.3046 14.0202 13.2894 14.0231 13.2749 14.0267C13.1555 13.7847 13.2156 13.7716 13.1728 13.5113C13.2156 13.4016 13.2431 13.3013 13.2662 13.1864C13.3625 13.1697 13.5015 13.0607 13.5681 13.0607C13.5724 13.0643 13.5775 13.068 13.5847 13.0759C13.5623 13.238 13.4544 13.2875 13.3328 13.3841ZM12.7204 13.6829C12.4852 13.6829 12.4128 14.2586 12.3911 14.433C12.3744 14.433 12.3571 14.4352 12.3411 14.4388C12.3107 14.4817 12.2745 14.5493 12.2246 14.5595C12.3781 14.3502 12.3882 14.1335 12.4389 13.877C12.4903 13.7956 12.6408 13.5884 12.5503 13.4961C12.6285 13.3987 12.7089 13.3064 12.7878 13.2111C12.8167 13.2082 12.8464 13.2068 12.8761 13.2032C12.8761 13.3035 12.8963 13.3623 12.8261 13.4314C12.8406 13.5317 12.8565 13.6298 12.8717 13.7287C12.842 13.741 12.8167 13.7556 12.7878 13.7745C12.7878 13.8094 12.7878 13.8428 12.7921 13.8813C12.8051 13.8908 12.8167 13.9002 12.8326 13.9119C12.8232 13.9969 12.7834 13.9613 12.7443 14.0187C12.7117 14.1256 12.6596 14.2317 12.6488 14.3443C12.6654 14.3567 12.6864 14.3662 12.7067 14.3778C12.7067 14.6293 12.6111 14.4897 12.7364 14.7412H12.7204C12.6488 14.6874 12.622 14.6649 12.538 14.6511C12.6285 14.4999 12.6285 14.3502 12.6495 14.1728C12.7125 13.9867 12.8247 13.8573 12.7204 13.6829ZM12.3701 15.0829H12.3571C12.3455 15.1337 12.3238 15.1519 12.2963 15.1955C12.2963 15.1439 12.3035 15.1257 12.3238 15.0734C12.3701 15.0749 12.3701 15.0749 12.3701 15.0829ZM12.1406 13.1588C12.1747 13.1036 12.2883 12.9611 12.3571 12.8499H12.4034C12.3571 12.972 12.3491 13.0592 12.3368 13.1922C12.3057 13.2104 12.2753 13.2279 12.2463 13.2482C12.2123 13.2075 12.1899 13.1748 12.1406 13.1588ZM12.9173 13.9199C12.9188 13.9976 12.9463 14.0914 12.9463 14.1539C12.9 14.1997 12.8102 14.3182 12.7494 14.3305C12.7422 14.324 12.7335 14.3196 12.7248 14.3153C12.7248 14.236 12.7776 14.1343 12.8022 14.058C12.8703 14.0471 12.8884 13.9795 12.9173 13.9199ZM12.7146 14.582C12.7602 14.4512 12.8695 14.2411 13.0035 14.1961C12.9694 14.3189 12.8804 14.4999 12.8804 14.6198C12.8869 14.6249 12.8956 14.6344 12.9021 14.6409C12.8616 14.6824 12.8616 14.6823 12.8015 14.726C12.774 14.6758 12.7443 14.63 12.7146 14.582ZM12.9289 14.646C12.9941 14.7449 13.0577 14.8437 13.1251 14.9426C13.1041 14.9862 12.9904 14.9847 12.9419 15.0313C12.8507 14.9542 12.7986 14.9237 12.7986 14.7965C12.8312 14.7543 12.8804 14.6627 12.9289 14.646ZM12.968 14.5849C12.968 14.441 13.1316 14.2455 13.0317 14.1328C13.0208 14.0761 13.0208 14.0761 13.0136 13.8842C13.0759 13.869 13.0758 13.869 13.128 13.8719C13.2184 14.0543 13.2887 14.2273 13.4146 14.3894C13.5051 14.5704 13.4595 14.6162 13.3907 14.811C13.322 14.8466 13.2539 14.8815 13.1866 14.9186C13.1142 14.8095 13.0411 14.6954 12.968 14.5849ZM13.209 13.1363C13.133 13.2933 13.1091 13.5462 13.149 13.7185C13.1395 13.7432 13.1396 13.7432 13.1012 13.7956C13.0455 13.8021 12.9948 13.8072 12.9419 13.8108C12.9325 13.8232 12.9202 13.89 12.9144 13.89V13.8762C12.8963 13.8661 12.8768 13.8573 12.8594 13.8479V13.8086C12.8869 13.7948 12.913 13.7803 12.9376 13.7716C12.9325 13.6829 12.9325 13.6829 12.8963 13.4546C12.9629 13.3725 12.9463 13.3158 12.9484 13.2075C13.0657 13.137 13.0693 13.1261 13.1091 12.9953C13.204 12.932 13.3046 12.8426 13.4305 12.8586C13.4153 12.892 13.4132 12.9008 13.4262 12.9378C13.4826 12.9378 13.5275 12.9059 13.5789 12.8782C13.4769 13.06 13.4088 13.0847 13.209 13.1363ZM13.3285 12.8005C13.3422 12.7903 13.3596 12.7801 13.3755 12.7736C13.3762 12.7801 13.3784 12.7852 13.3813 12.7954C13.3632 12.7968 13.3458 12.7983 13.3285 12.8005ZM13.1171 12.2662C13.1642 12.3018 13.183 12.3258 13.2394 12.3193C13.2525 12.264 13.2626 12.2124 13.2749 12.1601C13.3473 12.1739 13.419 12.1884 13.4928 12.2001C13.3886 12.3055 13.314 12.3563 13.2749 12.4973C13.2351 12.5068 13.196 12.5148 13.1591 12.5279C13.1171 12.3011 13.1171 12.3011 13.1171 12.2662ZM12.4931 12.8041C12.5511 12.7794 12.609 12.7539 12.6654 12.7285C12.7262 12.658 12.7935 12.4792 12.8601 12.4443C12.8601 12.4792 12.8623 12.5126 12.8638 12.5482C12.8956 12.5788 12.9195 12.5555 12.9492 12.5344C12.9723 12.6936 12.9492 12.6485 13.1453 12.7081C13.1678 12.7387 13.1938 12.7692 13.2163 12.8034C13.2279 12.8034 13.2945 12.7852 13.2945 12.8114C13.0368 12.8652 13.0925 13.0512 12.9419 13.1326C12.8833 13.1363 12.8239 13.137 12.7653 13.1399C12.6748 13.2475 12.5815 13.3522 12.491 13.459C12.4671 13.4437 12.4454 13.4285 12.4251 13.4147C12.441 13.1792 12.3911 13.0418 12.4931 12.8041ZM12.2231 12.4443C12.2246 12.4661 12.2246 12.4661 12.2174 12.5061C12.1443 12.5301 12.0719 12.5555 12.0009 12.5846C12.0675 12.5112 12.1312 12.485 12.2231 12.4443ZM11.9184 12.6827C12.0335 12.642 12.15 12.6013 12.2688 12.562C12.2912 12.4923 12.3086 12.3309 12.4171 12.3309C12.3846 12.5853 12.2811 13.0854 11.9865 13.1748C11.972 13.2002 11.9561 13.2286 11.9249 13.2359C11.8916 13.2228 11.8627 13.2082 11.8344 13.1966C11.8221 13.137 11.8113 13.073 11.8033 13.012C11.825 12.895 11.9047 12.8034 11.9184 12.6827ZM11.7346 18.8452C11.6976 18.8459 11.6709 18.8459 11.6462 18.8706C11.6976 19.2879 11.6976 19.2879 11.6962 19.3118C11.5 19.0429 11.3987 18.8954 11.2612 18.5857C11.2061 18.3967 11.1504 18.2077 11.0976 18.0224C11.0939 17.8028 11.0932 17.5899 11.0896 17.3754C11.1301 17.3449 11.1707 17.3187 11.2105 17.2926C11.2373 17.3238 11.2423 17.3318 11.2858 17.3362C11.3328 17.217 11.3784 17.1021 11.4255 16.9866C11.4566 17.012 11.466 17.0178 11.5007 17.0236C11.5362 16.9815 11.5688 16.9371 11.6028 16.8957C12.0045 17.4692 12.0045 17.4692 12.0813 17.5688C12.1182 17.5724 12.1544 17.5768 12.1935 17.5804C12.1935 17.6793 12.2203 17.7738 12.2261 17.8712C12.2152 17.9235 12.1935 18.2702 12.137 18.3029C12.0711 18.4185 12.0067 18.5341 11.9416 18.6497C11.8815 18.6497 11.8214 18.6497 11.7613 18.6533C11.7237 18.6896 11.7375 18.7914 11.7346 18.8452ZM10.5735 15.6309H10.5416C10.4917 15.7211 10.4468 15.8134 10.3991 15.9079C10.394 15.9079 10.3911 15.9108 10.3853 15.9144C10.3563 15.8032 10.3267 15.6971 10.3021 15.588C10.4729 15.4201 10.5076 15.3925 10.5619 15.1585C10.6032 15.3736 10.6053 15.3831 10.7552 15.2137C11.0447 15.4339 11.1446 15.4957 11.1786 15.8635C11.0939 16.0271 11.01 16.1921 10.9246 16.3542C10.8044 16.3927 10.8044 16.3927 10.7668 16.3963C10.7146 16.3258 10.664 16.2539 10.6148 16.1834C10.5655 16.0096 10.6785 15.7719 10.5735 15.6309ZM10.5264 15.7981C10.5373 16.1347 10.5293 16.1761 10.7103 16.4327C10.6944 16.589 10.6821 16.7416 10.5532 16.8419C10.5395 16.775 10.5395 16.775 10.5236 16.7518C10.5127 16.7474 10.5026 16.7474 10.4924 16.7474C10.4635 16.3956 10.3679 16.1078 10.5264 15.7981ZM10.706 16.9248C10.7284 16.7641 10.7827 16.6129 10.8109 16.4559C10.8601 16.4421 10.9086 16.4319 10.9608 16.421C11.0462 16.2553 11.133 16.0889 11.2199 15.926C11.2264 15.9413 11.23 15.958 11.2344 15.9769C11.0939 16.0038 11.3466 16.8237 11.3726 16.9313C11.3372 17.0316 11.3024 17.1363 11.2662 17.2366C11.0187 17.1043 11.0237 17.4736 11.0208 17.5855H10.9904C10.8782 17.5601 10.7863 17.4227 10.7067 17.3435V16.9248H10.706ZM11.4732 16.895C11.3169 16.7881 11.2474 16.2531 11.2119 16.0445C11.3553 16.0227 11.1461 15.5015 11.162 15.4165C11.17 15.4114 11.1779 15.4063 11.1873 15.4034C11.1946 15.3482 11.2083 15.0574 11.217 15.0356C11.3379 14.8953 11.4349 14.7325 11.6057 14.6584C11.618 14.7383 11.618 14.7383 11.6462 15.5444C11.6774 15.5713 11.7063 15.5902 11.7425 15.6077C11.783 15.5873 11.812 15.5313 11.841 15.4965C11.9488 15.4965 12.0046 15.8657 12.0046 15.9646C11.4892 16.8833 11.4892 16.8833 11.4732 16.895ZM11.5 14.63C11.5666 14.5014 11.6318 14.3756 11.7005 14.252C11.791 14.252 11.8069 14.252 11.8743 14.1902C11.9488 14.2666 11.8279 14.3567 11.7838 14.4076C11.6144 14.4076 11.6491 14.4199 11.6144 14.5849C11.5775 14.6009 11.5398 14.6133 11.5 14.63ZM11.542 12.9473C11.5869 13.0294 11.6057 13.0374 11.6962 13.0192C11.6759 13.1334 11.6694 13.4067 11.5608 13.4721C11.5442 13.3885 11.542 13.3965 11.4566 13.382C11.424 13.3064 11.327 13.1334 11.3444 13.052C11.3972 13.0236 11.4783 12.9473 11.542 12.9473ZM11.4906 13.4612C11.4964 13.5281 11.4819 13.5811 11.5521 13.5811C11.5978 13.5331 11.6448 13.4859 11.6911 13.4394C11.7968 13.6298 11.812 13.8762 11.8562 14.0921C11.8033 14.1517 11.7099 14.1481 11.6549 14.1881C11.4964 14.4941 11.3755 14.7325 11.1562 14.9906C11.1164 15.1105 11.1084 15.25 11.0896 15.3743C11.086 15.378 11.0809 15.3787 11.0795 15.3816C10.9955 15.3169 10.9137 15.2508 10.8319 15.1883C10.8319 14.558 11.0867 13.8966 11.2814 13.3078C11.3024 13.294 11.3176 13.2802 11.3408 13.2802C11.382 13.3776 11.3784 13.4612 11.4906 13.4612ZM11.3053 13.1828C11.2887 13.1922 11.2735 13.2061 11.2575 13.2199C11.2626 13.1842 11.2706 13.1501 11.2792 13.1137H11.2887C11.293 13.137 11.2995 13.1588 11.3053 13.1828ZM11.1157 12.9655C11.1699 12.9473 11.2228 12.9298 11.2792 12.9131C11.2836 12.9691 11.293 13.0091 11.2655 13.06C11.1917 13.06 11.1236 13.1552 11.0708 13.2017C11.086 13.1225 11.0997 13.0418 11.1157 12.9655ZM11.0194 13.0876C11.0064 13.1617 10.9948 13.2351 10.9832 13.3085C11.0766 13.395 11.1193 13.1952 11.1946 13.1952C11.1873 13.2475 11.1699 13.2925 11.175 13.3427C11.1808 13.3456 11.1873 13.3522 11.1967 13.358C11.162 13.4547 11.1309 13.5499 11.0997 13.6451C11.0693 13.6298 11.0295 13.5986 10.9948 13.6204C10.8942 13.8239 10.7935 14.0347 10.6929 14.2411C10.6502 14.026 10.6502 14.026 10.6437 13.9358C10.7501 13.6291 10.8659 13.3725 11.0194 13.0876ZM10.5945 14.1016C10.6133 14.1953 10.5887 14.3843 10.7096 14.3683C11.0071 13.7403 11.0071 13.7403 11.0411 13.688C11.0454 13.6967 11.0534 13.7032 11.0628 13.7105C10.9152 14.1743 10.8384 14.622 10.7545 15.1047C10.6625 15.2202 10.6625 15.2202 10.6452 15.2282C10.5996 15.0015 10.5996 15.0014 10.5822 14.9615H10.5388C10.4837 15.2108 10.4859 15.3271 10.2984 15.4943C10.3585 15.0356 10.4251 14.5319 10.5945 14.1016ZM10.2709 17.0389C10.2463 16.6129 10.2434 16.1834 10.2724 15.753C10.3542 16.062 10.4533 16.4218 10.4164 16.7423C10.31 16.9379 10.31 16.9379 10.2709 17.0389ZM10.3817 17.8639C10.3549 17.6793 10.3187 17.4939 10.3057 17.3064C10.478 17.3951 10.478 17.499 10.5395 17.6836C10.4939 17.7345 10.4171 17.8014 10.3983 17.8646H10.3817V17.8639ZM10.4287 17.9482C10.4468 17.8574 10.5496 17.7738 10.6061 17.7047C10.5909 17.5804 10.5301 17.4532 10.4888 17.3347C10.1993 17.1792 10.2955 17.1712 10.3983 16.9051C10.3983 16.9873 10.373 17.1537 10.42 17.2184H10.4497C10.4931 17.1625 10.4714 16.8964 10.4714 16.8223H10.4874C10.4895 16.8586 10.4932 16.8964 10.5156 16.9277C10.5655 16.9277 10.6046 16.8928 10.6423 16.8586C10.6401 17.0302 10.6372 17.1988 10.6372 17.3711C10.7682 17.4961 10.8457 17.6328 11.0281 17.6538C11.0281 17.7789 11.0281 17.901 11.031 18.026C11.1511 18.4403 11.1511 18.4403 11.1453 18.4483C10.9948 18.2564 10.9166 18.1169 10.8261 17.8908C10.6734 17.8646 10.6459 18.042 10.6148 18.1525H10.601C10.5416 18.0812 10.4845 18.0129 10.4287 17.9482ZM12.2478 21.422C12.2434 21.4227 12.2391 21.4263 12.2369 21.4285C12.1515 21.3827 12.0581 21.3151 11.9655 21.3006C11.8156 21.1102 11.6651 20.9117 11.5362 20.7031C11.2192 19.8396 10.8724 18.9797 10.4946 18.1387C10.533 18.1677 10.6097 18.2564 10.6249 18.2673C10.7277 18.215 10.6459 17.9773 10.7856 17.9642C10.892 18.2368 11.01 18.3894 11.2025 18.6162C11.3777 19.0015 11.4276 18.9789 11.3046 19.3511C11.3162 19.5554 11.2973 19.5321 11.5007 19.5713C11.5 19.6004 11.4971 19.6302 11.4964 19.6615C11.4508 19.6426 11.3726 19.5808 11.3277 19.6091C11.3733 20.0678 11.715 20.5439 12.0342 20.8456C12.1146 21.036 12.1841 21.225 12.2478 21.422ZM12.0697 20.5439C11.9814 20.5883 12.0125 20.6253 11.9633 20.6915C11.7707 20.5119 11.3618 19.937 11.4204 19.7022C11.4631 19.7225 11.4913 19.7465 11.5406 19.7465C11.5739 19.7051 11.5645 19.5852 11.5645 19.5277C11.5529 19.5168 11.5529 19.5168 11.3791 19.4783C11.3726 19.33 11.4124 19.2421 11.4631 19.1003C11.5818 19.2617 11.6629 19.3584 11.6984 19.5517C11.3632 19.796 11.9959 20.2742 12.0697 20.5439ZM11.7729 19.3344C11.7186 18.963 11.7186 18.9629 11.7222 18.9172C11.8424 18.8903 11.8033 18.8408 11.8069 18.7158C12.0827 18.7158 12.0313 18.6199 12.1841 18.3567C12.1899 18.356 12.1971 18.3516 12.2036 18.3516C12.2087 18.3778 12.2087 18.3778 12.2246 18.7747C12.3107 18.9586 12.4338 19.1229 12.4128 19.3286C12.3534 19.3526 12.5576 19.6549 12.5938 19.7094C12.6763 19.8083 12.761 19.9093 12.8449 20.014C12.7581 20.0256 12.6719 20.0416 12.588 20.0598C12.1964 19.8934 12.0755 19.6797 11.7729 19.3344ZM12.7935 20.4262C12.669 20.4407 12.5467 20.4545 12.4244 20.4669C12.3882 20.3208 12.3534 20.171 12.3194 20.0256C12.4128 20.0256 12.5091 20.1092 12.609 20.1194C13.0614 20.0547 12.9767 20.0758 12.6929 19.7204C12.8095 19.7691 13.0541 19.8883 13.2322 19.9617C13.209 20.1797 12.9586 20.2931 12.7935 20.4262ZM13.3943 19.5655C13.0896 19.5168 12.8544 19.4151 12.5677 19.29C12.5699 19.1345 12.5742 18.9811 12.5807 18.827C12.795 18.8619 12.8732 18.9252 12.9275 19.1432C13.0085 19.1963 13.1367 19.0531 13.2315 19.0531C13.3328 19.0996 13.4342 19.1497 13.5362 19.1985C13.5521 19.2966 13.5724 19.4071 13.5645 19.5088C13.5051 19.5321 13.458 19.5561 13.3943 19.5655ZM14.1081 18.694C14.1059 18.7114 13.985 18.8648 13.9741 18.8714C13.9452 18.8459 13.9162 18.8205 13.8858 18.7958C13.8858 18.7696 14.0813 18.7049 14.1081 18.694ZM13.5587 17.0389C13.5587 17.2664 13.5854 17.4932 13.5811 17.7193C13.5666 17.7134 13.5536 17.7084 13.5391 17.7047C13.5145 17.7193 13.5116 17.7222 13.5073 17.7534H13.4942C13.4276 17.6829 13.3603 17.6088 13.2952 17.5412C13.2163 17.3304 13.0049 17.0047 13.0483 16.7758C13.3263 16.7554 13.2923 16.7932 13.4385 16.5701C13.5369 16.5635 13.5666 16.5802 13.652 16.6318C13.6752 16.855 13.6889 16.8732 13.5587 17.0389ZM12.7791 16.9168C12.7284 16.9248 12.6799 16.9364 12.63 16.948C12.5503 16.7714 12.601 16.6384 12.7646 16.5308C12.7668 16.5773 12.7711 16.6224 12.7769 16.6718C12.8247 16.6878 12.8761 16.7074 12.9275 16.7234C12.9369 16.7874 12.9369 16.7874 12.9369 16.8245C12.8442 16.7932 12.8442 16.7932 12.7487 16.7714C12.7451 16.7816 12.7364 16.7874 12.7327 16.8005C12.7458 16.8405 12.7631 16.8768 12.7791 16.9168ZM12.842 16.6282C12.8406 16.5955 12.8392 16.5621 12.8392 16.5315C12.8833 16.5315 12.9282 16.5315 12.9723 16.533C13.0628 16.3934 12.8876 16.2379 13.1627 16.243C13.2532 16.3266 13.3429 16.4087 13.437 16.4915C13.4313 16.5025 13.4313 16.5025 13.3849 16.5221C13.2148 16.8136 13.209 16.5795 12.9933 16.7234C12.9803 16.6529 12.9043 16.6478 12.842 16.6282ZM12.8876 16.4603C12.8971 16.4465 12.905 16.4363 12.9144 16.4247C12.9173 16.4392 12.9188 16.4545 12.9202 16.4705H12.892C12.8884 16.4661 12.8876 16.4625 12.8876 16.4603ZM13.6984 16.5781C13.4682 16.4487 13.2973 16.1855 13.0382 16.1754C12.9593 16.1303 12.8782 16.0896 12.8001 16.0467C12.7248 15.8795 12.8095 15.873 12.6256 15.8141C12.6068 15.7676 12.5887 15.7196 12.5699 15.6731C12.5807 15.6695 12.593 15.6665 12.6061 15.6636C12.6061 15.6215 12.6068 15.6157 12.5807 15.5815H12.5619C12.5308 15.6309 12.1124 16.1761 12.1587 16.3251C12.2224 16.3636 12.2905 16.392 12.3107 16.4087C12.3484 16.4792 12.4649 16.6994 12.5503 16.6813C12.5511 16.6936 12.5511 16.6936 12.5084 16.8325C12.5655 16.9611 12.5655 16.9611 12.5988 17.0156C12.6814 17.0156 12.7791 16.9829 12.8594 16.9611C12.8594 16.9262 12.8507 16.903 12.8384 16.8659C12.8855 16.8812 12.9311 16.8972 12.9796 16.9153C13.0997 17.2235 13.183 17.6168 13.4732 17.8123C13.5044 18.0703 13.5246 18.3422 13.5348 18.5995C13.6455 18.6904 14.2413 19.0364 13.8547 19.2021C13.6224 19.1614 13.4421 19.0771 13.2257 18.9797C13.141 18.9957 13.0621 19.0436 12.9839 19.0771C12.9224 18.8408 12.7762 18.8009 12.5626 18.7594C12.5236 18.5646 12.4845 18.3662 12.4468 18.1699C12.4541 18.0725 12.4845 17.8719 12.4924 17.76C12.4323 17.1414 12.4323 17.1414 12.428 17.0331C12.4656 16.9815 12.4895 16.9589 12.4953 16.8928C12.4512 16.8688 12.4114 16.9175 12.3773 16.9386C12.3875 16.7685 12.3875 16.7685 12.3853 16.6573H12.3382C12.2782 16.9335 12.247 17.2301 12.2065 17.515C12.1732 17.5114 12.1428 17.5063 12.111 17.5026C11.6252 16.8172 11.6253 16.8172 11.6158 16.7925C11.7541 16.5395 11.8996 16.2866 12.0407 16.0336C12.0965 16.1725 12.0965 16.1725 12.1073 16.1848C12.3238 15.8235 12.5489 15.4681 12.7863 15.125C12.7675 15.0647 12.7465 14.9905 12.7016 14.9448C12.6719 14.9513 12.6423 14.96 12.6126 14.9651C12.6126 14.9324 12.6256 14.8924 12.6068 14.8655H12.5597C12.5351 14.9113 12.5098 14.9557 12.4881 15.0022C12.4143 14.9942 12.4171 15.0153 12.4121 15.0829C12.4019 15.0792 12.3947 15.0756 12.3853 15.0734C12.399 15.0516 12.3933 15.0058 12.3853 14.9804C12.4331 14.8408 12.4266 14.7696 12.567 14.7201C12.7009 14.7965 12.7212 14.819 12.7602 14.9687C12.8066 15.0073 12.8558 15.048 12.9043 15.0894C12.8978 15.1279 12.8927 15.1665 12.8847 15.205C12.8703 15.1817 12.8616 15.1781 12.8413 15.1723C12.7689 15.2755 12.7689 15.2755 12.7602 15.3031C12.8189 15.3525 12.8855 15.4296 12.9694 15.4056C13.0056 15.4936 13.1034 15.4914 13.1859 15.5088C13.4052 15.7138 13.3314 16.0685 13.7085 16.0518C13.7317 16.0184 13.7317 16.0183 13.7389 16.0183C13.7671 16.0605 13.7932 16.1063 13.8236 16.1492C13.8142 16.1557 13.8048 16.1615 13.8004 16.1645C13.8134 16.3723 13.8113 16.4087 13.6984 16.5781ZM13.4769 15.1207H13.5442V15.2624H13.5217C13.5073 15.258 13.4957 15.2515 13.4819 15.2471C13.4798 15.2064 13.4769 15.1614 13.4769 15.1207ZM13.7027 15.3889C13.7165 15.4579 13.7331 15.5248 13.7382 15.5975C13.7251 15.5284 13.7136 15.4579 13.7027 15.3889ZM14.9434 18.271C14.9021 18.2295 14.863 18.1852 14.8232 18.1452C14.8594 18.0304 14.9079 17.8087 15.0766 17.8087C15.2307 17.8821 15.3285 17.8901 15.4544 17.7491C15.5948 17.7927 15.7367 17.8377 15.8786 17.8828C15.9314 17.8552 15.9843 17.8268 16.0386 17.8014C16.0552 17.9308 16.0552 17.9308 16.0675 17.9591C16.0965 17.9642 16.0965 17.9642 16.3759 17.97C16.2977 18.0464 16.0769 17.9831 16.0045 18.0812C16.0045 18.1634 16.0031 18.199 15.9575 18.2637H15.8286C15.7968 18.3298 15.7657 18.3974 15.7331 18.4636C15.5044 18.4723 15.5044 18.4723 15.4117 18.4788C15.3842 18.5268 15.3567 18.5741 15.3292 18.6191C15.3176 18.6191 15.306 18.6228 15.2981 18.6257C15.1366 18.5712 14.9759 18.5166 14.8174 18.4636C14.8174 18.396 14.9434 18.3589 14.9434 18.271ZM15.2662 19.1803C15.1048 19.1243 14.9448 19.0676 14.7856 19.0138C14.7856 18.883 15.002 19.0494 15.002 18.8997C14.9434 18.742 14.9434 18.742 14.8572 18.5523C15.002 18.5973 15.2069 18.6933 15.356 18.6933C15.3842 18.6453 15.411 18.5973 15.4407 18.5457C15.7707 18.4818 15.736 18.6249 15.8648 18.3371C15.9047 18.3342 15.9437 18.332 15.9857 18.3291C16.048 18.2419 16.0733 18.215 16.0762 18.1103C16.3824 18.0456 16.3144 18.0216 16.2181 18.3102C16.2159 18.3371 16.2123 18.3604 16.2123 18.3843C16.2318 18.4112 16.3672 18.5523 16.3556 18.5763C16.3288 18.5552 16.2919 18.4992 16.2543 18.5363C16.2572 18.5821 16.2847 18.6584 16.2637 18.6962C16.1573 18.782 16.0509 18.8641 15.943 18.9506C15.8641 18.9651 15.8019 18.8997 15.7165 18.8997C15.5377 19.104 15.6897 19.1556 15.7555 19.4151H15.7411C15.6672 19.3765 15.5825 19.3198 15.5 19.3068C15.4689 19.3373 15.4378 19.3656 15.4066 19.3976C15.3574 19.3824 15.2945 19.2297 15.2662 19.1803ZM16.8695 21.6895C16.8326 21.6946 16.8001 21.6982 16.7675 21.7062C16.7523 21.6924 16.7371 21.6808 16.7255 21.6699C16.7327 21.4925 16.7327 21.4925 16.7422 21.4285C16.7885 21.4794 16.8391 21.5317 16.8869 21.5819C16.879 21.6182 16.8732 21.6531 16.8695 21.6895ZM17.5326 19.2559C17.5941 19.2566 17.6535 19.2631 17.7164 19.2661C17.707 19.3148 17.6708 19.3511 17.6419 19.3853C17.3632 19.2704 17.1236 19.2086 16.8934 19.0204C17.0614 18.7907 17.3857 19.1468 17.5326 19.2559ZM16.6242 18.0311C16.7146 18.0871 16.8167 18.1423 16.8956 18.215C16.8956 18.2637 16.8073 18.3378 16.7762 18.3742C16.8131 18.5057 16.8131 18.5057 16.816 18.5464H16.7139C16.6727 18.6017 16.7183 18.7514 16.7508 18.8074C16.8862 18.8895 16.8862 18.8895 16.8949 18.8997C16.8616 18.9462 16.8124 18.9826 16.8124 19.0415C17.0715 19.2406 17.3024 19.3206 17.6122 19.4405C17.7063 19.4296 17.7353 19.3605 17.7874 19.2806C17.8265 19.2733 17.8265 19.2733 17.8634 19.2799C17.8605 19.3111 17.8591 19.3446 17.8591 19.3787C17.6846 19.4187 17.8453 20.0104 17.8554 20.0743C17.8323 20.0656 17.82 20.0307 17.8098 20.006H17.7751C17.5427 20.2582 17.3104 20.4138 17.0216 20.6006C16.7566 20.6784 16.7566 20.6784 16.7458 20.69C16.656 21.2352 16.656 21.2352 16.6437 21.2715C16.5568 21.3239 16.4729 21.3762 16.3889 21.4271C16.1623 21.2352 16.0726 20.8361 15.9662 20.5548C15.9372 20.3949 15.9112 20.2364 15.8829 20.0772C15.917 19.9108 16.0306 19.7589 15.8315 19.708C15.7859 19.7436 15.7773 19.7894 15.7563 19.8447C15.7063 19.841 15.6571 19.8381 15.61 19.8359C15.5833 19.788 15.5565 19.7443 15.5326 19.6978C15.5869 19.6978 15.6636 19.6404 15.6636 19.5852C15.6274 19.5495 15.534 19.5554 15.487 19.5503C15.466 19.5161 15.4414 19.4907 15.4414 19.4492C15.5927 19.3111 15.6962 19.5168 15.8178 19.4361C15.8178 19.2886 15.7121 19.1607 15.6947 19.0167C15.7896 18.9215 15.8323 19.0291 15.9495 19.0291C16.0777 18.9237 16.2108 18.819 16.3411 18.7165C16.3411 18.678 16.3411 18.6446 16.3303 18.6068C16.399 18.6031 16.399 18.6031 16.4302 18.593C16.4302 18.5065 16.3353 18.4251 16.2796 18.3611C16.302 18.284 16.3245 18.207 16.3448 18.1278C16.5872 18.082 16.5872 18.082 16.6119 18.0696C16.6162 18.058 16.6184 18.0413 16.6242 18.0311ZM16.5105 18.0231C16.4924 18.0325 16.4924 18.0325 16.3723 18.0507C16.4034 18.0296 16.4323 17.9802 16.4707 17.9802C16.4845 17.9955 16.4982 18.0078 16.5105 18.0231ZM16.4265 17.8879C16.3238 17.8901 16.2217 17.8915 16.1218 17.8937C16.1124 17.8334 16.1066 17.7738 16.0986 17.7156C15.9597 17.7156 15.9365 17.8334 15.778 17.7818C15.8619 17.6189 15.8685 17.6299 15.8229 17.4532C15.9864 17.382 15.9944 17.4634 16.1348 17.5841C16.2058 17.5906 16.2774 17.6 16.3505 17.6088C16.3484 17.6415 16.3484 17.6713 16.3484 17.7047C16.4244 17.7738 16.441 17.7825 16.4265 17.8879ZM16.7219 17.443C16.3925 17.4961 16.3925 17.4961 16.3759 17.5056C16.3715 17.5172 16.3679 17.5295 16.3657 17.5441H16.3267C16.1754 17.5295 16.0031 17.4583 15.9546 17.2977C16.0082 17.2977 16.1182 17.4292 16.1558 17.4656C16.205 17.4641 16.3107 17.4656 16.352 17.4401C16.352 17.3551 16.2543 17.262 16.2123 17.1981C16.2123 17.1857 16.2159 17.177 16.2181 17.1661C16.4352 17.0709 16.36 17.2119 16.491 17.1872C16.6727 17.0607 16.8261 17.2177 17.0216 17.273C17.0216 17.278 17.0245 17.2824 17.0259 17.2853C16.9246 17.3369 16.8218 17.39 16.7219 17.443ZM16.0342 17.2621C16.0364 17.2533 16.0393 17.2497 16.0407 17.2417C16.0733 17.2286 16.1117 17.217 16.1442 17.2039C16.1797 17.2599 16.2463 17.3304 16.2601 17.3951C16.2326 17.3987 16.2058 17.3987 16.179 17.4023C16.1305 17.3551 16.0813 17.3086 16.0342 17.2621ZM15.1873 15.8628C15.2105 15.7872 15.2351 15.7131 15.2583 15.6404C15.4624 15.6513 15.4653 15.6178 15.5391 15.7879C15.5818 15.8054 15.7078 15.8054 15.7447 15.7836C15.7389 15.7334 15.736 15.6854 15.7309 15.6346C15.7512 15.6324 15.7715 15.6273 15.7917 15.6229C15.7997 15.6069 15.8084 15.5888 15.8171 15.5728C15.9177 15.5648 15.9054 15.5546 15.9119 15.4594C16.1124 15.4623 16.3115 15.4688 16.5163 15.4754C16.5322 15.5299 16.5532 15.583 16.572 15.6389C16.6292 15.6571 16.685 15.6745 16.7429 15.6934C16.7458 15.7211 16.7523 15.745 16.7733 15.7669C16.9781 15.7276 16.9781 15.7276 17.0042 15.7298C17.0541 15.881 17.1055 16.0293 17.1547 16.1797C17.1859 16.2117 17.2228 16.1863 17.264 16.1863C17.306 16.2444 17.4204 16.2393 17.4877 16.2451C17.5854 16.3396 17.6151 16.3942 17.749 16.4014C17.7613 16.4167 17.7772 16.4349 17.7925 16.4538C17.7678 16.5294 17.7034 16.4894 17.6853 16.6282C17.5999 16.6347 17.5116 16.6406 17.4262 16.6478C17.4081 16.6864 17.4081 16.6864 17.3705 16.855C17.0606 16.9219 17.1403 16.8884 17.1135 17.2308H17.099C16.9774 17.1915 16.6763 17.0324 16.5605 17.0563C16.4693 17.1298 16.475 17.1189 16.3947 17.0411C16.2535 17.0411 16.1269 17.1668 15.9821 17.1843C15.9459 17.1523 15.9162 17.1356 15.8721 17.1152C15.8431 16.9836 15.8171 16.855 15.7888 16.7227C15.6976 16.698 15.5217 16.6864 15.4993 16.5875C15.6216 16.4152 15.6173 16.4436 15.5492 16.2357C15.4696 16.2357 15.3951 16.2684 15.3183 16.2902C15.2409 16.2684 15.1634 16.2444 15.0853 16.2255C15.0266 16.0329 15.0628 15.9711 15.1873 15.8628ZM15.086 16.3062C15.1424 16.3062 15.2011 16.3222 15.2583 16.3353C15.1714 16.6166 15.1808 16.5482 15.453 16.6529C15.4595 16.6682 15.466 16.6813 15.4718 16.6973C15.5608 16.7205 15.6477 16.7452 15.7331 16.7685C15.7584 16.8957 15.7845 17.0207 15.8106 17.1479C15.8323 17.1668 15.901 17.1988 15.943 17.2272C15.8439 17.2388 15.8916 17.2693 15.8916 17.3529C15.7121 17.4358 15.7389 17.4256 15.799 17.6044C15.7722 17.6495 15.7454 17.6953 15.7193 17.7432C15.707 17.744 15.6947 17.7498 15.6824 17.7541C15.6687 17.7469 15.6571 17.7432 15.6448 17.7389C15.6368 17.4699 15.5196 17.3856 15.3596 17.1654C15.3285 17.0244 15.3343 16.9691 15.2199 16.8892C15.2199 16.7859 15.2836 16.7801 15.1388 16.6835C15.0686 16.6813 14.9991 16.6813 14.9354 16.6813C14.9839 16.5548 15.0346 16.4298 15.086 16.3062ZM14.7762 16.9197C14.8153 16.8564 14.8153 16.8565 14.8594 16.7605C14.947 16.7554 15.0339 16.7525 15.1185 16.7474C15.2003 16.8288 15.1359 16.8056 15.1359 16.9015C15.1736 16.9306 15.2148 16.9597 15.2546 16.9873C15.3096 17.2766 15.5644 17.4329 15.5753 17.7076C15.4038 17.6596 15.3762 17.7527 15.2061 17.8028C15.1736 17.7839 15.1403 17.7651 15.1062 17.7491C15.0469 17.4067 14.8319 17.1857 14.6357 16.9008C14.6647 16.8986 14.7313 16.9211 14.7762 16.9197ZM14.1377 16.392C14.4186 16.4167 14.3136 16.1754 14.3216 15.9377C14.3563 15.8984 14.3954 15.8606 14.4316 15.825C14.4649 15.8388 14.4627 15.8752 14.5004 15.8817C14.5272 16.1877 14.5272 16.1877 14.5272 16.2764C14.4591 16.3796 14.3657 16.4617 14.3969 16.589H14.3824C14.3462 16.5773 14.3462 16.5773 13.9959 16.5134V16.3222C14.0523 16.3375 14.111 16.3375 14.1377 16.392ZM14.061 16.2619C14.0509 16.2662 13.9742 16.2335 13.9452 16.2335C13.901 16.2946 13.9235 16.416 13.9235 16.4908C13.859 16.4276 13.8786 16.3055 13.8714 16.2161C14.0451 16.1979 13.7374 16.0104 13.791 15.9013C13.7896 15.8599 13.7867 15.8228 13.7852 15.7828C13.8757 15.9428 13.9662 16.1027 14.061 16.2619ZM14.2123 15.0545C14.0842 15.0974 13.9589 15.1374 13.8337 15.1817C13.7505 15.1417 13.6853 15.1301 13.6238 15.1105C13.5956 15.0116 13.4819 15.0153 13.5659 14.9048C13.5391 14.8655 13.5058 14.8524 13.4667 14.8292C13.4667 14.7485 13.5261 14.6475 13.5543 14.569C13.5543 14.3916 13.3487 14.2818 13.3299 14.1321C13.3777 14.1205 13.4066 14.1205 13.4182 14.071C13.508 14.0609 13.5963 14.0492 13.6875 14.0376C13.8757 14.3313 13.8757 14.3313 13.9083 14.3727C14.1645 14.4076 14.0791 14.4803 14.053 14.7187C14.171 14.9593 14.171 14.9593 14.2123 15.0545ZM14.2058 14.2317C14.0842 14.1932 14.0827 14.1932 14.0407 14.3225H14.006C13.875 14.292 13.7954 14.0819 13.7251 13.9715C13.7758 13.9031 13.833 13.8377 13.896 13.7737C14.0986 13.9387 14.0957 13.7112 14.2731 13.7999C14.2485 13.8348 14.2224 14.1474 14.2058 14.2317ZM14.2637 13.728C14.2369 13.7214 14.2094 13.7156 14.1841 13.7127C14.158 13.6494 14.082 13.5063 14.0921 13.4408C14.1066 13.4307 14.1196 13.4227 14.1327 13.4147C14.1348 13.4459 14.1392 13.4786 14.1443 13.5106C14.2043 13.4539 14.2043 13.4539 14.2376 13.4299C14.268 13.4845 14.3665 13.6087 14.3665 13.6691C14.3303 13.6996 14.3057 13.7134 14.2637 13.728ZM14.7132 13.233C14.7298 13.411 14.7964 13.5041 14.7074 13.6698C14.5887 13.704 14.4714 13.7374 14.3527 13.7737C14.3665 13.7294 14.4302 13.7163 14.4533 13.6713C14.4114 13.5978 14.2963 13.4481 14.2963 13.3652C14.3932 13.2926 14.4736 13.2264 14.5185 13.1188C14.7175 12.9982 14.9086 12.8622 15.0983 12.7249C15.0968 12.7198 15.0939 12.7176 15.0939 12.7176C15.0795 12.7154 15.0635 12.7176 15.0476 12.7198C14.8182 12.8426 14.5395 12.6805 14.2963 12.8521C14.2963 12.9008 14.3107 12.9095 14.3563 12.9291C14.3491 12.9466 14.3397 12.9647 14.3317 12.9822C14.2709 12.9822 14.226 12.9822 14.1739 12.9466C13.9705 12.9466 13.9691 13.1792 13.7903 13.0171C13.9155 12.9037 14.048 12.791 14.1754 12.6805C14.263 12.6703 14.352 12.658 14.4403 12.6471C14.504 12.5744 14.567 12.5053 14.6307 12.4319C14.7009 12.4319 14.698 12.4661 14.7081 12.3774C14.7754 12.4181 14.8413 12.4581 14.9072 12.4995C15.1301 12.4995 15.175 12.3665 15.3943 12.4632C15.403 12.4923 15.403 12.4923 15.3987 12.5424C15.2503 12.6529 15.1012 12.7656 14.9535 12.879C14.9014 12.9662 14.7993 13.1828 14.7132 13.233ZM15.6151 13.3093C15.576 13.2017 15.534 13.097 15.495 12.9931C15.4834 12.988 15.4711 12.9829 15.4624 12.98C15.5152 12.9095 15.6014 12.7801 15.6846 12.7605C15.7469 12.8244 15.7592 13.1465 15.7657 13.2591C15.7157 13.3027 15.6846 13.3027 15.6151 13.3093ZM15.9264 13.3601C15.9423 13.3398 15.9553 13.3151 15.9713 13.2955C15.9893 13.3115 15.9893 13.3115 15.998 13.3296C15.9865 13.3434 15.9865 13.3434 15.9264 13.3601ZM16.7805 11.9064C16.7675 11.9057 16.7559 11.9028 16.7436 11.8998V11.8839C16.7624 11.8904 16.7805 11.894 16.7986 11.8977C16.7928 11.8999 16.7841 11.9028 16.7805 11.9064ZM17.7143 11.3213C16.9651 11.6244 16.2543 12.0598 15.571 12.4923C15.5666 12.5003 15.5666 12.5082 15.5666 12.5177C15.6325 12.5562 15.6289 12.5751 15.7165 12.5918C15.7121 12.602 15.7085 12.6144 15.707 12.6253C15.5174 12.807 15.2163 13.2591 15.0201 13.3245C15.0056 13.3115 15.0056 13.3115 14.8087 13.2417C14.8095 13.2257 14.8095 13.2257 14.9673 12.9742C15.1185 12.9742 15.1432 12.9415 15.1815 12.7852C15.2756 12.711 15.3726 12.6405 15.4689 12.5693C15.466 12.533 15.466 12.4995 15.466 12.4661C16.0183 12.155 16.5539 11.8177 17.1142 11.5204C17.1909 11.4863 17.6419 11.2348 17.7049 11.2537C17.7099 11.2791 17.7251 11.2965 17.7143 11.3213ZM20.9658 9.47716C20.9564 9.48079 20.9484 9.48661 20.9383 9.49025C20.934 9.55785 20.934 9.55784 20.9434 9.60218C20.9325 9.60509 20.9224 9.60582 20.9108 9.60872C20.9079 9.54621 20.9043 9.48588 20.9028 9.42119C20.9123 9.41901 20.9122 9.41901 20.9658 9.47716ZM20.8934 9.78318C20.8616 9.78318 20.8522 9.79335 20.8333 9.82025C20.7798 9.78027 20.8304 9.75919 20.8703 9.7243C20.8818 9.73156 20.8819 9.73157 20.8934 9.78318ZM16.2166 8.83169C16.1392 8.86367 16.0487 8.91601 15.9655 8.932C16.1978 8.83169 16.1978 8.83169 16.2166 8.83169ZM15.2981 9.28963C15.2887 9.278 15.2887 9.27799 15.259 9.26854C15.2727 9.26273 15.2887 9.25619 15.3046 9.25183C15.3017 9.26273 15.2995 9.27509 15.2981 9.28963ZM17.6788 9.75555C17.5948 9.75555 17.5311 9.8137 17.4544 9.8137C17.3951 9.73447 17.1801 9.75919 17.0845 9.75264C17.0845 9.6 16.6864 9.66397 16.5952 9.66397V9.60291C16.6944 9.6 16.7928 9.59419 16.892 9.59056C16.9021 9.57457 16.9021 9.57456 16.9021 9.54258C16.892 9.53167 16.892 9.53168 16.5786 9.44154C16.5786 9.42846 16.58 9.41829 16.5844 9.40884C16.7798 9.38194 16.9021 9.37103 17.0932 9.42555C17.0932 9.435 17.0954 9.44299 17.0968 9.45317C17.1091 9.46116 17.1178 9.46771 17.1338 9.47425C17.1338 9.5135 17.0968 9.52731 17.0968 9.57238C17.2655 9.6676 17.4291 9.74174 17.6195 9.67269C17.77 9.68214 17.77 9.68214 17.7881 9.69087C17.7932 9.74393 17.7961 9.79699 17.8019 9.8515C17.7794 9.85804 17.7592 9.86604 17.7382 9.87185C17.7186 9.83115 17.6969 9.79189 17.6788 9.75555ZM17.8873 9.41246C17.8308 9.46044 17.7664 9.49751 17.7367 9.56366C17.6962 9.54331 17.6781 9.49751 17.6441 9.46407C17.7208 9.41828 17.7954 9.41246 17.8873 9.41246ZM17.6571 9.28599C17.7063 9.27799 17.7563 9.27145 17.8062 9.26854C17.7954 9.28599 17.7925 9.31071 17.7686 9.31798C17.7309 9.30853 17.6926 9.29762 17.6571 9.28599ZM17.8873 10.0121V10.0194C17.8135 10.0289 17.8134 10.0289 17.7686 10.0434C17.7563 10.0281 17.7563 10.0281 17.7548 10.0129H17.8873V10.0121ZM17.8496 10.167C17.8388 10.1793 17.8301 10.1939 17.82 10.2062C17.8091 10.1684 17.7794 10.1684 17.7505 10.1466C17.8142 10.1466 18.0031 10.1212 17.8496 10.167ZM17.9379 9.83479C17.9379 9.78391 17.8844 9.73156 17.8511 9.6974C17.9155 9.69522 17.9155 9.69522 17.9828 9.70394C18.006 9.73665 17.9944 9.77446 17.9843 9.81443C17.9712 9.82025 17.9546 9.82679 17.9379 9.83479ZM18.3621 10.3189C18.3585 10.3131 18.3527 10.3094 18.3476 10.308C18.3556 10.308 18.3636 10.3094 18.373 10.3123C18.3679 10.3131 18.3628 10.3167 18.3621 10.3189ZM18.428 10.9367C18.4128 10.9251 18.4128 10.9251 18.3708 10.9171C18.3708 10.8066 19.1547 10.2556 19.2561 10.1757C19.1504 10.1699 19.128 10.1662 19.0621 10.0856C19.1439 10.0703 19.3552 10.0434 19.4059 10.0681C19.5818 9.94891 19.5818 9.9489 19.6064 9.92492C19.5044 9.8624 19.4016 9.79989 19.3002 9.74029C19.3755 9.6378 19.12 9.6378 19.0527 9.59346C18.9644 9.44591 18.9622 9.50114 18.8022 9.58473C18.6676 9.4866 18.572 9.46844 18.3983 9.45681C18.3947 9.46117 18.3918 9.46189 18.3875 9.46771C18.3064 9.3972 18.2782 9.44154 18.2007 9.50696C18.2007 9.58256 18.2383 9.59419 18.2912 9.64507C18.2912 9.67705 18.2651 9.69522 18.2449 9.7192C18.2311 9.70612 18.2166 9.69232 18.2036 9.68142C18.2007 10.0768 18.1935 10.4781 18.1935 10.8793H18.1254C18.1254 10.7354 18.1211 10.5973 18.1196 10.4541C18.1044 10.4715 18.0979 10.4723 18.0777 10.4781C18.0444 10.4425 18.0111 10.4061 17.9799 10.372C17.9821 10.3574 17.9821 10.3574 18.0067 10.3436C18.0118 10.356 18.0197 10.3676 18.0277 10.3814C18.0581 10.3858 18.0885 10.3908 18.1196 10.3967C18.129 10.2796 18.129 10.2796 18.129 9.52731C18.0994 9.5106 18.0813 9.48661 18.053 9.47789C18.0349 9.49534 18.0161 9.51423 17.9901 9.51423C17.9618 9.47788 17.9351 9.44154 17.9104 9.40229C17.9611 9.39793 18.0096 9.39502 18.0581 9.3892C18.069 9.37321 18.069 9.37321 18.069 9.34196C18.0581 9.33178 18.0581 9.33179 17.9351 9.29762C18.0009 9.29326 18.0675 9.28672 18.1341 9.28672C18.1341 9.14425 18.1377 9.00614 18.1377 8.86658C17.4928 8.83169 17.4928 8.83169 17.4486 8.82152C17.3133 8.72048 17.3133 8.72048 17.2836 8.70957C17.1424 8.7481 16.8565 8.79026 17.1251 8.87603C17.0758 8.90002 17.0273 8.92691 16.9803 8.95235C16.9803 9.03158 17.086 9.02867 17.1504 9.04757V9.06066C17.0628 9.09627 17.2047 9.15442 17.2235 9.15878C17.2235 9.17477 17.2257 9.19004 17.2278 9.20603C17.0881 9.2133 16.9513 9.21985 16.8131 9.22857C16.8131 9.2133 16.8131 9.1973 16.8153 9.18349C16.7943 9.16096 16.7552 9.16678 16.7269 9.16097V9.13043C16.6929 9.09554 16.6459 9.13043 16.6097 9.14279C16.5149 9.04757 16.3679 9.20603 16.3455 9.30489C16.2716 9.29835 16.1964 9.2918 16.1233 9.28599C16.1052 9.26854 16.1131 9.24601 16.0986 9.22784C15.9959 9.22784 15.8793 9.26564 15.7801 9.28599C15.7946 9.27363 15.8113 9.262 15.8272 9.2511V9.2133C15.8192 9.20603 15.8091 9.19949 15.8004 9.19513C15.5217 9.2918 15.5217 9.2918 15.5073 9.28889C15.7208 9.04757 16.0827 9.03158 16.3317 8.8484V8.81788C16.3209 8.80843 16.31 8.79898 16.2999 8.79317C17.3017 8.39193 18.4642 8.71321 19.4638 8.8753C19.9227 9.06792 20.3824 9.26491 20.8391 9.45971C20.8391 9.63126 20.837 9.65597 20.719 9.77373C20.719 9.85223 20.8334 9.8595 20.8449 9.954C20.8594 9.9569 20.8775 9.96489 20.8949 9.97143C20.9065 10.0427 20.9202 10.1183 20.934 10.191C20.7798 10.2382 20.331 10.4294 20.1869 10.4039C20.0248 10.0761 20.0328 10.1175 19.6788 10.0645C19.6752 10.0361 19.6723 10.0071 19.6723 9.97798C19.2373 10.2796 18.829 10.5936 18.428 10.9367ZM18.3932 9.81153C18.4063 9.81371 18.4265 9.81589 18.4432 9.82025C18.4468 9.83115 18.4541 9.84278 18.4598 9.85586C18.441 9.85731 18.4236 9.86023 18.4056 9.86604C18.4012 9.84642 18.3969 9.82897 18.3932 9.81153ZM19.1077 9.87912C19.0939 9.88711 19.0845 9.89512 19.0722 9.90529V9.93727C19.0845 9.94599 19.0939 9.95545 19.1077 9.96635C19.0845 9.97871 19.0845 9.97871 19.0462 9.98161C19.0179 9.91401 18.9108 9.92419 18.8471 9.91547C18.8391 9.87476 18.8391 9.83769 18.8138 9.80644C18.7726 9.80644 18.7487 9.83696 18.7161 9.8624C18.7002 9.74974 18.7067 9.7432 18.6227 9.68578C18.6227 9.67923 18.6227 9.67196 18.6256 9.66542C18.6451 9.6567 18.6632 9.64797 18.685 9.63998C18.8406 9.73084 18.9803 9.6945 19.1439 9.74102C19.1547 9.76065 19.1605 9.78318 19.1736 9.80498C19.1258 9.7919 19.0411 9.75556 19.0006 9.78609C18.9991 9.7999 18.9977 9.81443 18.9977 9.82751C19.0324 9.84496 19.0708 9.8624 19.1077 9.87912ZM18.8406 10.2026C18.8283 10.2026 18.8174 10.2055 18.808 10.2062C18.7979 10.1946 18.7899 10.1844 18.7805 10.1757C18.7979 10.1793 18.8174 10.1844 18.8348 10.188C18.8362 10.1939 18.8391 10.1975 18.8406 10.2026ZM18.6408 10.0994C18.6372 10.1139 18.6372 10.127 18.6372 10.1386H18.6227C18.6184 10.1314 18.6133 10.1248 18.609 10.119C18.6162 10.1052 18.6271 10.0928 18.6408 10.0994ZM18.0436 10.01C18.0545 10.0085 18.0675 10.0063 18.082 10.0063C18.082 10.0129 18.082 10.0194 18.0849 10.0281C18.0805 10.0289 18.074 10.0325 18.074 10.0325C18.0617 10.0259 18.0516 10.0165 18.0436 10.01ZM21.3531 9.13698C20.394 8.68995 19.3321 8.42899 18.2145 8.40355C18.2108 8.46098 18.2079 8.51768 18.2065 8.57365C19.2155 8.63035 20.1233 8.81133 21.0664 9.1944C21.1591 9.17404 21.2568 9.15515 21.3531 9.13698ZM15.5427 10.7238C15.5529 10.6896 15.5652 10.6525 15.576 10.6169C15.6238 10.5973 15.7049 10.5806 15.6636 10.5151C15.6354 10.5093 15.6086 10.5086 15.584 10.5072C15.563 10.4694 15.542 10.4323 15.5225 10.3967C15.542 10.3654 15.584 10.3647 15.6108 10.3356C15.6093 10.3225 15.6093 10.3131 15.6093 10.3022C15.5934 10.2905 15.5811 10.2804 15.5666 10.2716C15.5869 10.2346 15.5934 10.199 15.5963 10.159C15.5435 10.1372 15.4957 10.1146 15.4457 10.0943C15.4457 9.98016 15.2756 10.0238 15.2756 9.97652C15.534 9.85513 16.0313 9.75047 16.2731 9.9569C16.2543 10.0092 16.2449 10.0383 16.2449 10.0914C16.2644 10.0979 16.3752 10.0914 16.3831 10.0979C16.3715 10.1161 16.3802 10.1299 16.3831 10.1488C16.4591 10.1764 16.5793 10.1888 16.6386 10.1299C16.6495 10.1328 16.6495 10.1328 16.7002 10.1989C16.9644 10.2869 16.9644 10.2869 16.9781 10.2833C16.2275 9.78244 15.2626 9.25618 14.3252 9.33396C13.5022 9.7759 12.7675 10.3574 12.1486 11.0465C12.192 11.0283 12.2543 11.0014 12.3411 10.9644C13.369 10.6329 14.4772 10.6787 15.5427 10.7238ZM15.0245 9.38266C15.0158 9.3863 15.0071 9.39066 14.9991 9.39502C15.015 9.38121 15.015 9.38121 15.0245 9.38266Z" fill="white"/>
</svg>
