<svg  viewBox="0 0 15 8"  xmlns="http://www.w3.org/2000/svg">
<path d="M12.9919 4.54405C13.458 4.94874 13.9522 5.32781 14.371 5.77177C14.5554 5.96729 14.731 6.17305 14.8652 6.401C15.0553 6.72629 14.8845 7.08487 14.5544 7.10451L12.5016 7.10365C11.9727 7.14293 11.5509 6.95424 11.1948 6.63408C10.911 6.37795 10.6475 6.10645 10.3744 5.84093C10.2624 5.73421 10.1457 5.6309 10.0057 5.5515C9.72582 5.39099 9.4826 5.43966 9.32239 5.6992C9.15928 5.96131 9.1226 6.25159 9.1062 6.54529C9.084 6.97217 8.93826 7.08487 8.4528 7.10365C7.41624 7.14805 6.43179 7.00888 5.51781 6.54614C4.71191 6.13804 4.0865 5.56175 3.54216 4.90947C2.48244 3.64077 1.67172 2.24571 0.942076 0.811377C0.778003 0.488652 0.898645 0.313629 1.30111 0.308507C1.97092 0.296554 2.63976 0.298262 3.30957 0.308507C3.5827 0.310214 3.76222 0.448525 3.86742 0.676481C4.22934 1.46366 4.67234 2.21326 5.22826 2.90738C5.37593 3.09265 5.52746 3.27791 5.74268 3.40769C5.98011 3.55197 6.16155 3.50331 6.27351 3.27023C6.34493 3.12082 6.37582 2.96117 6.39222 2.80151C6.44531 2.25339 6.45206 1.70613 6.35941 1.16142C6.3015 0.820768 6.08434 0.599642 5.70022 0.534756C5.50429 0.503166 5.53421 0.437426 5.6288 0.338389C5.79384 0.168489 5.94826 0.0617676 6.25807 0.0617676H8.57634C8.94116 0.124946 9.02223 0.270087 9.07242 0.595373L9.07435 2.87323C9.07049 2.99959 9.14577 3.37268 9.40153 3.45635C9.60711 3.51526 9.74222 3.37012 9.8648 3.25572C10.4188 2.73406 10.8145 2.1185 11.1697 1.48073C11.327 1.19984 11.4621 0.90956 11.5924 0.617571C11.6899 0.402421 11.8424 0.2957 12.1165 0.299969L14.3488 0.301677C14.4145 0.301677 14.482 0.30253 14.5457 0.312776C14.9221 0.368271 15.0244 0.511704 14.9086 0.83699C14.7262 1.34754 14.3701 1.77187 14.0217 2.1979C13.6491 2.65296 13.2515 3.0935 12.8818 3.55197C12.544 3.97032 12.5701 4.1812 12.9919 4.54405Z" />
</svg>
