<svg width="1076" height="446" viewBox="0 0 1076 446" fill="none" xmlns="http://www.w3.org/2000/svg">
<path d="M802.058 307.421C800.579 308.32 798.502 308.962 797.41 308.89C796.315 308.812 796.63 308.017 798.117 307.08C799.603 306.139 801.697 305.446 802.783 305.559C803.867 305.673 803.536 306.52 802.058 307.421Z" fill="#F2F2F2"/>
<path d="M817.833 310.772C815.768 311.824 812.953 312.355 811.53 312C810.107 311.645 810.633 310.475 812.712 309.346C814.797 308.216 817.637 307.62 819.043 308.05C820.45 308.481 819.9 309.719 817.833 310.772Z" fill="#F2F2F2"/>
<path d="M832.425 316.284C829.787 317.368 826.257 317.687 824.519 317.032C822.782 316.379 823.515 314.904 826.173 313.699C828.831 312.493 832.392 312.111 834.11 312.889C835.824 313.667 835.061 315.201 832.425 316.284Z" fill="#F2F2F2"/>
<path d="M846.495 322.751C843.306 323.741 839.024 323.825 836.936 322.946C834.845 322.063 835.761 320.415 838.979 319.244C842.198 318.07 846.482 317.965 848.544 319.028C850.604 320.087 849.686 321.76 846.495 322.751Z" fill="#F2F2F2"/>
<path d="M860.721 328.956C856.995 329.733 851.897 329.634 849.364 328.696C846.831 327.755 847.855 326.13 851.621 325.1C855.387 324.067 860.441 324.224 862.934 325.416C865.427 326.608 864.448 328.178 860.721 328.956Z" fill="#F2F2F2"/>
<path d="M875.753 333.673C871.513 334.111 865.478 333.981 862.365 333.242C859.253 332.502 860.277 331.161 864.571 330.381C868.867 329.599 874.77 329.947 877.827 331.026C880.887 332.108 879.995 333.232 875.753 333.673Z" fill="#F2F2F2"/>
<path d="M892.251 335.693C887.52 335.657 880.398 335.713 876.513 335.525C872.63 335.336 873.512 334.624 878.318 334.21C883.123 333.797 889.983 334.192 893.792 334.831C897.601 335.47 896.982 335.727 892.251 335.693Z" fill="#F2F2F2"/>
<path d="M893.341 335.702C898.635 335.778 906.594 336.021 911.39 335.798C916.181 335.572 916.075 334.463 910.888 333.8C905.702 333.137 897.297 333.668 892.401 334.477C887.503 335.288 888.048 335.621 893.341 335.702Z" fill="#F2F2F2"/>
<path d="M823.373 294.479C821.913 295.361 819.882 295.875 818.82 295.647C817.756 295.417 818.072 294.502 819.536 293.583C820.999 292.664 823.054 292.115 824.111 292.381C825.166 292.646 824.828 293.595 823.373 294.479Z" fill="#F2F2F2"/>
<path d="M838.744 300.092C836.697 301.139 833.926 301.502 832.542 300.937C831.158 300.372 831.694 299.044 833.751 297.926C835.813 296.809 838.607 296.388 839.982 297.023C841.355 297.658 840.792 299.044 838.744 300.092Z" fill="#F2F2F2"/>
<path d="M853.001 307.761C850.371 308.859 846.877 308.978 845.183 308.065C843.487 307.149 844.245 305.454 846.888 304.243C849.533 303.028 853.051 302.849 854.732 303.877C856.412 304.903 855.633 306.658 853.001 307.761Z" fill="#F2F2F2"/>
<path d="M866.777 316.291C863.579 317.337 859.331 317.206 857.29 316.015C855.248 314.821 856.197 312.891 859.418 311.683C862.639 310.474 866.892 310.58 868.915 311.938C870.936 313.293 869.977 315.248 866.777 316.291Z" fill="#F2F2F2"/>
<path d="M880.726 324.53C876.966 325.407 871.89 325.089 869.412 323.782C866.935 322.475 868.017 320.49 871.802 319.383C875.589 318.275 880.624 318.651 883.076 320.188C885.53 321.725 884.488 323.653 880.726 324.53Z" fill="#F2F2F2"/>
<path d="M895.472 331.286C891.165 331.881 885.14 331.522 882.092 330.35C879.045 329.182 880.156 327.402 884.496 326.495C888.837 325.588 894.745 326.146 897.758 327.625C900.769 329.106 899.779 330.688 895.472 331.286Z" fill="#F2F2F2"/>
<path d="M911.669 335.391C906.834 335.583 899.711 335.388 895.911 334.699C892.109 334.007 893.106 332.764 897.989 332.163C902.872 331.563 909.769 332.165 913.519 333.264C917.276 334.359 916.504 335.2 911.669 335.391Z" fill="#F2F2F2"/>
<path d="M912.744 335.53C918.154 335.352 926.182 335.793 930.899 336.102C935.616 336.41 935.299 336.025 929.962 335.671C924.623 335.313 916.211 335.575 911.423 335.801C906.628 336.023 907.33 335.708 912.744 335.53Z" fill="#F2F2F2"/>
<path d="M844.371 281.839C842.937 282.699 840.939 283.077 839.898 282.71C838.856 282.339 839.169 281.336 840.607 280.442C842.044 279.55 844.057 279.138 845.097 279.539C846.134 279.939 845.804 280.979 844.371 281.839Z" fill="#F2F2F2"/>
<path d="M859.482 289.495C857.453 290.533 854.719 290.738 853.36 289.985C852.001 289.231 852.536 287.753 854.57 286.656C856.603 285.555 859.362 285.297 860.717 286.114C862.071 286.928 861.51 288.456 859.482 289.495Z" fill="#F2F2F2"/>
<path d="M873.541 299.087C870.918 300.206 867.447 300.152 865.781 299C864.112 297.849 864.88 295.963 867.508 294.746C870.136 293.528 873.629 293.519 875.292 294.77C876.955 296.019 876.166 297.97 873.541 299.087Z" fill="#F2F2F2"/>
<path d="M887.156 309.473C883.938 310.579 879.701 310.268 877.687 308.793C875.673 307.319 876.648 305.125 879.872 303.873C883.094 302.625 887.34 302.913 889.349 304.533C891.357 306.152 890.37 308.37 887.156 309.473Z" fill="#F2F2F2"/>
<path d="M900.962 319.53C897.151 320.525 892.067 320.031 889.625 318.39C887.179 316.75 888.304 314.426 892.123 313.23C895.938 312.035 900.992 312.575 903.429 314.419C905.871 316.26 904.773 318.534 900.962 319.53Z" fill="#F2F2F2"/>
<path d="M915.576 328.11C911.178 328.896 905.125 328.354 902.118 326.793C899.113 325.235 900.297 323.025 904.706 321.97C909.114 320.913 915.071 321.625 918.068 323.455C921.065 325.286 919.976 327.326 915.576 328.11Z" fill="#F2F2F2"/>
<path d="M931.61 334.08C926.634 334.543 919.457 334.177 915.71 333.03C911.962 331.884 913.075 330.107 918.073 329.287C923.066 328.463 930.047 329.183 933.777 330.69C937.508 332.195 936.59 333.616 931.61 334.08Z" fill="#F2F2F2"/>
<path d="M932.668 334.33C938.243 333.839 946.397 334.377 951.083 335.16C955.768 335.941 955.232 336.29 949.69 336.304C944.151 336.32 935.663 336.41 930.944 336.099C926.225 335.789 927.093 334.818 932.668 334.33Z" fill="#F2F2F2"/>
<path d="M864.973 269.567C863.567 270.398 861.6 270.657 860.569 270.166C859.537 269.673 859.836 268.592 861.243 267.735C862.647 266.88 864.626 266.583 865.658 267.104C866.687 267.621 866.376 268.738 864.973 269.567Z" fill="#F2F2F2"/>
<path d="M879.995 279.006C877.992 280.03 875.28 280.095 873.93 279.177C872.579 278.26 873.1 276.663 875.105 275.586C877.113 274.507 879.844 274.394 881.197 275.367C882.547 276.335 882.001 277.978 879.995 279.006Z" fill="#F2F2F2"/>
<path d="M894.031 290.261C891.412 291.401 887.953 291.198 886.291 289.847C884.627 288.489 885.391 286.426 888.005 285.208C890.618 283.984 894.099 284.136 895.768 285.578C897.432 287.013 896.649 289.123 894.031 290.261Z" fill="#F2F2F2"/>
<path d="M907.663 302.238C904.423 303.412 900.171 302.961 898.162 301.242C896.152 299.524 897.142 297.092 900.373 295.798C903.603 294.504 907.865 294.934 909.887 296.774C911.902 298.613 910.906 301.063 907.663 302.238Z" fill="#F2F2F2"/>
<path d="M921.502 313.848C917.627 314.978 912.499 314.353 910.058 312.424C907.62 310.494 908.782 307.855 912.639 306.558C916.5 305.259 921.608 305.926 924.065 308.021C926.521 310.116 925.38 312.717 921.502 313.848Z" fill="#F2F2F2"/>
<path d="M936.154 323.983C931.641 324.988 925.508 324.339 922.508 322.441C919.511 320.541 920.769 317.929 925.26 316.699C929.756 315.469 935.808 316.266 938.827 318.391C941.847 320.514 940.671 322.979 936.154 323.983Z" fill="#F2F2F2"/>
<path d="M952.202 331.556C947.043 332.339 939.754 331.884 936.022 330.339C932.292 328.791 933.52 326.502 938.656 325.422C943.792 324.336 950.919 325.099 954.671 326.945C958.427 328.791 957.358 330.773 952.202 331.556Z" fill="#F2F2F2"/>
<path d="M953.259 331.913C959.04 331.06 967.4 331.589 972.101 332.772C976.804 333.952 976.045 335.016 970.246 335.469C964.452 335.924 955.815 335.936 951.133 335.153C946.446 334.368 947.48 332.764 953.259 331.913Z" fill="#F2F2F2"/>
<path d="M885.126 257.763C883.751 258.558 881.811 258.708 880.779 258.113C879.743 257.514 880.01 256.384 881.382 255.561C882.751 254.744 884.707 254.564 885.743 255.184C886.78 255.803 886.498 256.966 885.126 257.763Z" fill="#F2F2F2"/>
<path d="M900.27 268.672C898.291 269.681 895.586 269.622 894.225 268.566C892.863 267.511 893.357 265.826 895.331 264.776C897.305 263.725 900.02 263.738 901.391 264.836C902.761 265.934 902.248 267.666 900.27 268.672Z" fill="#F2F2F2"/>
<path d="M914.488 281.289C911.872 282.448 908.396 282.123 906.715 280.603C905.034 279.076 905.772 276.873 908.371 275.65C910.971 274.423 914.465 274.7 916.165 276.289C917.861 277.873 917.105 280.129 914.488 281.289Z" fill="#F2F2F2"/>
<path d="M928.347 294.538C925.074 295.79 920.774 295.237 918.74 293.316C916.705 291.394 917.683 288.763 920.928 287.421C924.174 286.077 928.481 286.605 930.544 288.616C932.606 290.628 931.623 293.285 928.347 294.538Z" fill="#F2F2F2"/>
<path d="M942.434 307.392C938.477 308.676 933.265 307.98 930.794 305.812C928.323 303.644 929.504 300.73 933.417 299.316C937.332 297.903 942.53 298.631 945.043 300.923C947.559 303.22 946.391 306.104 942.434 307.392Z" fill="#F2F2F2"/>
<path d="M957.325 318.774C952.668 320.029 946.4 319.346 943.371 317.164C940.342 314.986 941.649 311.996 946.25 310.57C950.851 309.14 957.054 309.951 960.141 312.306C963.229 314.653 961.98 317.517 957.325 318.774Z" fill="#F2F2F2"/>
<path d="M973.583 327.641C968.209 328.79 960.739 328.334 956.98 326.455C953.222 324.577 954.547 321.792 959.856 320.41C965.161 319.028 972.506 319.746 976.334 321.859C980.162 323.968 978.96 326.49 973.583 327.641Z" fill="#F2F2F2"/>
<path d="M974.659 328.081C980.684 326.81 989.333 327.215 994.112 328.708C998.886 330.198 997.908 331.965 991.808 332.922C985.706 333.879 976.837 333.943 972.135 332.764C967.433 331.581 968.634 329.348 974.659 328.081Z" fill="#F2F2F2"/>
<path d="M904.786 246.504C903.449 247.26 901.52 247.308 900.467 246.633C899.413 245.954 899.635 244.794 900.967 244.024C902.295 243.253 904.235 243.172 905.296 243.865C906.355 244.557 906.122 245.748 904.786 246.504Z" fill="#F2F2F2"/>
<path d="M920.296 258.529C918.341 259.513 915.63 259.348 914.238 258.19C912.845 257.026 913.286 255.288 915.227 254.274C917.166 253.255 919.889 253.376 921.299 254.568C922.708 255.755 922.251 257.538 920.296 258.529Z" fill="#F2F2F2"/>
<path d="M934.941 272.138C932.325 273.317 928.815 272.91 927.088 271.262C925.362 269.607 926.053 267.304 928.639 266.079C931.224 264.855 934.748 265.215 936.509 266.912C938.264 268.603 937.56 270.955 934.941 272.138Z" fill="#F2F2F2"/>
<path d="M949.269 286.316C945.954 287.653 941.575 287.051 939.483 284.981C937.387 282.911 938.329 280.105 941.596 278.707C944.859 277.307 949.249 277.891 951.397 280.024C953.542 282.152 952.585 284.976 949.269 286.316Z" fill="#F2F2F2"/>
<path d="M963.846 300.057C959.792 301.514 954.444 300.805 951.903 298.465C949.362 296.119 950.538 292.965 954.517 291.423C958.497 289.881 963.835 290.603 966.45 293.029C969.065 295.455 967.9 298.597 963.846 300.057Z" fill="#F2F2F2"/>
<path d="M979.224 312.334C974.396 313.87 967.943 313.226 964.832 310.838C961.726 308.446 963.062 305.113 967.792 303.465C972.52 301.814 978.931 302.557 982.138 305.06C985.343 307.561 984.05 310.794 979.224 312.334Z" fill="#F2F2F2"/>
<path d="M995.95 322.134C990.317 323.697 982.597 323.349 978.757 321.216C974.92 319.083 976.327 315.838 981.839 314.122C987.347 312.402 994.976 312.97 998.937 315.256C1002.9 317.544 1001.58 320.567 995.95 322.134Z" fill="#F2F2F2"/>
<path d="M997.038 322.637C1003.36 320.895 1012.38 321.058 1017.3 322.767C1022.22 324.474 1021.04 326.913 1014.57 328.438C1008.11 329.963 998.927 330.194 994.149 328.699C989.374 327.205 990.72 324.373 997.038 322.637Z" fill="#F2F2F2"/>
<path d="M924.025 235.836C922.697 236.556 920.73 236.536 919.623 235.807C918.514 235.078 918.66 233.918 919.946 233.2C921.228 232.481 923.202 232.474 924.351 233.203C925.5 233.93 925.35 235.116 924.025 235.836Z" fill="#F2F2F2"/>
<path d="M940.694 248.424C938.543 249.45 935.6 249.274 934.134 248.05C932.668 246.824 933.164 245.016 935.227 243.993C937.295 242.968 940.223 243.113 941.776 244.335C943.329 245.557 942.846 247.394 940.694 248.424Z" fill="#F2F2F2"/>
<path d="M956.553 262.482C953.41 263.836 949.361 263.526 947.551 261.799C945.734 260.068 946.716 257.587 949.708 256.242C952.701 254.896 956.692 255.19 958.658 256.912C960.62 258.629 959.698 261.127 956.553 262.482Z" fill="#F2F2F2"/>
<path d="M972.152 277.038C967.856 278.738 962.623 278.345 960.429 276.184C958.236 274.017 959.731 270.917 963.798 269.235C967.867 267.551 973.053 267.943 975.474 270.091C977.892 272.234 976.451 275.334 972.152 277.038Z" fill="#F2F2F2"/>
<path d="M988.005 291.112C982.386 293.179 976.122 292.749 973.464 290.297C970.802 287.843 972.568 284.299 977.86 282.261C983.154 280.221 989.697 280.595 992.657 283.027C995.619 285.455 993.625 289.039 988.005 291.112Z" fill="#F2F2F2"/>
<path d="M1004.66 303.728C997.56 306.178 990.226 305.857 986.987 303.331C983.745 300.806 985.625 297.021 992.286 294.609C998.949 292.196 1007.04 292.395 1010.67 294.895C1014.29 297.393 1011.76 301.276 1004.66 303.728Z" fill="#F2F2F2"/>
<path d="M1022.64 313.91C1013.9 316.745 1005.44 316.734 1001.46 314.435C997.476 312.133 999.299 308.367 1007.48 305.572C1015.66 302.776 1025.5 302.588 1029.96 304.871C1034.42 307.155 1031.38 311.071 1022.64 313.91Z" fill="#F2F2F2"/>
<path d="M1023.81 314.437C1033.65 311.255 1045.47 310.426 1050.96 312.137C1056.45 313.853 1053.01 317.475 1042.48 320.685C1031.95 323.899 1022.27 324.458 1017.35 322.751C1012.43 321.042 1013.97 317.616 1023.81 314.437Z" fill="#F2F2F2"/>
<path d="M942.891 225.818C941.618 226.479 939.566 226.416 938.301 225.69C937.034 224.964 937.009 223.852 938.248 223.194C939.483 222.536 941.54 222.576 942.842 223.303C944.141 224.026 944.163 225.16 942.891 225.818Z" fill="#F2F2F2"/>
<path d="M962.009 238.284C959.97 239.25 956.927 239.038 955.228 237.824C953.525 236.611 953.75 234.864 955.714 233.908C957.679 232.95 960.705 233.142 962.482 234.348C964.256 235.552 964.044 237.316 962.009 238.284Z" fill="#F2F2F2"/>
<path d="M980.385 252.097C977.434 253.396 973.281 253.067 971.156 251.368C969.027 249.664 969.617 247.249 972.439 245.973C975.261 244.695 979.353 245.017 981.612 246.701C983.867 248.379 983.34 250.798 980.385 252.097Z" fill="#F2F2F2"/>
<path d="M998.53 266.332C994.518 267.992 989.097 267.649 986.515 265.524C983.932 263.4 984.995 260.334 988.802 258.705C992.611 257.08 997.887 257.479 1000.67 259.569C1003.45 261.654 1002.54 264.668 998.53 266.332Z" fill="#F2F2F2"/>
<path d="M1016.96 280.054C1011.75 282.113 1004.85 281.901 1001.74 279.49C998.631 277.08 1000.25 273.435 1005.17 271.43C1010.1 269.424 1016.71 269.777 1020.1 272.134C1023.5 274.491 1022.18 277.995 1016.96 280.054Z" fill="#F2F2F2"/>
<path d="M1036.19 292.321C1029.63 294.8 1021.02 294.938 1017.27 292.454C1013.53 289.971 1015.75 285.861 1021.92 283.453C1028.09 281.044 1036.2 281.191 1040.32 283.603C1044.44 286.016 1042.74 289.841 1036.19 292.321Z" fill="#F2F2F2"/>
<path d="M1056.72 302.198C1048.68 305.113 1038.08 305.883 1033.56 303.608C1029.05 301.331 1031.88 296.945 1039.43 294.108C1046.97 291.272 1056.77 290.997 1061.78 293.192C1066.8 295.386 1064.75 299.28 1056.72 302.198Z" fill="#F2F2F2"/>
<path d="M1058.04 302.705C1067.08 299.431 1078.79 298.478 1084.88 300.11C1090.97 301.741 1088.7 305.392 1079.06 308.745C1069.42 312.097 1056.52 313.823 1051.03 312.108C1045.55 310.398 1049.01 305.977 1058.04 302.705Z" fill="#F2F2F2"/>
<path d="M960.941 216.679C959.728 217.276 957.608 217.174 956.208 216.459C954.803 215.745 954.627 214.692 955.81 214.103C956.992 213.508 959.113 213.593 960.547 214.304C961.977 215.012 962.154 216.079 960.941 216.679Z" fill="#F2F2F2"/>
<path d="M982.183 228.831C980.258 229.723 977.139 229.481 975.236 228.3C973.331 227.117 973.31 225.456 975.169 224.577C977.032 223.7 980.13 223.93 982.098 225.099C984.069 226.268 984.107 227.938 982.183 228.831Z" fill="#F2F2F2"/>
<path d="M1002.75 242.226C999.981 243.449 995.758 243.108 993.357 241.459C990.954 239.803 991.194 237.493 993.848 236.299C996.499 235.107 1000.66 235.456 1003.18 237.081C1005.69 238.7 1005.52 241.001 1002.75 242.226Z" fill="#F2F2F2"/>
<path d="M1023.12 255.963C1019.39 257.56 1013.91 257.23 1010.99 255.17C1008.06 253.116 1008.64 250.163 1012.2 248.614C1015.76 247.066 1021.09 247.471 1024.2 249.475C1027.3 251.483 1026.86 254.366 1023.12 255.963Z" fill="#F2F2F2"/>
<path d="M1043.81 269.153C1038.98 271.164 1032.06 270.991 1028.54 268.666C1025.02 266.341 1026.01 262.805 1030.59 260.867C1035.16 258.926 1041.8 259.261 1045.57 261.513C1049.34 263.764 1048.63 267.139 1043.81 269.153Z" fill="#F2F2F2"/>
<path d="M1065.28 280.884C1059.24 283.349 1050.66 283.567 1046.44 281.177C1042.22 278.786 1043.66 274.778 1049.37 272.412C1055.08 270.046 1063.17 270.145 1067.73 272.437C1072.28 274.73 1071.33 278.425 1065.28 280.884Z" fill="#F2F2F2"/>
<path d="M1088.03 290.28C1080.65 293.217 1070.16 294.094 1065.09 291.913C1060.03 289.728 1061.92 285.414 1068.88 282.591C1075.83 279.773 1085.56 279.419 1091.06 281.486C1096.55 283.552 1095.4 287.343 1088.03 290.28Z" fill="#F2F2F2"/>
<path d="M978.104 208.508C976.953 209.034 974.785 208.893 973.264 208.204C971.743 207.513 971.425 206.541 972.554 206.022C973.678 205.5 975.841 205.623 977.388 206.308C978.935 206.989 979.257 207.982 978.104 208.508Z" fill="#F2F2F2"/>
<path d="M1001.19 220.198C999.376 221.004 996.203 220.732 994.123 219.593C992.043 218.454 991.789 216.898 993.547 216.111C995.303 215.325 998.451 215.594 1000.59 216.715C1002.73 217.835 1003 219.393 1001.19 220.198Z" fill="#F2F2F2"/>
<path d="M1023.66 233.012C1021.08 234.141 1016.81 233.786 1014.17 232.202C1011.53 230.616 1011.44 228.441 1013.92 227.348C1016.41 226.255 1020.62 226.629 1023.36 228.178C1026.09 229.721 1026.25 231.879 1023.66 233.012Z" fill="#F2F2F2"/>
<path d="M1045.99 246.095C1042.52 247.6 1037.01 247.274 1033.79 245.312C1030.56 243.347 1030.7 240.545 1034.02 239.101C1037.33 237.657 1042.7 238.069 1046.08 239.969C1049.46 241.87 1049.46 244.59 1045.99 246.095Z" fill="#F2F2F2"/>
<path d="M1068.64 258.592C1064.17 260.522 1057.26 260.39 1053.38 258.179C1049.5 255.967 1049.92 252.592 1054.17 250.752C1058.41 248.913 1065.05 249.228 1069.16 251.352C1073.26 253.472 1073.11 256.66 1068.64 258.592Z" fill="#F2F2F2"/>
<path d="M1092.08 269.644C1086.51 272.044 1077.99 272.322 1073.34 270.06C1068.7 267.797 1069.43 263.947 1074.71 261.668C1079.99 259.389 1088.05 259.448 1092.99 261.591C1097.93 263.735 1097.65 267.243 1092.08 269.644Z" fill="#F2F2F2"/>
<path d="M994.361 201.403C993.272 201.852 991.074 201.674 989.451 201.015C987.827 200.357 987.376 199.469 988.442 199.029C989.503 198.588 991.695 198.751 993.346 199.401C994.99 200.052 995.446 200.954 994.361 201.403Z" fill="#F2F2F2"/>
<path d="M1019.06 212.496C1017.36 213.203 1014.16 212.901 1011.92 211.821C1009.68 210.739 1009.22 209.309 1010.87 208.624C1012.52 207.941 1015.7 208.243 1017.99 209.3C1020.27 210.358 1020.75 211.787 1019.06 212.496Z" fill="#F2F2F2"/>
<path d="M1043.2 224.595C1040.79 225.614 1036.49 225.242 1033.65 223.745C1030.79 222.245 1030.4 220.226 1032.73 219.252C1035.04 218.277 1039.28 218.682 1042.22 220.135C1045.15 221.592 1045.61 223.577 1043.2 224.595Z" fill="#F2F2F2"/>
<path d="M1067.22 236.885C1064 238.276 1058.49 237.951 1055 236.105C1051.51 234.253 1051.25 231.641 1054.33 230.325C1057.42 229.012 1062.79 229.435 1066.42 231.214C1070.04 232.99 1070.44 235.497 1067.22 236.885Z" fill="#F2F2F2"/>
<path d="M1091.61 248.559C1087.48 250.371 1080.59 250.268 1076.39 248.193C1072.19 246.119 1072.1 242.952 1076.03 241.244C1079.96 239.535 1086.59 239.85 1090.99 241.819C1095.39 243.789 1095.73 246.744 1091.61 248.559Z" fill="#F2F2F2"/>
<path d="M1009.64 195.461C1008.62 195.829 1006.41 195.621 1004.69 195.001C1002.98 194.379 1002.41 193.593 1003.4 193.238C1004.4 192.881 1006.61 193.083 1008.34 193.693C1010.08 194.3 1010.66 195.097 1009.64 195.461Z" fill="#F2F2F2"/>
<path d="M1035.75 205.844C1034.16 206.443 1030.95 206.112 1028.57 205.099C1026.2 204.086 1025.54 202.799 1027.08 202.226C1028.62 201.655 1031.82 201.999 1034.23 202.985C1036.65 203.971 1037.33 205.247 1035.75 205.844Z" fill="#F2F2F2"/>
<path d="M1061.36 217.122C1059.12 218.012 1054.82 217.625 1051.79 216.227C1048.76 214.828 1048.08 212.993 1050.24 212.153C1052.4 211.313 1056.64 211.747 1059.75 213.094C1062.86 214.441 1063.6 216.232 1061.36 217.122Z" fill="#F2F2F2"/>
<path d="M1086.92 228.512C1083.94 229.758 1078.43 229.431 1074.71 227.714C1070.98 225.994 1070.35 223.602 1073.21 222.439C1076.06 221.274 1081.43 221.72 1085.28 223.36C1089.13 224.997 1089.9 227.271 1086.92 228.512Z" fill="#F2F2F2"/>
<path d="M1025.42 190.348C1023.56 190.891 1020.72 190.829 1018.93 190.257C1017.13 189.682 1017.08 188.814 1018.95 188.274C1020.82 187.731 1023.79 187.753 1025.57 188.324C1027.35 188.892 1027.28 189.802 1025.42 190.348Z" fill="#F2F2F2"/>
<path d="M1052.57 199.991C1049.98 200.794 1046.57 200.489 1044.07 199.554C1041.58 198.618 1040.93 197.426 1043.54 196.632C1046.15 195.834 1050.28 195.943 1052.77 196.865C1055.25 197.788 1055.16 199.184 1052.57 199.991Z" fill="#F2F2F2"/>
<path d="M1079.29 210.413C1076.01 211.511 1071.83 211.06 1068.63 209.774C1065.43 208.482 1064.36 206.898 1067.68 205.823C1071 204.749 1076.27 204.914 1079.46 206.173C1082.65 207.429 1082.58 209.315 1079.29 210.413Z" fill="#F2F2F2"/>
<path d="M1052.47 182.891C1050.6 183.374 1047.69 183.306 1045.95 182.746C1044.21 182.184 1044.32 181.34 1046.2 180.863C1048.08 180.384 1051.01 180.448 1052.73 181.01C1054.45 181.567 1054.33 182.409 1052.47 182.891Z" fill="#F2F2F2"/>
<path d="M1078.78 192.26C1076.21 192.973 1072.16 192.824 1069.73 191.922C1067.29 191.017 1067.43 189.717 1070.03 189.015C1072.63 188.309 1076.68 188.461 1079.09 189.354C1081.49 190.244 1081.35 191.545 1078.78 192.26Z" fill="#F2F2F2"/>
<path d="M1079.46 176.358C1077.61 176.775 1074.75 176.665 1073.09 176.114C1071.41 175.562 1071.58 174.783 1073.45 174.366C1075.32 173.948 1078.17 174.05 1079.83 174.598C1081.47 175.148 1081.31 175.937 1079.46 176.358Z" fill="#F2F2F2"/>
<path d="M214.19 468.327C221.45 465.854 229.878 459.749 233.429 453.804C236.981 447.859 234.316 444.404 227.002 447.058C219.691 449.712 210.545 457.33 207.046 463.091C203.549 468.855 206.933 470.799 214.19 468.327Z" fill="#F2F2F2"/>
<path d="M240.88 459.086C248.318 456.47 256.91 450.102 260.51 443.972C264.107 437.841 261.351 434.352 253.869 437.152C246.388 439.952 237.049 447.834 233.496 453.778C229.942 459.722 233.445 461.7 240.88 459.086Z" fill="#F2F2F2"/>
<path d="M268.121 449.387C275.69 446.665 284.404 440.059 288.043 433.742C291.68 427.426 288.874 423.872 281.266 426.779C273.661 429.687 264.169 437.818 260.57 443.948C256.97 450.078 260.556 452.108 268.121 449.387Z" fill="#F2F2F2"/>
<path d="M294.97 440.695C288.141 443.182 280.344 449.125 277.832 453.424C275.323 457.715 278.996 458.912 285.789 456.593C292.577 454.27 299.942 449.177 302.487 444.72C305.038 440.259 301.797 438.211 294.97 440.695Z" fill="#F2F2F2"/>
<path d="M295.745 439.364C303.397 436.567 312.191 429.754 315.864 423.248C319.536 416.749 316.708 413.098 309.021 416.081C301.335 419.061 291.732 427.408 288.097 433.72C284.459 440.042 288.095 442.16 295.745 439.364Z" fill="#F2F2F2"/>
<path d="M322.809 430.512C315.948 433.033 308.074 439.163 305.521 443.646C302.971 448.12 306.653 449.434 313.478 447.07C320.301 444.711 327.709 439.435 330.295 434.795C332.886 430.154 329.668 427.988 322.809 430.512Z" fill="#F2F2F2"/>
<path d="M323.591 429.126C331.279 426.287 340.113 419.299 343.822 412.614C347.529 405.932 344.711 402.159 336.987 405.178C329.267 408.199 319.594 416.726 315.922 423.228C312.25 429.732 315.905 431.964 323.591 429.126Z" fill="#F2F2F2"/>
<path d="M339.559 440.4C333.573 442.463 327.075 447.063 325.208 450.408C323.342 453.753 326.769 454.72 332.723 452.783C338.677 450.851 344.934 446.639 346.832 443.169C348.731 439.699 345.545 438.338 339.559 440.4Z" fill="#F2F2F2"/>
<path d="M350.686 420.23C343.835 422.759 335.919 429.049 333.325 433.706C330.734 438.365 334.391 439.805 341.204 437.43C348.016 435.057 355.431 429.634 358.061 424.821C360.694 420.007 357.535 417.698 350.686 420.23Z" fill="#F2F2F2"/>
<path d="M351.479 418.802C359.155 415.956 367.996 408.822 371.741 401.963C375.484 395.108 372.716 391.191 365.003 394.21C357.293 397.232 347.59 405.908 343.885 412.592C340.179 419.277 343.804 421.648 351.479 418.802Z" fill="#F2F2F2"/>
<path d="M357.794 448.141C352.707 449.772 347.34 453.358 345.862 456.076C344.384 458.794 347.324 459.713 352.384 458.177C357.442 456.637 362.724 453.147 364.228 450.339C365.733 447.531 362.881 446.511 357.794 448.141Z" fill="#F2F2F2"/>
<path d="M367.119 430.886C361.181 432.938 354.684 437.665 352.776 441.173C350.866 444.677 354.223 445.77 360.126 443.839C366.026 441.909 372.263 437.588 374.209 433.962C376.151 430.335 373.056 428.835 367.119 430.886Z" fill="#F2F2F2"/>
<path d="M378.434 409.975C371.635 412.482 363.716 418.9 361.078 423.734C358.443 428.567 362.033 430.153 368.791 427.794C375.546 425.43 382.943 419.89 385.618 414.913C388.296 409.929 385.228 407.466 378.434 409.975Z" fill="#F2F2F2"/>
<path d="M379.235 408.499C386.853 405.676 395.661 398.44 399.447 391.416C403.231 384.398 400.557 380.313 392.899 383.299C385.244 386.283 375.536 395.078 371.794 401.936C368.05 408.797 371.618 411.321 379.235 408.499Z" fill="#F2F2F2"/>
<path d="M384.79 439.473C379.785 441.082 374.439 444.764 372.918 447.616C371.4 450.467 374.249 451.501 379.224 449.974C384.197 448.45 389.433 444.879 390.982 441.94C392.533 439.003 389.795 437.863 384.79 439.473Z" fill="#F2F2F2"/>
<path d="M394.348 421.477C388.5 423.495 382.019 428.328 380.063 431.987C378.108 435.645 381.368 436.877 387.178 434.974C392.984 433.067 399.175 428.656 401.171 424.887C403.166 421.113 400.196 419.458 394.348 421.477Z" fill="#F2F2F2"/>
<path d="M405.883 399.87C399.178 402.328 391.286 408.841 388.602 413.841C385.922 418.835 389.409 420.587 396.066 418.266C402.719 415.947 410.059 410.319 412.786 405.187C415.518 400.052 412.584 397.414 405.883 399.87Z" fill="#F2F2F2"/>
<path d="M406.7 398.362C414.212 395.598 422.958 388.283 426.789 381.113C430.619 373.941 428.077 369.673 420.517 372.586C412.961 375.499 403.292 384.376 399.507 391.394C395.725 398.417 399.189 401.126 406.7 398.362Z" fill="#F2F2F2"/>
<path d="M411.256 430.955C406.37 432.526 401.069 436.284 399.506 439.262C397.941 442.24 400.665 443.392 405.518 441.9C410.369 440.407 415.536 436.767 417.134 433.711C418.733 430.657 416.142 429.384 411.256 430.955Z" fill="#F2F2F2"/>
<path d="M421.092 412.278C415.373 414.238 408.941 419.145 406.934 422.949C404.927 426.749 408.05 428.129 413.723 426.27C419.397 424.414 425.508 419.939 427.559 416.033C429.614 412.131 426.811 410.318 421.092 412.278Z" fill="#F2F2F2"/>
<path d="M432.862 390.034C426.296 392.411 418.455 398.986 415.721 404.139C412.988 409.289 416.328 411.207 422.84 408.957C429.348 406.705 436.605 401.03 439.393 395.755C442.183 390.48 439.425 387.658 432.862 390.034Z" fill="#F2F2F2"/>
<path d="M433.688 388.485C441.044 385.812 449.701 378.472 453.588 371.166C457.476 363.855 455.108 359.391 447.694 362.198C440.282 365 430.675 373.913 426.845 381.087C423.013 388.26 426.331 391.156 433.688 388.485Z" fill="#F2F2F2"/>
<path d="M427.701 440.424C423.77 441.609 419.45 444.667 418.085 447.278C416.718 449.885 418.794 451.104 422.7 449.965C426.603 448.83 430.878 445.726 432.273 443.07C433.666 440.416 431.631 439.241 427.701 440.424Z" fill="#F2F2F2"/>
<path d="M436.997 422.692C432.263 424.208 427.035 428.014 425.418 431.104C423.8 434.193 426.366 435.474 431.059 434.028C435.752 432.582 440.823 428.905 442.48 425.745C444.138 422.586 441.73 421.18 436.997 422.692Z" fill="#F2F2F2"/>
<path d="M447.136 403.402C441.586 405.282 435.229 410.231 433.164 414.166C431.097 418.098 434.042 419.635 439.54 417.845C445.038 416.06 451.049 411.551 453.17 407.528C455.288 403.504 452.689 401.526 447.136 403.402Z" fill="#F2F2F2"/>
<path d="M459.198 380.587C452.812 382.853 445.055 389.459 442.259 394.745C439.462 400.036 442.616 402.143 448.94 399.986C455.26 397.829 462.406 392.136 465.265 386.739C468.127 381.342 465.581 378.321 459.198 380.587Z" fill="#F2F2F2"/>
<path d="M460.049 379.006C467.206 376.459 475.733 369.126 479.69 361.704C483.645 354.283 481.498 349.601 474.274 352.264C467.051 354.927 457.542 363.837 453.655 371.144C449.764 378.45 452.893 381.552 460.049 379.006Z" fill="#F2F2F2"/>
<path d="M452.141 433.052C448.379 434.188 444.147 437.271 442.732 439.961C441.317 442.648 443.221 443.969 446.953 442.873C450.682 441.779 454.851 438.654 456.297 435.923C457.747 433.197 455.904 431.916 452.141 433.052Z" fill="#F2F2F2"/>
<path d="M461.801 414.785C457.258 416.225 452.123 420.058 450.444 423.247C448.765 426.44 451.131 427.845 455.628 426.463C460.124 425.083 465.078 421.39 466.805 418.14C468.529 414.888 466.344 413.344 461.801 414.785Z" fill="#F2F2F2"/>
<path d="M472.305 394.956C466.962 396.73 460.706 401.694 458.571 405.743C456.435 409.791 459.162 411.487 464.446 409.792C469.727 408.095 475.612 403.589 477.81 399.462C480.008 395.337 477.648 393.182 472.305 394.956Z" fill="#F2F2F2"/>
<path d="M484.718 371.65C478.554 373.776 470.905 380.37 468.037 385.783C465.169 391.191 468.088 393.49 474.177 391.457C480.262 389.42 487.273 383.747 490.216 378.247C493.16 372.746 490.878 369.524 484.718 371.65Z" fill="#F2F2F2"/>
<path d="M485.575 370.04C492.484 367.652 500.867 360.379 504.907 352.862C508.945 345.346 507.067 340.433 500.075 342.917C493.084 345.397 483.695 354.26 479.74 361.682C475.785 369.105 478.668 372.427 485.575 370.04Z" fill="#F2F2F2"/>
<path d="M465.157 445.099C462.319 445.922 458.949 448.523 457.64 450.966C456.329 453.41 457.549 454.791 460.363 453.986C463.177 453.181 466.54 450.478 467.874 448.017C469.207 445.558 467.995 444.274 465.157 445.099Z" fill="#F2F2F2"/>
<path d="M475.419 426.038C471.858 427.108 467.736 430.204 466.261 432.959C464.786 435.715 466.484 437.128 470.008 436.087C473.532 435.049 477.575 431.926 479.089 429.139C480.601 426.353 478.981 424.967 475.419 426.038Z" fill="#F2F2F2"/>
<path d="M485.501 407.318C481.186 408.667 476.166 412.501 474.415 415.777C472.663 419.052 474.797 420.589 479.058 419.289C483.321 417.99 488.135 414.309 489.942 410.982C491.748 407.659 489.819 405.971 485.501 407.318Z" fill="#F2F2F2"/>
<path d="M496.429 387.045C491.335 388.691 485.199 393.641 482.983 397.787C480.765 401.934 483.232 403.794 488.255 402.213C493.279 400.627 499.015 396.149 501.305 391.939C503.595 387.735 501.526 385.401 496.429 387.045Z" fill="#F2F2F2"/>
<path d="M509.231 363.336C503.334 365.294 495.82 371.843 492.865 377.355C489.911 382.868 492.551 385.362 498.361 383.478C504.168 381.591 511.015 375.977 514.058 370.394C517.101 364.81 515.127 361.38 509.231 363.336Z" fill="#F2F2F2"/>
<path d="M510.13 361.706C516.745 359.51 524.952 352.341 529.093 344.755C533.232 337.169 531.677 332.027 524.963 334.292C518.252 336.557 509.001 345.323 504.963 352.839C500.922 360.354 503.519 363.904 510.13 361.706Z" fill="#F2F2F2"/>
<path d="M486.46 438.874C483.93 439.624 480.685 442.21 479.322 444.684C477.958 447.164 478.965 448.615 481.46 447.879C483.953 447.141 487.146 444.44 488.545 441.948C489.939 439.459 488.989 438.122 486.46 438.874Z" fill="#F2F2F2"/>
<path d="M497.23 419.494C494.009 420.468 490 423.545 488.459 426.353C486.915 429.164 488.38 430.668 491.545 429.723C494.708 428.777 498.582 425.667 500.181 422.834C501.777 420.003 500.451 418.526 497.23 419.494Z" fill="#F2F2F2"/>
<path d="M507.826 400.421C503.866 401.634 498.958 405.443 497.125 408.788C495.292 412.133 497.172 413.792 501.048 412.618C504.922 411.444 509.576 407.779 511.483 404.398C513.39 401.017 511.784 399.205 507.826 400.421Z" fill="#F2F2F2"/>
<path d="M519.274 379.797C514.54 381.276 508.525 386.177 506.213 390.4C503.902 394.623 506.097 396.64 510.72 395.215C515.343 393.79 520.914 389.358 523.324 385.087C525.734 380.819 524.009 378.323 519.274 379.797Z" fill="#F2F2F2"/>
<path d="M532.578 355.785C527.027 357.533 519.649 363.992 516.593 369.582C513.54 375.172 515.883 377.867 521.294 376.176C526.702 374.485 533.383 368.95 536.557 363.312C539.732 357.669 538.127 354.037 532.578 355.785Z" fill="#F2F2F2"/>
<path d="M533.493 354.14C539.721 352.179 547.749 345.143 552.03 337.512C556.305 329.887 555.139 324.502 548.747 326.515C542.357 328.528 533.277 337.152 529.137 344.735C524.997 352.325 527.268 356.104 533.493 354.14Z" fill="#F2F2F2"/>
<path d="M507.062 432.504C504.079 433.441 500.544 436.163 499.115 438.659C497.683 441.159 498.805 442.511 501.681 441.595C504.557 440.675 508.164 437.828 509.704 435.309C511.238 432.795 510.044 431.568 507.062 432.504Z" fill="#F2F2F2"/>
<path d="M518.738 412.889C514.757 414.105 510.499 417.308 508.868 420.146C507.236 422.993 508.75 424.436 512.566 423.254C516.382 422.073 520.919 418.761 522.704 415.884C524.489 413.014 522.722 411.673 518.738 412.889Z" fill="#F2F2F2"/>
<path d="M530.272 393.54C525.171 395.069 520.134 398.942 518.193 402.331C516.252 405.724 518.039 407.386 522.903 405.91C527.77 404.434 533.385 400.537 535.531 397.105C537.677 393.67 535.374 392.013 530.272 393.54Z" fill="#F2F2F2"/>
<path d="M542.631 372.645C536.295 374.509 530.356 379.388 527.921 383.663C525.485 387.942 527.378 390.061 533.398 388.266C539.419 386.47 546.304 381.753 549.001 377.425C551.697 373.094 548.969 370.782 542.631 372.645Z" fill="#F2F2F2"/>
<path d="M556.834 348.405C549.148 350.62 542.126 356.928 538.935 362.571C535.748 368.214 537.516 371.116 544.797 368.982C552.078 366.849 560.471 361.013 563.983 355.316C567.494 349.615 564.52 346.189 556.834 348.405Z" fill="#F2F2F2"/>
<path d="M557.803 346.745C566.446 344.259 576.637 336.922 581.297 329.248C585.956 321.577 582.993 316.426 573.853 318.992C564.715 321.558 556.351 329.869 552.076 337.495C547.797 345.121 549.16 349.232 557.803 346.745Z" fill="#F2F2F2"/>
<path d="M530.236 425.167C527.29 426.107 523.586 428.858 521.934 431.38C520.283 433.906 521.237 435.249 524.097 434.299C526.959 433.352 530.71 430.479 532.449 427.961C534.185 425.447 533.185 424.226 530.236 425.167Z" fill="#F2F2F2"/>
<path d="M543.68 405.398C539.806 406.542 535.108 409.8 533.211 412.683C531.313 415.569 532.815 416.999 536.557 415.848C540.299 414.699 544.976 411.408 547.008 408.53C549.035 405.655 547.553 404.254 543.68 405.398Z" fill="#F2F2F2"/>
<path d="M556.994 385.855C552.094 387.204 546.208 391.195 543.96 394.641C541.712 398.087 543.775 399.706 548.488 398.353C553.197 396.999 558.926 393.19 561.363 389.75C563.801 386.31 561.894 384.51 556.994 385.855Z" fill="#F2F2F2"/>
<path d="M571.157 364.777C565.139 366.323 557.791 371.4 555.014 375.738C552.238 380.077 554.841 382.085 560.606 380.526C566.371 378.968 573.325 374.436 576.354 370.109C579.383 365.781 577.175 363.227 571.157 364.777Z" fill="#F2F2F2"/>
<path d="M587.123 340.396C579.896 342.129 570.76 348.747 567.201 354.45C563.645 360.153 566.709 362.839 573.613 361.082C580.515 359.326 588.916 353.801 592.794 348.116C596.674 342.433 594.347 338.659 587.123 340.396Z" fill="#F2F2F2"/>
<path d="M588.206 338.723C596.326 336.782 606.434 329.888 611.491 322.263C616.544 314.642 614.38 309.025 605.868 310.921C597.355 312.812 586.02 321.556 581.361 329.226C576.702 336.897 580.088 340.663 588.206 338.723Z" fill="#F2F2F2"/>
<path d="M537.245 439.195C535.122 439.98 532.165 442.336 530.605 444.531C529.044 446.721 529.438 447.907 531.527 447.097C533.615 446.289 536.633 443.807 538.233 441.64C539.83 439.468 539.364 438.411 537.245 439.195Z" fill="#F2F2F2"/>
<path d="M553.141 417.799C550.227 418.744 546.409 421.477 544.584 423.968C542.758 426.463 543.559 427.754 546.407 426.777C549.254 425.801 553.12 422.954 555.012 420.491C556.902 418.037 556.051 416.855 553.141 417.799Z" fill="#F2F2F2"/>
<path d="M567.977 398.346C564.201 399.422 559.406 402.611 557.286 405.468C555.166 408.326 556.427 409.758 560.102 408.634C563.775 407.516 568.552 404.301 570.776 401.484C572.996 398.672 571.752 397.269 567.977 398.346Z" fill="#F2F2F2"/>
<path d="M582.708 379.085C577.991 380.27 572.042 384.112 569.524 387.537C567.005 390.959 568.73 392.646 573.299 391.401C577.866 390.157 583.666 386.494 586.332 383.13C588.998 379.765 587.42 377.897 582.708 379.085Z" fill="#F2F2F2"/>
<path d="M598.271 358.286C592.546 359.551 585.189 364.365 582.098 368.68C579.007 372.997 581.155 375.17 586.684 373.825C592.211 372.48 599.193 368.188 602.482 363.954C605.766 359.717 603.993 357.023 598.271 358.286Z" fill="#F2F2F2"/>
<path d="M615.624 334.229C608.821 335.532 599.754 341.752 595.84 347.426C591.927 353.099 594.401 356.059 600.956 354.642C607.508 353.227 615.874 348.047 620.036 342.49C624.197 336.927 622.424 332.925 615.624 334.229Z" fill="#F2F2F2"/>
<path d="M616.786 332.586C624.427 331.136 634.417 324.74 639.775 317.272C645.129 309.812 643.644 303.88 635.704 305.165C627.766 306.452 616.609 314.622 611.556 322.246C606.499 329.873 609.147 334.036 616.786 332.586Z" fill="#F2F2F2"/>
<path d="M558.876 430.989C556.744 431.817 553.704 434.144 552.049 436.261C550.394 438.377 550.727 439.456 552.833 438.591C554.939 437.725 558.039 435.275 559.721 433.197C561.404 431.115 561.008 430.165 558.876 430.989Z" fill="#F2F2F2"/>
<path d="M575.775 410.408C572.896 411.357 568.993 414.025 567.039 416.431C565.08 418.842 565.766 420.044 568.597 419.041C571.429 418.037 575.376 415.254 577.381 412.898C579.384 410.547 578.655 409.461 575.775 410.408Z" fill="#F2F2F2"/>
<path d="M591.655 391.686C587.972 392.706 583.114 395.771 580.825 398.54C578.535 401.308 579.608 402.688 583.218 401.591C586.827 400.492 591.669 397.399 594.034 394.709C596.397 392.018 595.34 390.668 591.655 391.686Z" fill="#F2F2F2"/>
<path d="M607.449 373.131C602.904 374.173 596.931 377.813 594.206 381.138C591.481 384.464 592.928 386.156 597.363 385.006C601.801 383.858 607.633 380.383 610.467 377.167C613.3 373.945 611.994 372.085 607.449 373.131Z" fill="#F2F2F2"/>
<path d="M624.074 353.039C618.618 354.05 611.295 358.557 607.96 362.761C604.625 366.969 606.393 369.215 611.705 368.058C617.018 366.901 623.986 362.888 627.465 358.828C630.944 354.768 629.53 352.024 624.074 353.039Z" fill="#F2F2F2"/>
<path d="M642.461 329.732C636.044 330.65 627.086 336.415 622.897 341.957C618.71 347.498 620.687 350.623 626.926 349.51C633.161 348.397 641.448 343.618 645.814 338.272C650.186 332.928 648.878 328.816 642.461 329.732Z" fill="#F2F2F2"/>
<path d="M643.694 328.131C650.895 327.119 660.733 321.262 666.303 314.065C671.872 306.87 670.956 300.757 663.541 301.503C656.124 302.246 645.176 309.802 639.821 317.262C634.466 324.723 636.493 329.14 643.694 328.131Z" fill="#F2F2F2"/>
<path d="M561.109 445.187C559.643 445.898 557.38 447.787 556.022 449.462C554.662 451.142 554.721 451.946 556.18 451.209C557.634 450.473 559.942 448.503 561.31 446.849C562.674 445.197 562.57 444.477 561.109 445.187Z" fill="#F2F2F2"/>
<path d="M580.572 422.36C578.435 423.228 575.335 425.503 573.614 427.511C571.893 429.517 572.187 430.457 574.307 429.541C576.425 428.624 579.586 426.238 581.325 424.28C583.064 422.322 582.708 421.496 580.572 422.36Z" fill="#F2F2F2"/>
<path d="M598.172 402.969C595.322 403.921 591.371 406.491 589.323 408.77C587.271 411.049 587.867 412.124 590.687 411.094C593.504 410.065 597.502 407.388 599.584 405.182C601.663 402.981 601.02 402.014 598.172 402.969Z" fill="#F2F2F2"/>
<path d="M614.786 385.366C611.186 386.337 606.298 389.24 603.888 391.862C601.476 394.482 602.401 395.758 605.952 394.677C609.501 393.598 614.376 390.667 616.838 388.153C619.3 385.64 618.385 384.396 614.786 385.366Z" fill="#F2F2F2"/>
<path d="M631.343 367.888C626.952 368.806 620.983 372.206 618.108 375.361C615.23 378.518 616.46 380.147 620.777 379.081C625.092 378.013 630.927 374.773 633.878 371.762C636.824 368.753 635.73 366.968 631.343 367.888Z" fill="#F2F2F2"/>
<path d="M648.715 348.878C643.502 349.67 636.24 353.829 632.729 357.846C629.216 361.858 630.674 364.09 635.792 363.096C640.908 362.105 647.828 358.421 651.436 354.606C655.045 350.794 653.927 348.084 648.715 348.878Z" fill="#F2F2F2"/>
<path d="M667.83 326.696C661.759 327.276 652.942 332.57 648.556 337.889C644.171 343.208 645.738 346.377 651.688 345.53C657.635 344.681 665.818 340.336 670.323 335.288C674.831 330.241 673.897 326.117 667.83 326.696Z" fill="#F2F2F2"/>
<path d="M669.107 325.175C675.914 324.549 685.569 319.249 691.28 312.412C696.99 305.575 696.536 299.408 689.59 299.676C682.644 299.943 671.938 306.86 666.367 314.053C660.796 321.246 662.3 325.802 669.107 325.175Z" fill="#F2F2F2"/>
<path d="M582.505 434.542C581.022 435.3 578.721 437.138 577.34 438.707C575.958 440.275 576.022 440.951 577.501 440.161C578.982 439.377 581.321 437.456 582.706 435.916C584.09 434.377 583.99 433.786 582.505 434.542Z" fill="#F2F2F2"/>
<path d="M602.323 413.353C600.182 414.255 597.049 416.449 595.287 418.31C593.526 420.175 593.799 420.96 595.934 419.999C598.066 419.038 601.257 416.738 603.027 414.933C604.796 413.128 604.463 412.453 602.323 413.353Z" fill="#F2F2F2"/>
<path d="M620.334 395.487C617.512 396.445 613.533 398.886 611.425 400.993C609.315 403.102 609.854 404.01 612.659 402.957C615.462 401.904 619.483 399.366 621.611 397.348C623.735 395.332 623.152 394.524 620.334 395.487Z" fill="#F2F2F2"/>
<path d="M637.41 379.326C633.885 380.257 628.997 382.973 626.505 385.396C624.014 387.819 624.828 388.938 628.325 387.871C631.821 386.808 636.696 384.069 639.218 381.782C641.737 379.493 640.932 378.395 637.41 379.326Z" fill="#F2F2F2"/>
<path d="M654.434 363.258C650.183 364.071 644.255 367.193 641.277 370.122C638.3 373.052 639.353 374.55 643.562 373.552C647.771 372.554 653.578 369.583 656.596 366.837C659.615 364.092 658.684 362.443 654.434 363.258Z" fill="#F2F2F2"/>
<path d="M672.289 345.664C667.292 346.266 660.124 350.051 656.495 353.798C652.866 357.55 654.078 359.692 659.019 358.839C663.96 357.986 670.812 354.658 674.496 351.157C678.18 347.657 677.286 345.061 672.289 345.664Z" fill="#F2F2F2"/>
<path d="M691.852 324.945C686.093 325.235 677.442 330.017 672.923 335.033C668.404 340.045 669.641 343.17 675.333 342.55C681.024 341.93 689.075 338.05 693.661 333.369C698.248 328.687 697.609 324.657 691.852 324.945Z" fill="#F2F2F2"/>
<path d="M693.16 323.515C699.616 323.218 709.067 318.514 714.854 312.115C720.635 305.717 720.55 299.608 714.022 299.465C707.496 299.321 697.044 305.574 691.334 312.409C685.621 319.245 686.707 323.81 693.16 323.515Z" fill="#F2F2F2"/>
<path d="M604.155 423.27C602.653 424.067 600.33 425.837 598.945 427.276C597.556 428.717 597.632 429.249 599.135 428.418C600.634 427.587 602.992 425.739 604.38 424.334C605.764 422.928 605.653 422.474 604.155 423.27Z" fill="#F2F2F2"/>
<path d="M624.093 404.007C621.951 404.941 618.796 407.019 617.02 408.714C615.244 410.409 615.515 411.024 617.657 410.024C619.798 409.022 623.002 406.835 624.78 405.209C626.557 403.578 626.231 403.073 624.093 404.007Z" fill="#F2F2F2"/>
<path d="M642.279 387.947C639.484 388.915 635.501 391.196 633.364 393.095C631.223 394.997 631.73 395.719 634.519 394.646C637.309 393.571 641.332 391.192 643.477 389.396C645.617 387.601 645.073 386.979 642.279 387.947Z" fill="#F2F2F2"/>
<path d="M659.56 373.515C656.106 374.417 651.239 376.908 648.705 379.085C646.17 381.263 646.909 382.197 650.356 381.139C653.802 380.087 658.656 377.57 661.202 375.547C663.744 373.526 663.015 372.619 659.56 373.515Z" fill="#F2F2F2"/>
<path d="M676.822 359.144C672.694 359.869 666.825 362.686 663.792 365.337C660.76 367.984 661.687 369.31 665.8 368.368C669.913 367.425 675.667 364.752 678.714 362.32C681.762 359.889 680.951 358.417 676.822 359.144Z" fill="#F2F2F2"/>
<path d="M694.917 343.255C690.112 343.697 683.053 347.076 679.36 350.504C675.662 353.929 676.688 355.91 681.473 355.171C686.259 354.436 693.016 351.488 696.731 348.357C700.444 345.222 699.722 342.81 694.917 343.255Z" fill="#F2F2F2"/>
<path d="M714.689 324.278C709.202 324.32 700.731 328.58 696.138 333.215C691.549 337.852 692.53 340.851 697.998 340.42C703.463 339.989 711.368 336.592 715.977 332.343C720.591 328.094 720.175 324.233 714.689 324.278Z" fill="#F2F2F2"/>
<path d="M716.004 322.959C722.15 322.943 731.39 318.834 737.188 312.943C742.984 307.052 743.176 301.116 737.017 300.628C730.856 300.137 720.672 305.713 714.89 312.108C709.106 318.504 709.857 322.974 716.004 322.959Z" fill="#F2F2F2"/>
<path d="M626.03 411.449C624.516 412.281 622.19 413.969 620.812 415.266C619.432 416.563 619.529 416.939 621.049 416.071C622.563 415.202 624.921 413.445 626.298 412.187C627.672 410.93 627.542 410.619 626.03 411.449Z" fill="#F2F2F2"/>
<path d="M645.875 394.355C643.732 395.316 640.585 397.266 638.811 398.768C637.037 400.271 637.312 400.698 639.46 399.662C641.607 398.624 644.807 396.573 646.575 395.144C648.343 393.715 648.014 393.393 645.875 394.355Z" fill="#F2F2F2"/>
<path d="M664.027 380.34C661.258 381.318 657.291 383.415 655.149 385.077C653.005 386.743 653.5 387.256 656.276 386.16C659.049 385.065 663.054 382.875 665.191 381.327C667.325 379.782 666.794 379.363 664.027 380.34Z" fill="#F2F2F2"/>
<path d="M681.324 367.883C677.929 368.756 673.105 371.005 670.562 372.906C668.016 374.802 668.708 375.512 672.111 374.462C675.511 373.413 680.326 371.141 682.869 369.418C685.406 367.69 684.718 367.006 681.324 367.883Z" fill="#F2F2F2"/>
<path d="M698.617 355.453C694.595 356.109 688.804 358.601 685.754 360.924C682.704 363.248 683.545 364.342 687.573 363.44C691.6 362.539 697.282 360.183 700.324 358.102C703.366 356.022 702.636 354.794 698.617 355.453Z" fill="#F2F2F2"/>
<path d="M716.731 341.501C712.09 341.82 705.162 344.774 701.447 347.823C697.731 350.869 698.621 352.637 703.273 351.992C707.924 351.347 714.571 348.795 718.275 346.076C721.98 343.349 721.372 341.181 716.731 341.501Z" fill="#F2F2F2"/>
<path d="M736.512 324.506C731.259 324.353 722.979 328.07 718.366 332.272C713.756 336.469 714.545 339.261 719.817 338.984C725.085 338.704 732.832 335.798 737.423 332.032C742.017 328.261 741.76 324.658 736.512 324.506Z" fill="#F2F2F2"/>
<path d="M737.818 323.309C743.701 323.518 752.721 320.019 758.486 314.691C764.247 309.363 764.64 303.697 758.795 302.927C752.951 302.158 743.038 307.047 737.242 312.938C731.443 318.828 731.938 323.102 737.818 323.309Z" fill="#F2F2F2"/>
<path d="M648.051 399.183C646.528 400.041 644.209 401.621 642.85 402.761C641.489 403.898 641.613 404.129 643.14 403.227C644.668 402.326 647.019 400.675 648.375 399.578C649.725 398.482 649.571 398.321 648.051 399.183Z" fill="#F2F2F2"/>
<path d="M667.617 384.44C665.479 385.427 662.346 387.225 660.592 388.515C658.838 389.805 659.134 390.034 661.284 388.967C663.434 387.9 666.613 386.01 668.357 384.799C670.101 383.588 669.752 383.453 667.617 384.44Z" fill="#F2F2F2"/>
<path d="M685.559 372.668C682.812 373.653 678.882 375.553 676.76 376.956C674.634 378.359 675.131 378.636 677.893 377.523C680.653 376.407 684.621 374.426 686.731 373.151C688.838 371.876 688.303 371.679 685.559 372.668Z" fill="#F2F2F2"/>
<path d="M702.702 362.378C699.361 363.239 694.594 365.221 692.065 366.807C689.535 368.393 690.211 368.845 693.572 367.795C696.934 366.747 701.694 364.745 704.205 363.346C706.715 361.948 706.044 361.518 702.702 362.378Z" fill="#F2F2F2"/>
<path d="M719.849 352.074C715.92 352.681 710.219 354.836 707.185 356.793C704.151 358.753 704.941 359.579 708.895 358.71C712.849 357.837 718.446 355.81 721.456 354.113C724.465 352.416 723.776 351.468 719.849 352.074Z" fill="#F2F2F2"/>
<path d="M737.819 340.261C733.318 340.484 726.527 343.006 722.826 345.633C719.127 348.263 719.93 349.749 724.466 349.17C729.002 348.594 735.53 346.451 739.194 344.178C742.855 341.901 742.318 340.039 737.819 340.261Z" fill="#F2F2F2"/>
<path d="M757.43 325.445C752.375 325.14 744.29 328.32 739.703 332.034C735.117 335.748 735.777 338.262 740.882 338.097C745.984 337.931 753.57 335.522 758.107 332.275C762.644 329.027 762.483 325.745 757.43 325.445Z" fill="#F2F2F2"/>
<path d="M758.729 324.386C764.385 324.763 773.192 321.861 778.88 317.136C784.567 312.414 785.081 307.109 779.5 306.126C773.92 305.139 764.281 309.361 758.518 314.686C752.757 320.015 753.073 324.008 758.729 324.386Z" fill="#F2F2F2"/>
<path d="M736.638 347.156C735.115 348.073 732.913 349.148 731.701 349.587C730.488 350.029 730.733 349.63 732.266 348.669C733.796 347.709 736.02 346.578 737.226 346.184C738.428 345.787 738.157 346.241 736.638 347.156Z" fill="#F2F2F2"/>
<path d="M754.102 342.876C751.992 343.92 749.022 345.012 747.451 345.357C745.877 345.7 746.312 345.095 748.44 343.962C750.571 342.829 753.573 341.66 755.127 341.402C756.681 341.144 756.21 341.828 754.102 342.876Z" fill="#F2F2F2"/>
<path d="M770.193 341.099C767.521 342.134 763.815 343.115 761.9 343.339C759.982 343.559 760.605 342.827 763.308 341.649C766.012 340.474 769.747 339.416 771.634 339.334C773.519 339.253 772.866 340.063 770.193 341.099Z" fill="#F2F2F2"/>
<path d="M785.65 340.505C782.44 341.389 777.972 342.237 775.675 342.407C773.38 342.581 774.153 341.85 777.405 340.758C780.657 339.667 785.121 338.792 787.378 338.828C789.631 338.862 788.859 339.621 785.65 340.505Z" fill="#F2F2F2"/>
<path d="M801.183 339.748C797.465 340.343 792.166 341.116 789.395 341.416C786.623 341.717 787.471 341.2 791.249 340.317C795.026 339.431 800.258 338.748 802.971 338.739C805.683 338.727 804.903 339.153 801.183 339.748Z" fill="#F2F2F2"/>
<path d="M817.543 337.496C813.345 337.655 807.086 338.511 803.693 339.212C800.299 339.914 801.106 339.9 805.382 339.35C809.66 338.8 815.727 338.235 819.042 337.923C822.356 337.612 821.741 337.336 817.543 337.496Z" fill="#F2F2F2"/>
<path d="M758.635 333.842C757.124 334.76 754.963 335.686 753.794 335.95C752.623 336.211 752.899 335.674 754.42 334.713C755.94 333.752 758.123 332.769 759.285 332.55C760.442 332.33 760.146 332.926 758.635 333.842Z" fill="#F2F2F2"/>
<path d="M775.481 332.202C773.384 333.253 770.47 334.152 768.952 334.256C767.434 334.359 767.904 333.559 770.02 332.42C772.14 331.283 775.084 330.31 776.583 330.291C778.082 330.272 777.577 331.148 775.481 332.202Z" fill="#F2F2F2"/>
<path d="M791.038 332.948C788.379 333.995 784.738 334.75 782.886 334.669C781.032 334.586 781.695 333.597 784.384 332.411C787.073 331.223 790.744 330.4 792.568 330.62C794.389 330.836 793.698 331.897 791.038 332.948Z" fill="#F2F2F2"/>
<path d="M805.981 334.803C802.786 335.713 798.391 336.291 796.169 336.1C793.948 335.909 794.768 334.867 798.005 333.754C801.24 332.639 805.635 332.039 807.816 332.431C809.997 332.825 809.175 333.89 805.981 334.803Z" fill="#F2F2F2"/>
<path d="M821.037 336.462C817.332 337.097 812.118 337.558 809.431 337.43C806.745 337.302 807.646 336.417 811.408 335.497C815.171 334.575 820.324 334.197 822.953 334.609C825.582 335.02 824.744 335.823 821.037 336.462Z" fill="#F2F2F2"/>
<path d="M854.284 334.012C849.648 333.665 842.393 334.413 838.291 335.322C834.189 336.234 834.868 336.581 839.606 336.429C844.344 336.272 851.271 336.067 855.269 335.658C859.268 335.248 858.92 334.357 854.284 334.012Z" fill="#F2F2F2"/>
<path d="M780.458 320.564C778.961 321.477 776.846 322.265 775.716 322.355C774.586 322.446 774.881 321.769 776.388 320.816C777.893 319.863 780.029 319.027 781.152 318.978C782.272 318.93 781.952 319.655 780.458 320.564Z" fill="#F2F2F2"/>
<path d="M796.728 321.483C794.644 322.537 791.785 323.257 790.317 323.124C788.849 322.991 789.349 321.995 791.449 320.86C793.549 319.722 796.444 318.944 797.893 319.156C799.342 319.368 798.811 320.425 796.728 321.483Z" fill="#F2F2F2"/>
<path d="M811.77 324.682C809.122 325.748 805.537 326.275 803.749 325.903C801.956 325.527 802.658 324.288 805.333 323.091C808.008 321.895 811.617 321.294 813.384 321.801C815.147 322.309 814.419 323.617 811.77 324.682Z" fill="#F2F2F2"/>
<path d="M826.242 328.902C823.052 329.849 818.723 330.166 816.572 329.625C814.421 329.08 815.29 327.734 818.516 326.592C821.74 325.454 826.073 325.107 828.188 325.844C830.303 326.582 829.43 327.955 826.242 328.902Z" fill="#F2F2F2"/>
<path d="M840.844 332.899C837.136 333.595 831.986 333.764 829.383 333.221C826.781 332.679 827.745 331.421 831.504 330.451C835.263 329.481 840.35 329.38 842.905 330.195C845.459 331.01 844.552 332.198 840.844 332.899Z" fill="#F2F2F2"/>
<path d="M873.173 335.167C868.509 334.956 861.341 335.324 857.354 335.676C853.368 336.023 854.139 335.849 858.898 335.582C863.653 335.316 870.529 335.44 874.423 335.573C878.315 335.702 877.837 335.384 873.173 335.167Z" fill="#F2F2F2"/>
<path d="M670.18 386.526C668.652 387.41 666.353 388.884 665.022 389.854C663.69 390.825 663.842 390.894 665.379 389.969C666.911 389.043 669.241 387.511 670.568 386.578C671.89 385.653 671.705 385.646 670.18 386.526Z" fill="#F2F2F2"/>
<path d="M689.346 374.296C687.212 375.304 684.109 376.939 682.387 378.003C680.664 379.067 680.992 379.092 683.14 378.001C685.29 376.91 688.438 375.183 690.146 374.202C691.854 373.221 691.481 373.289 689.346 374.296Z" fill="#F2F2F2"/>
<path d="M706.954 364.916C704.228 365.911 700.346 367.59 698.258 368.71C696.169 369.835 696.681 369.873 699.428 368.741C702.174 367.61 706.096 365.844 708.164 364.855C710.229 363.868 709.679 363.917 706.954 364.916Z" fill="#F2F2F2"/>
<path d="M723.784 356.94C720.486 357.796 715.791 359.496 713.301 360.749C710.81 362.002 711.487 362.181 714.814 361.129C718.141 360.076 722.836 358.349 725.296 357.296C727.756 356.242 727.08 356.09 723.784 356.94Z" fill="#F2F2F2"/>
<path d="M740.651 348.915C736.799 349.491 731.199 351.295 728.206 352.864C725.213 354.429 725.985 354.957 729.878 354.102C733.771 353.247 739.281 351.561 742.233 350.273C745.185 348.985 744.504 348.338 740.651 348.915Z" fill="#F2F2F2"/>
<path d="M758.337 339.381C753.952 339.542 747.299 341.631 743.648 343.805C739.998 345.981 740.752 347.146 745.192 346.61C749.635 346.078 756.04 344.345 759.636 342.547C763.232 340.748 762.725 339.221 758.337 339.381Z" fill="#F2F2F2"/>
<path d="M777.641 326.898C772.746 326.491 764.856 329.131 760.324 332.319C755.796 335.509 756.378 337.678 761.35 337.591C766.321 337.504 773.745 335.587 778.198 332.89C782.653 330.193 782.536 327.304 777.641 326.898Z" fill="#F2F2F2"/>
<path d="M778.917 325.988C784.394 326.483 792.992 324.153 798.575 320.071C804.155 315.99 804.724 311.12 799.353 309.985C793.982 308.851 784.609 312.419 778.923 317.137C773.236 321.856 773.442 325.492 778.917 325.988Z" fill="#F2F2F2"/>
<path d="M692.358 373.583C690.829 374.485 688.555 375.832 687.261 376.63C685.964 377.426 686.148 377.335 687.687 376.393C689.224 375.448 691.523 374.042 692.811 373.29C694.095 372.534 693.886 372.684 692.358 373.583Z" fill="#F2F2F2"/>
<path d="M711.01 363.959C708.882 364.983 705.82 366.447 704.142 367.275C702.465 368.103 702.826 367.921 704.97 366.813C707.116 365.703 710.222 364.148 711.883 363.408C713.542 362.662 713.137 362.933 711.01 363.959Z" fill="#F2F2F2"/>
<path d="M728.167 357.073C725.462 358.083 721.635 359.537 719.596 360.364C717.557 361.193 718.098 360.976 720.83 359.826C723.565 358.677 727.427 357.138 729.441 356.452C731.452 355.763 730.875 356.066 728.167 357.073Z" fill="#F2F2F2"/>
<path d="M744.603 351.518C741.344 352.372 736.718 353.79 734.283 354.689C731.846 355.589 732.545 355.48 735.843 354.419C739.139 353.355 743.759 351.912 746.158 351.218C748.556 350.526 747.861 350.66 744.603 351.518Z" fill="#F2F2F2"/>
<path d="M761.084 345.874C757.293 346.437 751.794 347.891 748.864 349.046C745.932 350.198 746.713 350.398 750.555 349.548C754.399 348.697 759.811 347.349 762.692 346.482C765.573 345.616 764.876 345.309 761.084 345.874Z" fill="#F2F2F2"/>
<path d="M778.386 338.73C774.088 338.856 767.576 340.516 763.995 342.212C760.415 343.908 761.158 344.709 765.525 344.196C769.892 343.681 776.175 342.353 779.685 341.045C783.196 339.737 782.684 338.601 778.386 338.73Z" fill="#F2F2F2"/>
<path d="M797.271 328.669C792.498 328.206 784.797 330.329 780.352 332.965C775.909 335.601 776.46 337.37 781.326 337.326C786.192 337.277 793.462 335.834 797.813 333.708C802.166 331.579 802.045 329.13 797.271 328.669Z" fill="#F2F2F2"/>
<path d="M798.523 327.911C803.862 328.472 812.272 326.696 817.726 323.273C823.178 319.851 823.744 315.495 818.534 314.276C813.325 313.058 804.192 315.988 798.612 320.069C793.029 324.15 793.185 327.35 798.523 327.911Z" fill="#F2F2F2"/>
<path d="M714.529 360.434C713.002 361.345 710.761 362.558 709.506 363.178C708.249 363.798 708.466 363.552 710.003 362.597C711.539 361.641 713.805 360.369 715.052 359.793C716.296 359.217 716.053 359.522 714.529 360.434Z" fill="#F2F2F2"/>
<path d="M732.606 353.475C730.487 354.512 727.465 355.787 725.84 356.375C724.215 356.963 724.611 356.567 726.75 355.442C728.89 354.316 731.95 352.958 733.557 352.458C735.164 351.958 734.725 352.439 732.606 353.475Z" fill="#F2F2F2"/>
<path d="M749.249 349.142C746.562 350.165 742.792 351.373 740.813 351.9C738.833 352.427 739.413 351.954 742.131 350.792C744.849 349.627 748.65 348.329 750.602 347.945C752.55 347.562 751.937 348.12 749.249 349.142Z" fill="#F2F2F2"/>
<path d="M765.209 346.055C761.979 346.921 757.433 348.05 755.065 348.587C752.696 349.124 753.426 348.708 756.697 347.634C759.969 346.561 764.511 345.401 766.84 345.074C769.167 344.746 768.439 345.19 765.209 346.055Z" fill="#F2F2F2"/>
<path d="M781.236 342.851C777.487 343.419 772.095 344.526 769.238 345.254C766.382 345.982 767.188 345.835 770.992 344.972C774.798 344.112 780.114 343.101 782.913 342.665C785.711 342.228 784.983 342.28 781.236 342.851Z" fill="#F2F2F2"/>
<path d="M798.08 338.147C793.844 338.275 787.468 339.526 783.977 340.725C780.486 341.929 781.249 342.332 785.56 341.811C789.874 341.294 796.042 340.355 799.456 339.544C802.87 338.734 802.317 338.019 798.08 338.147Z" fill="#F2F2F2"/>
<path d="M816.494 330.573C811.804 330.103 804.271 331.731 799.931 333.794C795.594 335.859 796.159 337.19 800.953 337.144C805.744 337.096 812.875 336.098 817.109 334.551C821.346 333.002 821.183 331.042 816.494 330.573Z" fill="#F2F2F2"/>
<path d="M817.712 329.972C822.955 330.539 831.199 329.289 836.511 326.537C841.821 323.784 842.329 319.988 837.227 318.749C832.126 317.51 823.218 319.855 817.765 323.277C812.312 326.694 812.467 329.401 817.712 329.972Z" fill="#F2F2F2"/>
<path d="M835.444 332.416C830.802 331.986 823.424 333.153 819.2 334.64C814.978 336.124 815.586 336.982 820.335 336.898C825.085 336.817 832.101 336.235 836.215 335.265C840.332 334.291 840.087 332.848 835.444 332.416Z" fill="#F2F2F2"/>
<path d="M836.623 331.98C841.816 332.507 849.92 331.711 855.086 329.625C860.252 327.539 860.659 324.369 855.614 323.179C850.569 321.986 841.849 323.784 836.538 326.538C831.228 329.286 831.432 331.453 836.623 331.98Z" fill="#F2F2F2"/>
<path d="M836.899 336.63C832.714 336.851 826.554 337.339 823.261 337.544C819.967 337.748 820.839 337.301 825.1 336.698C829.363 336.094 835.349 335.87 838.566 336.048C841.783 336.222 841.088 336.409 836.899 336.63Z" fill="#F2F2F2"/>
<path d="M855.44 333.729C860.622 334.159 868.632 333.783 873.659 332.349C878.683 330.911 878.948 328.399 873.908 327.32C868.866 326.238 860.301 327.546 855.135 329.632C849.968 331.718 850.259 333.299 855.44 333.729Z" fill="#F2F2F2"/>
<path d="M856.259 335.403C852.06 335.721 845.976 335.881 842.779 335.601C839.584 335.325 840.527 334.427 844.798 333.749C849.067 333.068 854.993 333.149 858.123 333.792C861.253 334.434 860.461 335.088 856.259 335.403Z" fill="#F2F2F2"/>
<path d="M874.284 335.038C879.499 335.318 887.46 335.29 892.357 334.479C897.252 333.665 897.346 331.845 892.259 330.941C887.17 330.038 878.71 330.92 873.686 332.353C868.662 333.786 869.066 334.754 874.284 335.038Z" fill="#F2F2F2"/>
</svg>
